; Drill file
; Format: 2.4 (00.0000)
M48
INCH
T01C0.0157
T02C0.0197
T03C0.0236
T04C0.0276
T05C0.0354
T06C0.0394
T07C0.1772
%
G05
G90
T01
X010150Y017520
X010650Y017020
X011150Y017520
X018120Y026750
X018630Y027250
X017620Y027250
T02
X004490Y021900
X005270Y021900
X006050Y021900
X006830Y021900
X007610Y021900
X008420Y021900
X009210Y021900
X009990Y021900
X010800Y023310
X010800Y024090
X010800Y024900
X010800Y025680
X010800Y026470
X010800Y027250
X010000Y028620
X009990Y028650
X009210Y028650
X008420Y028650
X007610Y028650
X006830Y028650
X006050Y028650
X005270Y028650
X004490Y028650
T03
X012250Y017000
X014250Y017000
X013750Y018500
X012500Y019750
X011250Y019750
X011250Y021750
X012500Y021750
X013750Y021750
X013750Y020500
X015500Y021250
X016130Y022750
X018120Y022750
X015500Y019250
X013750Y023750
X014500Y029380
X015750Y029500
X017000Y028500
X019000Y029500
X019000Y031500
X017000Y031500
X015750Y031500
X013250Y031250
X012750Y031750
X012750Y030750
X012000Y029870
X011000Y031380
X010000Y029870
X007000Y029750
X005750Y029750
X005750Y031750
X007000Y031750
T04
X012500Y027880
T05
X012500Y024870
X013750Y025000
X015250Y023750
X015750Y025000
X017250Y023750
X015750Y027500
X013750Y027500
X013500Y029380
X014500Y031500
X014500Y033500
X011000Y032370
T06
X007000Y017910
X007870Y017190
X007000Y019470
X007870Y020190
X015500Y018000
X015500Y017000
X008630Y032000
X008630Y033000
X010250Y033750
X011250Y033750
X012250Y033750
X013250Y033750
X015500Y034250
X015500Y035250
X015500Y036750
X015500Y037750
T07
X006500Y014440
X006500Y014470
X006500Y014500
X006500Y014530
X006500Y014560
X006500Y035690
X006500Y035720
X006500Y035750
X006500Y035780
X006500Y035810
M30
