%FSLAX34Y34*%
%MOMM*%
%LNSILK_BOTTOM_*%
G71*
G01*
%ADD10C, 0.17*%
%LPD*%
G54D10*
X497840Y419100D02*
X511173Y419100D01*
G54D10*
X503173Y419100D02*
X504840Y420100D01*
X505340Y422100D01*
X504840Y424100D01*
X503173Y425100D01*
X497840Y425100D01*
G54D10*
X511173Y430767D02*
X498673Y430767D01*
X497840Y431767D01*
X498173Y432767D01*
G54D10*
X505340Y428767D02*
X505340Y432767D01*
G54D10*
X511173Y438434D02*
X498673Y438434D01*
X497840Y439434D01*
X498173Y440434D01*
G54D10*
X505340Y436434D02*
X505340Y440434D01*
G54D10*
X505340Y444101D02*
X494507Y444101D01*
G54D10*
X500340Y444101D02*
X498173Y445101D01*
X497840Y447101D01*
X498173Y449101D01*
X499840Y450101D01*
X503173Y450101D01*
X504840Y449101D01*
X505340Y447101D01*
X504840Y445101D01*
X502840Y444101D01*
G54D10*
X498673Y453768D02*
X497840Y455768D01*
X497840Y457768D01*
X498673Y459768D01*
X500340Y459768D01*
X501173Y458768D01*
X502007Y454768D01*
X502840Y453768D01*
X504507Y453768D01*
X505340Y455768D01*
X505340Y457768D01*
X504507Y459768D01*
G54D10*
X497840Y463435D02*
X497840Y463435D01*
G54D10*
X505340Y463435D02*
X505340Y463435D01*
G54D10*
X497840Y467102D02*
X511173Y475102D01*
G54D10*
X497840Y478769D02*
X511173Y486769D01*
G54D10*
X495340Y490436D02*
X494507Y492436D01*
X494507Y493836D01*
X495340Y495836D01*
X497007Y496436D01*
X505340Y496436D01*
G54D10*
X503173Y496436D02*
X504840Y495436D01*
X505340Y493436D01*
X504840Y491436D01*
X503173Y490436D01*
X499840Y490436D01*
X498173Y491436D01*
X497840Y493436D01*
X498173Y495436D01*
X499840Y496436D01*
G54D10*
X497840Y500103D02*
X505340Y500103D01*
G54D10*
X507840Y500103D02*
X507840Y500103D01*
G54D10*
X511173Y505770D02*
X498673Y505770D01*
X497840Y506770D01*
X498173Y507770D01*
G54D10*
X505340Y503770D02*
X505340Y507770D01*
G54D10*
X497840Y511437D02*
X511173Y511437D01*
G54D10*
X503173Y511437D02*
X504840Y512437D01*
X505340Y514437D01*
X504840Y516437D01*
X503173Y517437D01*
X497840Y517437D01*
G54D10*
X505340Y527104D02*
X497840Y527104D01*
G54D10*
X499507Y527104D02*
X498173Y526104D01*
X497840Y524104D01*
X498173Y522104D01*
X499507Y521104D01*
X505340Y521104D01*
G54D10*
X497840Y530771D02*
X511173Y530771D01*
G54D10*
X503173Y530771D02*
X504840Y531771D01*
X505340Y533771D01*
X504840Y535771D01*
X503173Y536771D01*
X499840Y536771D01*
X498173Y535771D01*
X497840Y533771D01*
X498173Y531771D01*
X499840Y530771D01*
G54D10*
X497840Y540438D02*
X497840Y540438D01*
G54D10*
X504840Y549105D02*
X505340Y547105D01*
X504840Y545105D01*
X503173Y544105D01*
X499840Y544105D01*
X498173Y545105D01*
X497840Y547105D01*
X498173Y549105D01*
G54D10*
X499840Y558772D02*
X503173Y558772D01*
X504840Y557772D01*
X505340Y555772D01*
X504840Y553772D01*
X503173Y552772D01*
X499840Y552772D01*
X498173Y553772D01*
X497840Y555772D01*
X498173Y557772D01*
X499840Y558772D01*
G54D10*
X497840Y562439D02*
X505340Y562439D01*
G54D10*
X504007Y562439D02*
X505340Y564439D01*
X504840Y566439D01*
X503673Y567439D01*
X497840Y567439D01*
G54D10*
X504007Y567439D02*
X505340Y569439D01*
X504840Y571439D01*
X503673Y572439D01*
X497840Y572439D01*
G54D10*
X497840Y576106D02*
X511173Y584106D01*
G54D10*
X500340Y595773D02*
X498673Y594773D01*
X497840Y592773D01*
X497840Y590773D01*
X498673Y588773D01*
X500340Y587773D01*
X508673Y587773D01*
X510340Y588773D01*
X511173Y590773D01*
X511173Y592773D01*
X510340Y594773D01*
X508673Y595773D01*
G54D10*
X497840Y599440D02*
X511173Y599440D01*
G54D10*
X503173Y599440D02*
X504840Y600440D01*
X505340Y602440D01*
X504840Y604440D01*
X503173Y605440D01*
X497840Y605440D01*
G54D10*
X497840Y609107D02*
X505340Y609107D01*
G54D10*
X507840Y609107D02*
X507840Y609107D01*
G54D10*
X505340Y612774D02*
X494507Y612774D01*
G54D10*
X500340Y612774D02*
X498173Y613774D01*
X497840Y615774D01*
X498173Y617774D01*
X499840Y618774D01*
X503173Y618774D01*
X504840Y617774D01*
X505340Y615774D01*
X504840Y613774D01*
X502840Y612774D01*
G54D10*
X497840Y626441D02*
X511173Y626441D01*
G54D10*
X511173Y622441D02*
X511173Y630441D01*
G54D10*
X498673Y640108D02*
X497840Y638508D01*
X497840Y636508D01*
X498673Y634508D01*
X500340Y634108D01*
X503173Y634108D01*
X504840Y635108D01*
X505340Y637108D01*
X504840Y639108D01*
X503673Y640108D01*
X502007Y640108D01*
X502007Y634108D01*
G54D10*
X504840Y648775D02*
X505340Y646775D01*
X504840Y644775D01*
X503173Y643775D01*
X499840Y643775D01*
X498173Y644775D01*
X497840Y646775D01*
X498173Y648775D01*
G54D10*
X497840Y652442D02*
X511173Y652442D01*
G54D10*
X503173Y652442D02*
X504840Y653442D01*
X505340Y655442D01*
X504840Y657442D01*
X503173Y658442D01*
X497840Y658442D01*
G54D10*
X497840Y662109D02*
X505340Y662109D01*
G54D10*
X503673Y662109D02*
X504840Y663109D01*
X505340Y665109D01*
X504840Y667109D01*
X503673Y668109D01*
X497840Y668109D01*
G54D10*
X499840Y677776D02*
X503173Y677776D01*
X504840Y676776D01*
X505340Y674776D01*
X504840Y672776D01*
X503173Y671776D01*
X499840Y671776D01*
X498173Y672776D01*
X497840Y674776D01*
X498173Y676776D01*
X499840Y677776D01*
G54D10*
X497840Y681443D02*
X511173Y689443D01*
G54D10*
X497840Y693110D02*
X511173Y693110D01*
G54D10*
X497840Y696777D02*
X511173Y696777D01*
X511173Y701777D01*
X510340Y703777D01*
X508673Y704777D01*
X507007Y704777D01*
X505340Y703777D01*
X504507Y701777D01*
X504507Y696777D01*
G54D10*
X497840Y708444D02*
X511173Y708444D01*
X502840Y713444D01*
X511173Y718444D01*
X497840Y718444D01*
G54D10*
X497840Y722111D02*
X511173Y722111D01*
G54D10*
X503673Y725778D02*
X503673Y733778D01*
G54D10*
X504840Y742445D02*
X505340Y740445D01*
X504840Y738445D01*
X503173Y737445D01*
X499840Y737445D01*
X498173Y738445D01*
X497840Y740445D01*
X498173Y742445D01*
G54D10*
X504507Y746112D02*
X505340Y748112D01*
X505340Y750512D01*
X503673Y752112D01*
X497840Y752112D01*
G54D10*
X500340Y752112D02*
X502007Y751112D01*
X502340Y749112D01*
X502007Y747112D01*
X500340Y746112D01*
X498673Y746512D01*
X497840Y748112D01*
X497840Y749112D01*
X497840Y749512D01*
X498673Y751112D01*
X500340Y752112D01*
G54D10*
X497840Y755779D02*
X505340Y755779D01*
G54D10*
X503673Y755779D02*
X505340Y757779D01*
X505340Y759779D01*
G54D10*
X497840Y769446D02*
X511173Y769446D01*
G54D10*
X503173Y769446D02*
X504840Y768446D01*
X505340Y766446D01*
X504840Y764446D01*
X503173Y763446D01*
X499840Y763446D01*
X498173Y764446D01*
X497840Y766446D01*
X498173Y768446D01*
X499840Y769446D01*
M02*
