%FSLAX34Y34*%
%MOMM*%
%LNSOLDERMASK_BOTTOM*%
G71*
G01*
%ADD10C, 7.10*%
%ADD11C, 2.60*%
%ADD12C, 2.60*%
%ADD13C, 2.40*%
%ADD14C, 2.40*%
%ADD15C, 2.60*%
%ADD16C, 2.60*%
%ADD17C, 1.80*%
%ADD18C, 2.00*%
%LPD*%
X165100Y368300D02*
G54D10*
D03*
X165100Y908050D02*
G54D10*
D03*
G36*
X262312Y699581D02*
X286312Y699581D01*
X286312Y684581D01*
X262312Y684581D01*
X262312Y699581D01*
G37*
G36*
X262312Y679738D02*
X286312Y679738D01*
X286312Y664738D01*
X262312Y664738D01*
X262312Y679738D01*
G37*
G36*
X262312Y659894D02*
X286312Y659894D01*
X286312Y644894D01*
X262312Y644894D01*
X262312Y659894D01*
G37*
G36*
X262312Y640050D02*
X286312Y640050D01*
X286312Y625050D01*
X262312Y625050D01*
X262312Y640050D01*
G37*
G36*
X262312Y619412D02*
X286312Y619412D01*
X286312Y604412D01*
X262312Y604412D01*
X262312Y619412D01*
G37*
G36*
X262312Y599569D02*
X286312Y599569D01*
X286312Y584569D01*
X262312Y584569D01*
X262312Y599569D01*
G37*
G36*
X106475Y739800D02*
X121475Y739800D01*
X121475Y715800D01*
X106475Y715800D01*
X106475Y739800D01*
G37*
G36*
X126319Y739800D02*
X141319Y739800D01*
X141319Y715800D01*
X126319Y715800D01*
X126319Y739800D01*
G37*
G36*
X146162Y739800D02*
X161162Y739800D01*
X161162Y715800D01*
X146162Y715800D01*
X146162Y739800D01*
G37*
G36*
X166006Y739800D02*
X181006Y739800D01*
X181006Y715800D01*
X166006Y715800D01*
X166006Y739800D01*
G37*
G36*
X185850Y739800D02*
X200850Y739800D01*
X200850Y715800D01*
X185850Y715800D01*
X185850Y739800D01*
G37*
G36*
X206488Y739800D02*
X221488Y739800D01*
X221488Y715800D01*
X206488Y715800D01*
X206488Y739800D01*
G37*
G36*
X226331Y739800D02*
X241331Y739800D01*
X241331Y715800D01*
X226331Y715800D01*
X226331Y739800D01*
G37*
G36*
X246175Y739800D02*
X261175Y739800D01*
X261175Y715800D01*
X246175Y715800D01*
X246175Y739800D01*
G37*
G36*
X246175Y568350D02*
X261175Y568350D01*
X261175Y544350D01*
X246175Y544350D01*
X246175Y568350D01*
G37*
G36*
X226331Y568350D02*
X241331Y568350D01*
X241331Y544350D01*
X226331Y544350D01*
X226331Y568350D01*
G37*
G36*
X206488Y568350D02*
X221488Y568350D01*
X221488Y544350D01*
X206488Y544350D01*
X206488Y568350D01*
G37*
G36*
X185850Y568350D02*
X200850Y568350D01*
X200850Y544350D01*
X185850Y544350D01*
X185850Y568350D01*
G37*
G36*
X166006Y568350D02*
X181006Y568350D01*
X181006Y544350D01*
X166006Y544350D01*
X166006Y568350D01*
G37*
G36*
X146162Y568350D02*
X161162Y568350D01*
X161162Y544350D01*
X146162Y544350D01*
X146162Y568350D01*
G37*
G36*
X126319Y568350D02*
X141319Y568350D01*
X141319Y544350D01*
X126319Y544350D01*
X126319Y568350D01*
G37*
G36*
X106475Y568350D02*
X121475Y568350D01*
X121475Y544350D01*
X106475Y544350D01*
X106475Y568350D01*
G37*
X165100Y908844D02*
G54D10*
D03*
X165100Y909638D02*
G54D10*
D03*
X165100Y907256D02*
G54D10*
D03*
X165100Y906462D02*
G54D10*
D03*
X165100Y369094D02*
G54D10*
D03*
X165100Y369888D02*
G54D10*
D03*
X165100Y367506D02*
G54D10*
D03*
X165100Y366712D02*
G54D10*
D03*
G36*
X187025Y525762D02*
X213025Y525762D01*
X213025Y499762D01*
X187025Y499762D01*
X187025Y525762D01*
G37*
G36*
X187025Y449562D02*
X213025Y449562D01*
X213025Y423562D01*
X187025Y423562D01*
X187025Y449562D01*
G37*
X177800Y454819D02*
G54D11*
D03*
X177800Y494506D02*
G54D11*
D03*
X431800Y724002D02*
G54D12*
D03*
X482600Y749402D02*
G54D12*
D03*
X482600Y800202D02*
G54D12*
D03*
X431800Y800202D02*
G54D12*
D03*
X400050Y800100D02*
G54D13*
D03*
X400050Y749300D02*
G54D13*
D03*
G36*
X247350Y862645D02*
X254955Y870250D01*
X265745Y870250D01*
X273350Y862645D01*
X273350Y851855D01*
X265745Y844250D01*
X254955Y844250D01*
X247350Y851855D01*
X247350Y862645D01*
G37*
G36*
X272750Y862645D02*
X280355Y870250D01*
X291145Y870250D01*
X298750Y862645D01*
X298750Y851855D01*
X291145Y844250D01*
X280355Y844250D01*
X272750Y851855D01*
X272750Y862645D01*
G37*
G36*
X298150Y862645D02*
X305755Y870250D01*
X316545Y870250D01*
X324150Y862645D01*
X324150Y851855D01*
X316545Y844250D01*
X305755Y844250D01*
X298150Y851855D01*
X298150Y862645D01*
G37*
G36*
X323550Y862645D02*
X331155Y870250D01*
X341945Y870250D01*
X349550Y862645D01*
X349550Y851855D01*
X341945Y844250D01*
X331155Y844250D01*
X323550Y851855D01*
X323550Y862645D01*
G37*
G36*
X206075Y843595D02*
X213680Y851200D01*
X224470Y851200D01*
X232075Y843595D01*
X232075Y832805D01*
X224470Y825200D01*
X213680Y825200D01*
X206075Y832805D01*
X206075Y843595D01*
G37*
G36*
X206075Y818195D02*
X213680Y825800D01*
X224470Y825800D01*
X232075Y818195D01*
X232075Y807405D01*
X224470Y799800D01*
X213680Y799800D01*
X206075Y807405D01*
X206075Y818195D01*
G37*
X279399Y822325D02*
G54D13*
D03*
X279399Y796925D02*
G54D13*
D03*
X279399Y822325D02*
G54D14*
D03*
X342900Y746125D02*
G54D13*
D03*
X368300Y746125D02*
G54D13*
D03*
X342900Y746125D02*
G54D14*
D03*
X368300Y850900D02*
G54D15*
D03*
X368300Y800100D02*
G54D15*
D03*
X368300Y850900D02*
G54D14*
D03*
G36*
X246000Y740070D02*
X262000Y740070D01*
X262000Y714070D01*
X246000Y714070D01*
X246000Y740070D01*
G37*
X317500Y631825D02*
G54D16*
D03*
X317500Y708025D02*
G54D16*
D03*
X317500Y631820D02*
G54D15*
D03*
X177800Y454820D02*
G54D15*
D03*
X349250Y635000D02*
G54D15*
D03*
X400050Y635000D02*
G54D15*
D03*
X349250Y698500D02*
G54D15*
D03*
X400050Y698500D02*
G54D15*
D03*
X400050Y698500D02*
G54D15*
D03*
X400050Y635000D02*
G54D15*
D03*
G36*
X399095Y470200D02*
X406700Y462595D01*
X406700Y451805D01*
X399095Y444200D01*
X388305Y444200D01*
X380700Y451805D01*
X380700Y462595D01*
X388305Y470200D01*
X399095Y470200D01*
G37*
G36*
X399095Y444800D02*
X406700Y437195D01*
X406700Y426405D01*
X399095Y418800D01*
X388305Y418800D01*
X380700Y426405D01*
X380700Y437195D01*
X388305Y444800D01*
X399095Y444800D01*
G37*
X473075Y692150D02*
G54D17*
D03*
X460375Y679450D02*
G54D17*
D03*
X447675Y692150D02*
G54D17*
D03*
X473075Y692150D02*
G54D17*
D03*
G36*
X399095Y908350D02*
X406700Y900745D01*
X406700Y889955D01*
X399095Y882350D01*
X388305Y882350D01*
X380700Y889955D01*
X380700Y900745D01*
X388305Y908350D01*
X399095Y908350D01*
G37*
G36*
X399095Y882950D02*
X406700Y875345D01*
X406700Y864555D01*
X399095Y856950D01*
X388305Y856950D01*
X380700Y864555D01*
X380700Y875345D01*
X388305Y882950D01*
X399095Y882950D01*
G37*
G36*
X399095Y971850D02*
X406700Y964245D01*
X406700Y953455D01*
X399095Y945850D01*
X388305Y945850D01*
X380700Y953455D01*
X380700Y964245D01*
X388305Y971850D01*
X399095Y971850D01*
G37*
G36*
X399095Y946450D02*
X406700Y938845D01*
X406700Y928055D01*
X399095Y920450D01*
X388305Y920450D01*
X380700Y928055D01*
X380700Y938845D01*
X388305Y946450D01*
X399095Y946450D01*
G37*
X323850Y806450D02*
G54D18*
D03*
X336550Y793750D02*
G54D18*
D03*
X323850Y781050D02*
G54D18*
D03*
X323850Y806450D02*
G54D18*
D03*
X304800Y758825D02*
G54D12*
D03*
X349250Y520700D02*
G54D12*
D03*
X349250Y469900D02*
G54D12*
D03*
X460375Y577850D02*
G54D12*
D03*
X409575Y577850D02*
G54D12*
D03*
X283256Y444953D02*
G54D17*
D03*
X270556Y432253D02*
G54D17*
D03*
X257856Y444953D02*
G54D17*
D03*
X283256Y444953D02*
G54D17*
D03*
X311150Y431800D02*
G54D12*
D03*
X361950Y431800D02*
G54D12*
D03*
X254000Y758825D02*
G54D12*
D03*
X304800Y758825D02*
G54D12*
D03*
X146050Y806450D02*
G54D12*
D03*
X146050Y755650D02*
G54D12*
D03*
X177800Y806450D02*
G54D12*
D03*
X177800Y755650D02*
G54D12*
D03*
X349250Y603250D02*
G54D12*
D03*
X349250Y552450D02*
G54D12*
D03*
X285750Y552450D02*
G54D12*
D03*
X285750Y501650D02*
G54D12*
D03*
X317500Y552450D02*
G54D12*
D03*
X317500Y501650D02*
G54D12*
D03*
X393700Y539750D02*
G54D12*
D03*
X393700Y488950D02*
G54D12*
D03*
X393700Y539750D02*
G54D12*
D03*
X438150Y603250D02*
G54D15*
D03*
X387350Y603250D02*
G54D15*
D03*
X438150Y603250D02*
G54D14*
D03*
M02*
