; Drill file
; Format: 2.4 (00.0000)
M48
INCH
T01C0.0157
T02C0.0236
T03C0.0315
T04C0.0354
T05C0.0394
T06C0.0433
T07C0.1024
%
G05
G90
T01
X007380Y005000
X008330Y003640
X011560Y013010
X013560Y012270
X010000Y015190
X009220Y015190
X008440Y015190
X007620Y015190
X006840Y015190
X006060Y015190
X005280Y015190
X004500Y015190
X004500Y021880
X005280Y021880
X006060Y021880
X006840Y021880
X007620Y021880
X008440Y021880
X009220Y021880
X010000Y021880
X011750Y023370
T02
X009750Y008630
X011750Y007000
X013750Y007000
X013750Y005000
X011750Y004000
X011750Y017750
X014250Y023750
X015250Y023750
X016250Y023750
X017250Y023750
X018250Y023750
X019250Y023750
X020250Y023750
X021250Y023750
X022250Y024750
X022250Y025750
X022250Y026750
X022250Y027750
X022250Y028750
X022250Y029750
X022250Y030750
X022250Y031750
X021250Y032750
X020250Y032750
X019250Y032750
X018250Y032750
X017250Y032750
X016250Y032750
X015250Y032750
X014250Y032750
X013250Y031750
X013250Y030750
X013250Y029750
X013250Y028750
X013250Y027750
X013250Y026750
X013250Y025750
X013250Y024750
X010000Y030000
X006500Y033000
T03
X002750Y022630
X002750Y023620
X002750Y024750
X002750Y025750
X006500Y027250
X006500Y028250
X006500Y029250
X006500Y030250
X006500Y031250
X022250Y022000
X022250Y016000
T04
X009750Y009630
X015500Y009750
X015500Y008750
X015500Y007000
X015500Y006000
X015500Y005000
X015500Y004000
X015500Y011500
X015500Y012500
X015500Y013500
X015500Y014500
X014250Y016000
X012250Y016000
X012750Y017750
X017750Y018000
X017750Y019000
X017750Y020000
X017750Y021000
X017750Y022000
X018840Y021980
X018840Y020980
X018840Y019980
X018840Y018980
X018840Y017980
X018840Y016980
X018840Y015980
X017750Y016000
X017750Y017000
X022250Y023750
X022250Y032750
X015500Y034500
X015500Y035500
X015500Y036500
X015500Y037500
X013250Y032750
X010250Y031250
X008250Y031250
X006500Y034000
X003500Y031880
X001750Y031250
X001750Y027250
X003500Y026630
X011500Y027500
X011500Y029500
X013250Y023750
T05
X003750Y006590
X003750Y008190
X003750Y011090
X003750Y012690
X009090Y027440
X003750Y033220
X003750Y034810
T06
X004630Y005910
X004630Y008870
X004630Y010410
X004630Y013370
X004630Y032530
X004630Y035500
T07
X002500Y004500
X002500Y037000
M30
