%FSLAX34Y34*%
%MOMM*%
%LNSILK_TOP*%
G71*
G01*
%ADD10C, 2.60*%
%ADD11C, 2.60*%
%ADD12C, 2.60*%
%ADD13C, 2.60*%
%ADD14C, 3.00*%
%ADD15C, 5.00*%
%ADD16C, 1.50*%
%ADD17C, 3.00*%
%ADD18C, 0.53*%
%ADD19C, 0.33*%
%ADD20C, 0.67*%
%ADD21C, 1.60*%
%ADD22C, 1.60*%
%ADD23C, 1.60*%
%ADD24C, 1.60*%
%ADD25C, 2.00*%
%ADD26C, 4.00*%
%ADD27C, 0.50*%
%ADD28C, 2.00*%
%LPD*%
G36*
X0Y1000000D02*
X630000Y1000000D01*
X630000Y50000D01*
X0Y50000D01*
X0Y1000000D01*
G37*
%LPC*%
G36*
X101300Y576625D02*
X127300Y576625D01*
X127300Y534625D01*
X101300Y534625D01*
X101300Y576625D01*
G37*
G36*
X121144Y576625D02*
X147144Y576625D01*
X147144Y534625D01*
X121144Y534625D01*
X121144Y576625D01*
G37*
G36*
X140988Y576625D02*
X166988Y576625D01*
X166988Y534625D01*
X140988Y534625D01*
X140988Y576625D01*
G37*
G36*
X160831Y576625D02*
X186831Y576625D01*
X186831Y534625D01*
X160831Y534625D01*
X160831Y576625D01*
G37*
G36*
X180675Y576625D02*
X206675Y576625D01*
X206675Y534625D01*
X180675Y534625D01*
X180675Y576625D01*
G37*
G36*
X201312Y576625D02*
X227312Y576625D01*
X227312Y534625D01*
X201312Y534625D01*
X201312Y576625D01*
G37*
G36*
X221156Y576625D02*
X247156Y576625D01*
X247156Y534625D01*
X221156Y534625D01*
X221156Y576625D01*
G37*
G36*
X241000Y576625D02*
X267000Y576625D01*
X267000Y534625D01*
X241000Y534625D01*
X241000Y576625D01*
G37*
G36*
X101300Y406762D02*
X127300Y406762D01*
X127300Y364762D01*
X101300Y364762D01*
X101300Y406762D01*
G37*
G36*
X121144Y406762D02*
X147144Y406762D01*
X147144Y364762D01*
X121144Y364762D01*
X121144Y406762D01*
G37*
G36*
X140988Y406762D02*
X166988Y406762D01*
X166988Y364762D01*
X140988Y364762D01*
X140988Y406762D01*
G37*
G36*
X160831Y406762D02*
X186831Y406762D01*
X186831Y364762D01*
X160831Y364762D01*
X160831Y406762D01*
G37*
G36*
X180675Y406762D02*
X206675Y406762D01*
X206675Y364762D01*
X180675Y364762D01*
X180675Y406762D01*
G37*
G36*
X201312Y406762D02*
X227312Y406762D01*
X227312Y364762D01*
X201312Y364762D01*
X201312Y406762D01*
G37*
G36*
X221156Y406762D02*
X247156Y406762D01*
X247156Y364762D01*
X221156Y364762D01*
X221156Y406762D01*
G37*
G36*
X241000Y406762D02*
X267000Y406762D01*
X267000Y364762D01*
X241000Y364762D01*
X241000Y406762D01*
G37*
G36*
X104475Y352725D02*
X130475Y352725D01*
X130475Y326725D01*
X104475Y326725D01*
X104475Y352725D01*
G37*
G36*
X104475Y277319D02*
X130475Y277319D01*
X130475Y251319D01*
X104475Y251319D01*
X104475Y277319D01*
G37*
X95250Y281781D02*
G54D10*
D03*
X95250Y322262D02*
G54D10*
D03*
G36*
X104475Y238425D02*
X130475Y238425D01*
X130475Y212425D01*
X104475Y212425D01*
X104475Y238425D01*
G37*
G36*
X104475Y163019D02*
X130475Y163019D01*
X130475Y137019D01*
X104475Y137019D01*
X104475Y163019D01*
G37*
X95250Y167481D02*
G54D10*
D03*
X95250Y207962D02*
G54D10*
D03*
G36*
X104475Y914700D02*
X130475Y914700D01*
X130475Y888700D01*
X104475Y888700D01*
X104475Y914700D01*
G37*
G36*
X104475Y839294D02*
X130475Y839294D01*
X130475Y813294D01*
X104475Y813294D01*
X104475Y839294D01*
G37*
X95250Y843756D02*
G54D10*
D03*
X95250Y884238D02*
G54D10*
D03*
X165100Y793750D02*
G54D11*
D03*
X165100Y768350D02*
G54D11*
D03*
X165100Y742950D02*
G54D11*
D03*
X165100Y717550D02*
G54D11*
D03*
X165100Y692150D02*
G54D11*
D03*
X95245Y167485D02*
G54D10*
D03*
X95245Y281785D02*
G54D10*
D03*
X95245Y884240D02*
G54D10*
D03*
X478532Y558267D02*
G54D12*
D03*
X478532Y532867D02*
G54D12*
D03*
X478532Y507467D02*
G54D12*
D03*
X478532Y482067D02*
G54D12*
D03*
X478532Y456667D02*
G54D12*
D03*
X478532Y431267D02*
G54D12*
D03*
X478532Y405867D02*
G54D12*
D03*
G36*
X406700Y947105D02*
X399095Y939500D01*
X388305Y939500D01*
X380700Y947105D01*
X380700Y957895D01*
X388305Y965500D01*
X399095Y965500D01*
X406700Y957895D01*
X406700Y947105D01*
G37*
G36*
X406700Y921705D02*
X399095Y914100D01*
X388305Y914100D01*
X380700Y921705D01*
X380700Y932495D01*
X388305Y940100D01*
X399095Y940100D01*
X406700Y932495D01*
X406700Y921705D01*
G37*
G36*
X406700Y896305D02*
X399095Y888700D01*
X388305Y888700D01*
X380700Y896305D01*
X380700Y907095D01*
X388305Y914700D01*
X399095Y914700D01*
X406700Y907095D01*
X406700Y896305D01*
G37*
G36*
X406700Y870905D02*
X399095Y863300D01*
X388305Y863300D01*
X380700Y870905D01*
X380700Y881695D01*
X388305Y889300D01*
X399095Y889300D01*
X406700Y881695D01*
X406700Y870905D01*
G37*
G36*
X406700Y172405D02*
X399095Y164800D01*
X388305Y164800D01*
X380700Y172405D01*
X380700Y183195D01*
X388305Y190800D01*
X399095Y190800D01*
X406700Y183195D01*
X406700Y172405D01*
G37*
G36*
X406700Y147005D02*
X399095Y139400D01*
X388305Y139400D01*
X380700Y147005D01*
X380700Y157795D01*
X388305Y165400D01*
X399095Y165400D01*
X406700Y157795D01*
X406700Y147005D01*
G37*
G36*
X406700Y121605D02*
X399095Y114000D01*
X388305Y114000D01*
X380700Y121605D01*
X380700Y132395D01*
X388305Y140000D01*
X399095Y140000D01*
X406700Y132395D01*
X406700Y121605D01*
G37*
G36*
X406700Y96205D02*
X399095Y88600D01*
X388305Y88600D01*
X380700Y96205D01*
X380700Y106995D01*
X388305Y114600D01*
X399095Y114600D01*
X406700Y106995D01*
X406700Y96205D01*
G37*
G36*
X406700Y242255D02*
X399095Y234650D01*
X388305Y234650D01*
X380700Y242255D01*
X380700Y253045D01*
X388305Y260650D01*
X399095Y260650D01*
X406700Y253045D01*
X406700Y242255D01*
G37*
G36*
X406700Y216855D02*
X399095Y209250D01*
X388305Y209250D01*
X380700Y216855D01*
X380700Y227645D01*
X388305Y235250D01*
X399095Y235250D01*
X406700Y227645D01*
X406700Y216855D01*
G37*
X165100Y863600D02*
G54D13*
D03*
X165100Y838200D02*
G54D13*
D03*
X260350Y793750D02*
G54D12*
D03*
X209550Y793750D02*
G54D12*
D03*
X323850Y450850D02*
G54D13*
D03*
X298450Y450850D02*
G54D13*
D03*
X361950Y406400D02*
G54D12*
D03*
X311150Y406400D02*
G54D12*
D03*
X298450Y101600D02*
G54D13*
D03*
X349250Y127000D02*
G54D13*
D03*
X349250Y177800D02*
G54D13*
D03*
X298450Y177800D02*
G54D13*
D03*
X69850Y628650D02*
G54D11*
D03*
X69850Y654050D02*
G54D11*
D03*
X69850Y600075D02*
G54D11*
D03*
X69850Y574675D02*
G54D11*
D03*
G36*
X241000Y576630D02*
X267000Y576630D01*
X267000Y534630D01*
X241000Y534630D01*
X241000Y576630D01*
G37*
G36*
X288450Y608725D02*
X308450Y608725D01*
X308450Y578725D01*
X288450Y578725D01*
X288450Y608725D01*
G37*
X69850Y654050D02*
G54D13*
D03*
X69850Y574675D02*
G54D11*
D03*
G36*
X241000Y775000D02*
X267000Y775000D01*
X267000Y749000D01*
X241000Y749000D01*
X241000Y775000D01*
G37*
X361950Y406400D02*
G54D14*
D03*
X165095Y863600D02*
G54D14*
D03*
X260350Y793750D02*
G54D14*
D03*
X323855Y450855D02*
G54D14*
D03*
X88900Y809625D02*
G54D14*
D03*
X88900Y676275D02*
G54D14*
D03*
X44425Y793750D02*
G54D14*
D03*
X44450Y692150D02*
G54D14*
D03*
X478532Y507467D02*
G54D14*
D03*
X478532Y482067D02*
G54D14*
D03*
G36*
X221604Y82389D02*
X201604Y82389D01*
X201604Y102389D01*
X221604Y102389D01*
X221604Y82389D01*
G37*
G36*
X283498Y320476D02*
X283498Y340476D01*
X303498Y340476D01*
X303498Y320476D01*
X283498Y320476D01*
G37*
X63500Y939800D02*
G54D15*
D03*
G36*
X406700Y362905D02*
X399095Y355300D01*
X388305Y355300D01*
X380700Y362905D01*
X380700Y373695D01*
X388305Y381300D01*
X399095Y381300D01*
X406700Y373695D01*
X406700Y362905D01*
G37*
G36*
X406700Y337505D02*
X399095Y329900D01*
X388305Y329900D01*
X380700Y337505D01*
X380700Y348295D01*
X388305Y355900D01*
X399095Y355900D01*
X406700Y348295D01*
X406700Y337505D01*
G37*
G36*
X406700Y312105D02*
X399095Y304500D01*
X388305Y304500D01*
X380700Y312105D01*
X380700Y322895D01*
X388305Y330500D01*
X399095Y330500D01*
X406700Y322895D01*
X406700Y312105D01*
G37*
G36*
X406700Y286705D02*
X399095Y279100D01*
X388305Y279100D01*
X380700Y286705D01*
X380700Y297495D01*
X388305Y305100D01*
X399095Y305100D01*
X406700Y297495D01*
X406700Y286705D01*
G37*
X336550Y831850D02*
G54D14*
D03*
X565150Y831850D02*
G54D14*
D03*
X565150Y603250D02*
G54D14*
D03*
X336550Y603250D02*
G54D14*
D03*
X292100Y749300D02*
G54D12*
D03*
X292100Y698500D02*
G54D12*
D03*
G54D16*
X298450Y450850D02*
X273050Y450850D01*
X292100Y749300D02*
G54D14*
D03*
X450850Y558800D02*
G54D14*
D03*
X450850Y533400D02*
G54D14*
D03*
X450850Y508000D02*
G54D14*
D03*
X450850Y482600D02*
G54D14*
D03*
X450850Y457200D02*
G54D14*
D03*
X450850Y431800D02*
G54D14*
D03*
X450850Y406400D02*
G54D14*
D03*
G54D16*
X450850Y558800D02*
X452599Y558800D01*
X478532Y532867D01*
G36*
X321550Y816450D02*
X351550Y816450D01*
X351550Y796450D01*
X321550Y796450D01*
X321550Y816450D01*
G37*
G36*
X321550Y791050D02*
X351550Y791050D01*
X351550Y771050D01*
X321550Y771050D01*
X321550Y791050D01*
G37*
G36*
X321550Y765650D02*
X351550Y765650D01*
X351550Y745650D01*
X321550Y745650D01*
X321550Y765650D01*
G37*
G36*
X321550Y740250D02*
X351550Y740250D01*
X351550Y720250D01*
X321550Y720250D01*
X321550Y740250D01*
G37*
G36*
X321550Y714850D02*
X351550Y714850D01*
X351550Y694850D01*
X321550Y694850D01*
X321550Y714850D01*
G37*
G36*
X321550Y689450D02*
X351550Y689450D01*
X351550Y669450D01*
X321550Y669450D01*
X321550Y689450D01*
G37*
G36*
X321550Y664050D02*
X351550Y664050D01*
X351550Y644050D01*
X321550Y644050D01*
X321550Y664050D01*
G37*
G36*
X321550Y638650D02*
X351550Y638650D01*
X351550Y618650D01*
X321550Y618650D01*
X321550Y638650D01*
G37*
G36*
X550150Y816450D02*
X580150Y816450D01*
X580150Y796450D01*
X550150Y796450D01*
X550150Y816450D01*
G37*
G36*
X550150Y791050D02*
X580150Y791050D01*
X580150Y771050D01*
X550150Y771050D01*
X550150Y791050D01*
G37*
G36*
X550150Y765650D02*
X580150Y765650D01*
X580150Y745650D01*
X550150Y745650D01*
X550150Y765650D01*
G37*
G36*
X550150Y740250D02*
X580150Y740250D01*
X580150Y720250D01*
X550150Y720250D01*
X550150Y740250D01*
G37*
G36*
X550150Y714850D02*
X580150Y714850D01*
X580150Y694850D01*
X550150Y694850D01*
X550150Y714850D01*
G37*
G36*
X550150Y689450D02*
X580150Y689450D01*
X580150Y669450D01*
X550150Y669450D01*
X550150Y689450D01*
G37*
G36*
X550150Y664050D02*
X580150Y664050D01*
X580150Y644050D01*
X550150Y644050D01*
X550150Y664050D01*
G37*
G36*
X550150Y638650D02*
X580150Y638650D01*
X580150Y618650D01*
X550150Y618650D01*
X550150Y638650D01*
G37*
G36*
X351950Y618250D02*
X371950Y618250D01*
X371950Y588250D01*
X351950Y588250D01*
X351950Y618250D01*
G37*
G36*
X377350Y618250D02*
X397350Y618250D01*
X397350Y588250D01*
X377350Y588250D01*
X377350Y618250D01*
G37*
G36*
X402750Y618250D02*
X422750Y618250D01*
X422750Y588250D01*
X402750Y588250D01*
X402750Y618250D01*
G37*
G36*
X428150Y618250D02*
X448150Y618250D01*
X448150Y588250D01*
X428150Y588250D01*
X428150Y618250D01*
G37*
G36*
X453550Y618250D02*
X473550Y618250D01*
X473550Y588250D01*
X453550Y588250D01*
X453550Y618250D01*
G37*
G36*
X478950Y618250D02*
X498950Y618250D01*
X498950Y588250D01*
X478950Y588250D01*
X478950Y618250D01*
G37*
G36*
X504350Y618250D02*
X524350Y618250D01*
X524350Y588250D01*
X504350Y588250D01*
X504350Y618250D01*
G37*
G36*
X529750Y618250D02*
X549750Y618250D01*
X549750Y588250D01*
X529750Y588250D01*
X529750Y618250D01*
G37*
G36*
X351950Y846850D02*
X371950Y846850D01*
X371950Y816850D01*
X351950Y816850D01*
X351950Y846850D01*
G37*
G36*
X377350Y846850D02*
X397350Y846850D01*
X397350Y816850D01*
X377350Y816850D01*
X377350Y846850D01*
G37*
G36*
X402750Y846850D02*
X422750Y846850D01*
X422750Y816850D01*
X402750Y816850D01*
X402750Y846850D01*
G37*
G36*
X428150Y846850D02*
X448150Y846850D01*
X448150Y816850D01*
X428150Y816850D01*
X428150Y846850D01*
G37*
G36*
X453550Y846850D02*
X473550Y846850D01*
X473550Y816850D01*
X453550Y816850D01*
X453550Y846850D01*
G37*
G36*
X478950Y846850D02*
X498950Y846850D01*
X498950Y816850D01*
X478950Y816850D01*
X478950Y846850D01*
G37*
G36*
X504350Y846850D02*
X524350Y846850D01*
X524350Y816850D01*
X504350Y816850D01*
X504350Y846850D01*
G37*
G36*
X529750Y846850D02*
X549750Y846850D01*
X549750Y816850D01*
X529750Y816850D01*
X529750Y846850D01*
G37*
X393700Y952500D02*
G54D14*
D03*
X393700Y368300D02*
G54D14*
D03*
G36*
X329535Y321640D02*
X359535Y321640D01*
X359535Y301640D01*
X329535Y301640D01*
X329535Y321640D01*
G37*
X393700Y222250D02*
G54D17*
D03*
G36*
X172325Y137000D02*
X202325Y137000D01*
X202325Y117000D01*
X172325Y117000D01*
X172325Y137000D01*
G37*
G54D16*
X254000Y385762D02*
X271462Y385762D01*
X273050Y387350D01*
X273050Y698500D01*
X235675Y698500D01*
G54D16*
X311150Y406400D02*
X273050Y406400D01*
X63500Y114300D02*
G54D15*
D03*
X247650Y244475D02*
G54D13*
D03*
X247650Y219075D02*
G54D13*
D03*
X247650Y244475D02*
G54D14*
D03*
G36*
X218000Y710000D02*
X244000Y710000D01*
X244000Y684000D01*
X218000Y684000D01*
X218000Y710000D01*
G37*
G54D16*
X292100Y698500D02*
X273050Y698500D01*
X565150Y558800D02*
G54D17*
D03*
X565150Y406400D02*
G54D17*
D03*
%LPD*%
G54D18*
G36*
X92578Y167485D02*
X92578Y180985D01*
X97912Y180985D01*
X97912Y167485D01*
X92578Y167485D01*
G37*
G36*
X95245Y170152D02*
X108745Y170152D01*
X108745Y164818D01*
X95245Y164818D01*
X95245Y170152D01*
G37*
G36*
X97912Y167485D02*
X97912Y153985D01*
X92578Y153985D01*
X92578Y167485D01*
X97912Y167485D01*
G37*
G36*
X95245Y164818D02*
X81745Y164818D01*
X81745Y170152D01*
X95245Y170152D01*
X95245Y164818D01*
G37*
G54D18*
G36*
X92578Y281785D02*
X92578Y295285D01*
X97912Y295285D01*
X97912Y281785D01*
X92578Y281785D01*
G37*
G36*
X95245Y284452D02*
X108745Y284452D01*
X108745Y279118D01*
X95245Y279118D01*
X95245Y284452D01*
G37*
G36*
X97912Y281785D02*
X97912Y268285D01*
X92578Y268285D01*
X92578Y281785D01*
X97912Y281785D01*
G37*
G36*
X95245Y279118D02*
X81745Y279118D01*
X81745Y284452D01*
X95245Y284452D01*
X95245Y279118D01*
G37*
G54D18*
G36*
X92578Y884240D02*
X92578Y897740D01*
X97912Y897740D01*
X97912Y884240D01*
X92578Y884240D01*
G37*
G36*
X95245Y886907D02*
X108745Y886907D01*
X108745Y881573D01*
X95245Y881573D01*
X95245Y886907D01*
G37*
G36*
X97912Y884240D02*
X97912Y870740D01*
X92578Y870740D01*
X92578Y884240D01*
X97912Y884240D01*
G37*
G36*
X95245Y881573D02*
X81745Y881573D01*
X81745Y886907D01*
X95245Y886907D01*
X95245Y881573D01*
G37*
G54D18*
G36*
X251333Y555630D02*
X251333Y577130D01*
X256667Y577130D01*
X256667Y555630D01*
X251333Y555630D01*
G37*
G36*
X256667Y555630D02*
X256667Y534130D01*
X251333Y534130D01*
X251333Y555630D01*
X256667Y555630D01*
G37*
G54D19*
G36*
X296783Y593725D02*
X296783Y609225D01*
X300117Y609225D01*
X300117Y593725D01*
X296783Y593725D01*
G37*
G36*
X298450Y595392D02*
X308950Y595392D01*
X308950Y592058D01*
X298450Y592058D01*
X298450Y595392D01*
G37*
G36*
X300117Y593725D02*
X300117Y578225D01*
X296783Y578225D01*
X296783Y593725D01*
X300117Y593725D01*
G37*
G36*
X298450Y592058D02*
X287950Y592058D01*
X287950Y595392D01*
X298450Y595392D01*
X298450Y592058D01*
G37*
G54D18*
G36*
X67183Y654050D02*
X67183Y667550D01*
X72517Y667550D01*
X72517Y654050D01*
X67183Y654050D01*
G37*
G36*
X69850Y656717D02*
X83350Y656717D01*
X83350Y651383D01*
X69850Y651383D01*
X69850Y656717D01*
G37*
G36*
X69850Y651383D02*
X56350Y651383D01*
X56350Y656717D01*
X69850Y656717D01*
X69850Y651383D01*
G37*
G54D18*
G36*
X69850Y577342D02*
X83350Y577342D01*
X83350Y572008D01*
X69850Y572008D01*
X69850Y577342D01*
G37*
G36*
X72517Y574675D02*
X72517Y561175D01*
X67183Y561175D01*
X67183Y574675D01*
X72517Y574675D01*
G37*
G36*
X69850Y572008D02*
X56350Y572008D01*
X56350Y577342D01*
X69850Y577342D01*
X69850Y572008D01*
G37*
G54D18*
G36*
X251333Y762000D02*
X251333Y775500D01*
X256667Y775500D01*
X256667Y762000D01*
X251333Y762000D01*
G37*
G36*
X254000Y764667D02*
X267500Y764667D01*
X267500Y759333D01*
X254000Y759333D01*
X254000Y764667D01*
G37*
G36*
X256667Y762000D02*
X256667Y748500D01*
X251333Y748500D01*
X251333Y762000D01*
X256667Y762000D01*
G37*
G36*
X254000Y759333D02*
X240500Y759333D01*
X240500Y764667D01*
X254000Y764667D01*
X254000Y759333D01*
G37*
G54D20*
G36*
X361950Y403067D02*
X346450Y403067D01*
X346450Y409733D01*
X361950Y409733D01*
X361950Y403067D01*
G37*
G36*
X358617Y406400D02*
X358617Y421900D01*
X365283Y421900D01*
X365283Y406400D01*
X358617Y406400D01*
G37*
G36*
X361950Y409733D02*
X377450Y409733D01*
X377450Y403067D01*
X361950Y403067D01*
X361950Y409733D01*
G37*
G36*
X365283Y406400D02*
X365283Y390900D01*
X358617Y390900D01*
X358617Y406400D01*
X365283Y406400D01*
G37*
G54D20*
G36*
X161762Y863600D02*
X161762Y879100D01*
X168428Y879100D01*
X168428Y863600D01*
X161762Y863600D01*
G37*
G36*
X165095Y866933D02*
X180595Y866933D01*
X180595Y860267D01*
X165095Y860267D01*
X165095Y866933D01*
G37*
G36*
X165095Y860267D02*
X149595Y860267D01*
X149595Y866933D01*
X165095Y866933D01*
X165095Y860267D01*
G37*
G54D20*
G36*
X260350Y797083D02*
X275850Y797083D01*
X275850Y790417D01*
X260350Y790417D01*
X260350Y797083D01*
G37*
G36*
X263683Y793750D02*
X263683Y778250D01*
X257017Y778250D01*
X257017Y793750D01*
X263683Y793750D01*
G37*
G36*
X260350Y790417D02*
X244850Y790417D01*
X244850Y797083D01*
X260350Y797083D01*
X260350Y790417D01*
G37*
G36*
X257017Y793750D02*
X257017Y809250D01*
X263683Y809250D01*
X263683Y793750D01*
X257017Y793750D01*
G37*
G54D20*
G36*
X320522Y450855D02*
X320522Y466355D01*
X327188Y466355D01*
X327188Y450855D01*
X320522Y450855D01*
G37*
G36*
X323855Y454188D02*
X339355Y454188D01*
X339355Y447522D01*
X323855Y447522D01*
X323855Y454188D01*
G37*
G36*
X327188Y450855D02*
X327188Y435355D01*
X320522Y435355D01*
X320522Y450855D01*
X327188Y450855D01*
G37*
G54D20*
G36*
X478532Y504134D02*
X463032Y504134D01*
X463032Y510800D01*
X478532Y510800D01*
X478532Y504134D01*
G37*
G36*
X478532Y510800D02*
X494032Y510800D01*
X494032Y504134D01*
X478532Y504134D01*
X478532Y510800D01*
G37*
G54D20*
G36*
X478532Y478734D02*
X463032Y478734D01*
X463032Y485400D01*
X478532Y485400D01*
X478532Y478734D01*
G37*
G36*
X478532Y485400D02*
X494032Y485400D01*
X494032Y478734D01*
X478532Y478734D01*
X478532Y485400D01*
G37*
G54D19*
G36*
X213271Y92389D02*
X213271Y81889D01*
X209938Y81889D01*
X209938Y92389D01*
X213271Y92389D01*
G37*
G36*
X211604Y90723D02*
X201104Y90723D01*
X201104Y94056D01*
X211604Y94056D01*
X211604Y90723D01*
G37*
G36*
X209938Y92389D02*
X209938Y102889D01*
X213271Y102889D01*
X213271Y92389D01*
X209938Y92389D01*
G37*
G36*
X211604Y94056D02*
X222104Y94056D01*
X222104Y90723D01*
X211604Y90723D01*
X211604Y94056D01*
G37*
G54D19*
G36*
X293498Y328809D02*
X282998Y328809D01*
X282998Y332143D01*
X293498Y332143D01*
X293498Y328809D01*
G37*
G36*
X291832Y330476D02*
X291832Y340976D01*
X295165Y340976D01*
X295165Y330476D01*
X291832Y330476D01*
G37*
G36*
X293498Y332143D02*
X303998Y332143D01*
X303998Y328809D01*
X293498Y328809D01*
X293498Y332143D01*
G37*
G54D20*
G36*
X333217Y831850D02*
X333217Y847350D01*
X339883Y847350D01*
X339883Y831850D01*
X333217Y831850D01*
G37*
G36*
X336550Y835183D02*
X352050Y835183D01*
X352050Y828517D01*
X336550Y828517D01*
X336550Y835183D01*
G37*
G36*
X339883Y831850D02*
X339883Y816350D01*
X333217Y816350D01*
X333217Y831850D01*
X339883Y831850D01*
G37*
G36*
X336550Y828517D02*
X321050Y828517D01*
X321050Y835183D01*
X336550Y835183D01*
X336550Y828517D01*
G37*
G54D20*
G36*
X561817Y831850D02*
X561817Y847350D01*
X568483Y847350D01*
X568483Y831850D01*
X561817Y831850D01*
G37*
G36*
X565150Y835183D02*
X580650Y835183D01*
X580650Y828517D01*
X565150Y828517D01*
X565150Y835183D01*
G37*
G36*
X568483Y831850D02*
X568483Y816350D01*
X561817Y816350D01*
X561817Y831850D01*
X568483Y831850D01*
G37*
G36*
X565150Y828517D02*
X549650Y828517D01*
X549650Y835183D01*
X565150Y835183D01*
X565150Y828517D01*
G37*
G54D20*
G36*
X561817Y603250D02*
X561817Y618750D01*
X568483Y618750D01*
X568483Y603250D01*
X561817Y603250D01*
G37*
G36*
X565150Y606583D02*
X580650Y606583D01*
X580650Y599917D01*
X565150Y599917D01*
X565150Y606583D01*
G37*
G36*
X568483Y603250D02*
X568483Y587750D01*
X561817Y587750D01*
X561817Y603250D01*
X568483Y603250D01*
G37*
G36*
X565150Y599917D02*
X549650Y599917D01*
X549650Y606583D01*
X565150Y606583D01*
X565150Y599917D01*
G37*
G54D20*
G36*
X333217Y603250D02*
X333217Y618750D01*
X339883Y618750D01*
X339883Y603250D01*
X333217Y603250D01*
G37*
G36*
X336550Y606583D02*
X352050Y606583D01*
X352050Y599917D01*
X336550Y599917D01*
X336550Y606583D01*
G37*
G36*
X339883Y603250D02*
X339883Y587750D01*
X333217Y587750D01*
X333217Y603250D01*
X339883Y603250D01*
G37*
G36*
X336550Y599917D02*
X321050Y599917D01*
X321050Y606583D01*
X336550Y606583D01*
X336550Y599917D01*
G37*
G54D20*
G36*
X288767Y749300D02*
X288767Y764800D01*
X295433Y764800D01*
X295433Y749300D01*
X288767Y749300D01*
G37*
G36*
X292100Y752633D02*
X307600Y752633D01*
X307600Y745967D01*
X292100Y745967D01*
X292100Y752633D01*
G37*
G36*
X295433Y749300D02*
X295433Y733800D01*
X288767Y733800D01*
X288767Y749300D01*
X295433Y749300D01*
G37*
G36*
X292100Y745967D02*
X276600Y745967D01*
X276600Y752633D01*
X292100Y752633D01*
X292100Y745967D01*
G37*
G54D20*
G36*
X390367Y952500D02*
X390367Y968000D01*
X397033Y968000D01*
X397033Y952500D01*
X390367Y952500D01*
G37*
G36*
X393700Y955833D02*
X409200Y955833D01*
X409200Y949167D01*
X393700Y949167D01*
X393700Y955833D01*
G37*
G36*
X393700Y949167D02*
X378200Y949167D01*
X378200Y955833D01*
X393700Y955833D01*
X393700Y949167D01*
G37*
G54D20*
G36*
X390367Y368300D02*
X390367Y383800D01*
X397033Y383800D01*
X397033Y368300D01*
X390367Y368300D01*
G37*
G36*
X393700Y371633D02*
X409200Y371633D01*
X409200Y364967D01*
X393700Y364967D01*
X393700Y371633D01*
G37*
G36*
X393700Y364967D02*
X378200Y364967D01*
X378200Y371633D01*
X393700Y371633D01*
X393700Y364967D01*
G37*
G54D19*
G36*
X342868Y311640D02*
X342868Y322140D01*
X346202Y322140D01*
X346202Y311640D01*
X342868Y311640D01*
G37*
G36*
X344535Y313307D02*
X360035Y313307D01*
X360035Y309973D01*
X344535Y309973D01*
X344535Y313307D01*
G37*
G36*
X346202Y311640D02*
X346202Y301140D01*
X342868Y301140D01*
X342868Y311640D01*
X346202Y311640D01*
G37*
G54D20*
G36*
X393700Y225583D02*
X409200Y225583D01*
X409200Y218917D01*
X393700Y218917D01*
X393700Y225583D01*
G37*
G36*
X397033Y222250D02*
X397033Y206750D01*
X390367Y206750D01*
X390367Y222250D01*
X397033Y222250D01*
G37*
G36*
X393700Y218917D02*
X378200Y218917D01*
X378200Y225583D01*
X393700Y225583D01*
X393700Y218917D01*
G37*
G54D19*
G36*
X185658Y127000D02*
X185658Y137500D01*
X188992Y137500D01*
X188992Y127000D01*
X185658Y127000D01*
G37*
G36*
X188992Y127000D02*
X188992Y116500D01*
X185658Y116500D01*
X185658Y127000D01*
X188992Y127000D01*
G37*
G36*
X187325Y125333D02*
X171825Y125333D01*
X171825Y128667D01*
X187325Y128667D01*
X187325Y125333D01*
G37*
G54D20*
G36*
X247650Y241142D02*
X232150Y241142D01*
X232150Y247808D01*
X247650Y247808D01*
X247650Y241142D01*
G37*
G36*
X244317Y244475D02*
X244317Y259975D01*
X250983Y259975D01*
X250983Y244475D01*
X244317Y244475D01*
G37*
G36*
X106300Y571625D02*
X122300Y571625D01*
X122300Y539625D01*
X106300Y539625D01*
X106300Y571625D01*
G37*
G36*
X126144Y571625D02*
X142144Y571625D01*
X142144Y539625D01*
X126144Y539625D01*
X126144Y571625D01*
G37*
G36*
X145988Y571625D02*
X161988Y571625D01*
X161988Y539625D01*
X145988Y539625D01*
X145988Y571625D01*
G37*
G36*
X165831Y571625D02*
X181831Y571625D01*
X181831Y539625D01*
X165831Y539625D01*
X165831Y571625D01*
G37*
G36*
X185675Y571625D02*
X201675Y571625D01*
X201675Y539625D01*
X185675Y539625D01*
X185675Y571625D01*
G37*
G36*
X206312Y571625D02*
X222312Y571625D01*
X222312Y539625D01*
X206312Y539625D01*
X206312Y571625D01*
G37*
G36*
X226156Y571625D02*
X242156Y571625D01*
X242156Y539625D01*
X226156Y539625D01*
X226156Y571625D01*
G37*
G36*
X246000Y571625D02*
X262000Y571625D01*
X262000Y539625D01*
X246000Y539625D01*
X246000Y571625D01*
G37*
G36*
X106300Y401762D02*
X122300Y401762D01*
X122300Y369762D01*
X106300Y369762D01*
X106300Y401762D01*
G37*
G36*
X126144Y401762D02*
X142144Y401762D01*
X142144Y369762D01*
X126144Y369762D01*
X126144Y401762D01*
G37*
G36*
X145988Y401762D02*
X161988Y401762D01*
X161988Y369762D01*
X145988Y369762D01*
X145988Y401762D01*
G37*
G36*
X165831Y401762D02*
X181831Y401762D01*
X181831Y369762D01*
X165831Y369762D01*
X165831Y401762D01*
G37*
G36*
X185675Y401762D02*
X201675Y401762D01*
X201675Y369762D01*
X185675Y369762D01*
X185675Y401762D01*
G37*
G36*
X206312Y401762D02*
X222312Y401762D01*
X222312Y369762D01*
X206312Y369762D01*
X206312Y401762D01*
G37*
G36*
X226156Y401762D02*
X242156Y401762D01*
X242156Y369762D01*
X226156Y369762D01*
X226156Y401762D01*
G37*
G36*
X246000Y401762D02*
X262000Y401762D01*
X262000Y369762D01*
X246000Y369762D01*
X246000Y401762D01*
G37*
G36*
X109475Y347725D02*
X125475Y347725D01*
X125475Y331725D01*
X109475Y331725D01*
X109475Y347725D01*
G37*
G36*
X109475Y272319D02*
X125475Y272319D01*
X125475Y256319D01*
X109475Y256319D01*
X109475Y272319D01*
G37*
X95250Y281781D02*
G54D21*
D03*
X95250Y322262D02*
G54D21*
D03*
G36*
X109475Y233425D02*
X125475Y233425D01*
X125475Y217425D01*
X109475Y217425D01*
X109475Y233425D01*
G37*
G36*
X109475Y158019D02*
X125475Y158019D01*
X125475Y142019D01*
X109475Y142019D01*
X109475Y158019D01*
G37*
X95250Y167481D02*
G54D21*
D03*
X95250Y207962D02*
G54D21*
D03*
G36*
X109475Y909700D02*
X125475Y909700D01*
X125475Y893700D01*
X109475Y893700D01*
X109475Y909700D01*
G37*
G36*
X109475Y834294D02*
X125475Y834294D01*
X125475Y818294D01*
X109475Y818294D01*
X109475Y834294D01*
G37*
X95250Y843756D02*
G54D21*
D03*
X95250Y884238D02*
G54D21*
D03*
X165100Y793750D02*
G54D22*
D03*
X165100Y768350D02*
G54D22*
D03*
X165100Y742950D02*
G54D22*
D03*
X165100Y717550D02*
G54D22*
D03*
X165100Y692150D02*
G54D22*
D03*
X95245Y167485D02*
G54D21*
D03*
X95245Y281785D02*
G54D21*
D03*
X95245Y884240D02*
G54D21*
D03*
X478532Y558267D02*
G54D23*
D03*
X478532Y532867D02*
G54D23*
D03*
X478532Y507467D02*
G54D23*
D03*
X478532Y482067D02*
G54D23*
D03*
X478532Y456667D02*
G54D23*
D03*
X478532Y431267D02*
G54D23*
D03*
X478532Y405867D02*
G54D23*
D03*
G36*
X401700Y949180D02*
X397020Y944500D01*
X390380Y944500D01*
X385700Y949180D01*
X385700Y955820D01*
X390380Y960500D01*
X397020Y960500D01*
X401700Y955820D01*
X401700Y949180D01*
G37*
G36*
X401700Y923780D02*
X397020Y919100D01*
X390380Y919100D01*
X385700Y923780D01*
X385700Y930420D01*
X390380Y935100D01*
X397020Y935100D01*
X401700Y930420D01*
X401700Y923780D01*
G37*
G36*
X401700Y898380D02*
X397020Y893700D01*
X390380Y893700D01*
X385700Y898380D01*
X385700Y905020D01*
X390380Y909700D01*
X397020Y909700D01*
X401700Y905020D01*
X401700Y898380D01*
G37*
G36*
X401700Y872980D02*
X397020Y868300D01*
X390380Y868300D01*
X385700Y872980D01*
X385700Y879620D01*
X390380Y884300D01*
X397020Y884300D01*
X401700Y879620D01*
X401700Y872980D01*
G37*
G36*
X401700Y174480D02*
X397020Y169800D01*
X390380Y169800D01*
X385700Y174480D01*
X385700Y181120D01*
X390380Y185800D01*
X397020Y185800D01*
X401700Y181120D01*
X401700Y174480D01*
G37*
G36*
X401700Y149080D02*
X397020Y144400D01*
X390380Y144400D01*
X385700Y149080D01*
X385700Y155720D01*
X390380Y160400D01*
X397020Y160400D01*
X401700Y155720D01*
X401700Y149080D01*
G37*
G36*
X401700Y123680D02*
X397020Y119000D01*
X390380Y119000D01*
X385700Y123680D01*
X385700Y130320D01*
X390380Y135000D01*
X397020Y135000D01*
X401700Y130320D01*
X401700Y123680D01*
G37*
G36*
X401700Y98280D02*
X397020Y93600D01*
X390380Y93600D01*
X385700Y98280D01*
X385700Y104920D01*
X390380Y109600D01*
X397020Y109600D01*
X401700Y104920D01*
X401700Y98280D01*
G37*
G36*
X401700Y244330D02*
X397020Y239650D01*
X390380Y239650D01*
X385700Y244330D01*
X385700Y250970D01*
X390380Y255650D01*
X397020Y255650D01*
X401700Y250970D01*
X401700Y244330D01*
G37*
G36*
X401700Y218930D02*
X397020Y214250D01*
X390380Y214250D01*
X385700Y218930D01*
X385700Y225570D01*
X390380Y230250D01*
X397020Y230250D01*
X401700Y225570D01*
X401700Y218930D01*
G37*
X165100Y863600D02*
G54D24*
D03*
X165100Y838200D02*
G54D24*
D03*
X260350Y793750D02*
G54D23*
D03*
X209550Y793750D02*
G54D23*
D03*
X323850Y450850D02*
G54D24*
D03*
X298450Y450850D02*
G54D24*
D03*
X361950Y406400D02*
G54D23*
D03*
X311150Y406400D02*
G54D23*
D03*
X298450Y101600D02*
G54D24*
D03*
X349250Y127000D02*
G54D24*
D03*
X349250Y177800D02*
G54D24*
D03*
X298450Y177800D02*
G54D24*
D03*
X69850Y628650D02*
G54D22*
D03*
X69850Y654050D02*
G54D22*
D03*
X69850Y600075D02*
G54D22*
D03*
X69850Y574675D02*
G54D22*
D03*
G36*
X246000Y571630D02*
X262000Y571630D01*
X262000Y539630D01*
X246000Y539630D01*
X246000Y571630D01*
G37*
G36*
X293450Y603725D02*
X303450Y603725D01*
X303450Y583725D01*
X293450Y583725D01*
X293450Y603725D01*
G37*
X69850Y654050D02*
G54D24*
D03*
X69850Y574675D02*
G54D22*
D03*
G36*
X246000Y770000D02*
X262000Y770000D01*
X262000Y754000D01*
X246000Y754000D01*
X246000Y770000D01*
G37*
X361950Y406400D02*
G54D25*
D03*
X165095Y863600D02*
G54D25*
D03*
X260350Y793750D02*
G54D25*
D03*
X323855Y450855D02*
G54D25*
D03*
X88900Y809625D02*
G54D25*
D03*
X88900Y676275D02*
G54D25*
D03*
X44425Y793750D02*
G54D25*
D03*
X44450Y692150D02*
G54D25*
D03*
X478532Y507467D02*
G54D25*
D03*
X478532Y482067D02*
G54D25*
D03*
G36*
X216604Y87389D02*
X206604Y87389D01*
X206604Y97389D01*
X216604Y97389D01*
X216604Y87389D01*
G37*
G36*
X288498Y325476D02*
X288498Y335476D01*
X298498Y335476D01*
X298498Y325476D01*
X288498Y325476D01*
G37*
X63500Y939800D02*
G54D26*
D03*
G36*
X401700Y364980D02*
X397020Y360300D01*
X390380Y360300D01*
X385700Y364980D01*
X385700Y371620D01*
X390380Y376300D01*
X397020Y376300D01*
X401700Y371620D01*
X401700Y364980D01*
G37*
G36*
X401700Y339580D02*
X397020Y334900D01*
X390380Y334900D01*
X385700Y339580D01*
X385700Y346220D01*
X390380Y350900D01*
X397020Y350900D01*
X401700Y346220D01*
X401700Y339580D01*
G37*
G36*
X401700Y314180D02*
X397020Y309500D01*
X390380Y309500D01*
X385700Y314180D01*
X385700Y320820D01*
X390380Y325500D01*
X397020Y325500D01*
X401700Y320820D01*
X401700Y314180D01*
G37*
G36*
X401700Y288780D02*
X397020Y284100D01*
X390380Y284100D01*
X385700Y288780D01*
X385700Y295420D01*
X390380Y300100D01*
X397020Y300100D01*
X401700Y295420D01*
X401700Y288780D01*
G37*
X336550Y831850D02*
G54D25*
D03*
X565150Y831850D02*
G54D25*
D03*
X565150Y603250D02*
G54D25*
D03*
X336550Y603250D02*
G54D25*
D03*
X292100Y749300D02*
G54D23*
D03*
X292100Y698500D02*
G54D23*
D03*
G54D27*
X298450Y450850D02*
X273050Y450850D01*
X292100Y749300D02*
G54D25*
D03*
X450850Y558800D02*
G54D25*
D03*
X450850Y533400D02*
G54D25*
D03*
X450850Y508000D02*
G54D25*
D03*
X450850Y482600D02*
G54D25*
D03*
X450850Y457200D02*
G54D25*
D03*
X450850Y431800D02*
G54D25*
D03*
X450850Y406400D02*
G54D25*
D03*
G54D27*
X450850Y558800D02*
X452599Y558800D01*
X478532Y532867D01*
G36*
X326550Y811450D02*
X346550Y811450D01*
X346550Y801450D01*
X326550Y801450D01*
X326550Y811450D01*
G37*
G36*
X326550Y786050D02*
X346550Y786050D01*
X346550Y776050D01*
X326550Y776050D01*
X326550Y786050D01*
G37*
G36*
X326550Y760650D02*
X346550Y760650D01*
X346550Y750650D01*
X326550Y750650D01*
X326550Y760650D01*
G37*
G36*
X326550Y735250D02*
X346550Y735250D01*
X346550Y725250D01*
X326550Y725250D01*
X326550Y735250D01*
G37*
G36*
X326550Y709850D02*
X346550Y709850D01*
X346550Y699850D01*
X326550Y699850D01*
X326550Y709850D01*
G37*
G36*
X326550Y684450D02*
X346550Y684450D01*
X346550Y674450D01*
X326550Y674450D01*
X326550Y684450D01*
G37*
G36*
X326550Y659050D02*
X346550Y659050D01*
X346550Y649050D01*
X326550Y649050D01*
X326550Y659050D01*
G37*
G36*
X326550Y633650D02*
X346550Y633650D01*
X346550Y623650D01*
X326550Y623650D01*
X326550Y633650D01*
G37*
G36*
X555150Y811450D02*
X575150Y811450D01*
X575150Y801450D01*
X555150Y801450D01*
X555150Y811450D01*
G37*
G36*
X555150Y786050D02*
X575150Y786050D01*
X575150Y776050D01*
X555150Y776050D01*
X555150Y786050D01*
G37*
G36*
X555150Y760650D02*
X575150Y760650D01*
X575150Y750650D01*
X555150Y750650D01*
X555150Y760650D01*
G37*
G36*
X555150Y735250D02*
X575150Y735250D01*
X575150Y725250D01*
X555150Y725250D01*
X555150Y735250D01*
G37*
G36*
X555150Y709850D02*
X575150Y709850D01*
X575150Y699850D01*
X555150Y699850D01*
X555150Y709850D01*
G37*
G36*
X555150Y684450D02*
X575150Y684450D01*
X575150Y674450D01*
X555150Y674450D01*
X555150Y684450D01*
G37*
G36*
X555150Y659050D02*
X575150Y659050D01*
X575150Y649050D01*
X555150Y649050D01*
X555150Y659050D01*
G37*
G36*
X555150Y633650D02*
X575150Y633650D01*
X575150Y623650D01*
X555150Y623650D01*
X555150Y633650D01*
G37*
G36*
X356950Y613250D02*
X366950Y613250D01*
X366950Y593250D01*
X356950Y593250D01*
X356950Y613250D01*
G37*
G36*
X382350Y613250D02*
X392350Y613250D01*
X392350Y593250D01*
X382350Y593250D01*
X382350Y613250D01*
G37*
G36*
X407750Y613250D02*
X417750Y613250D01*
X417750Y593250D01*
X407750Y593250D01*
X407750Y613250D01*
G37*
G36*
X433150Y613250D02*
X443150Y613250D01*
X443150Y593250D01*
X433150Y593250D01*
X433150Y613250D01*
G37*
G36*
X458550Y613250D02*
X468550Y613250D01*
X468550Y593250D01*
X458550Y593250D01*
X458550Y613250D01*
G37*
G36*
X483950Y613250D02*
X493950Y613250D01*
X493950Y593250D01*
X483950Y593250D01*
X483950Y613250D01*
G37*
G36*
X509350Y613250D02*
X519350Y613250D01*
X519350Y593250D01*
X509350Y593250D01*
X509350Y613250D01*
G37*
G36*
X534750Y613250D02*
X544750Y613250D01*
X544750Y593250D01*
X534750Y593250D01*
X534750Y613250D01*
G37*
G36*
X356950Y841850D02*
X366950Y841850D01*
X366950Y821850D01*
X356950Y821850D01*
X356950Y841850D01*
G37*
G36*
X382350Y841850D02*
X392350Y841850D01*
X392350Y821850D01*
X382350Y821850D01*
X382350Y841850D01*
G37*
G36*
X407750Y841850D02*
X417750Y841850D01*
X417750Y821850D01*
X407750Y821850D01*
X407750Y841850D01*
G37*
G36*
X433150Y841850D02*
X443150Y841850D01*
X443150Y821850D01*
X433150Y821850D01*
X433150Y841850D01*
G37*
G36*
X458550Y841850D02*
X468550Y841850D01*
X468550Y821850D01*
X458550Y821850D01*
X458550Y841850D01*
G37*
G36*
X483950Y841850D02*
X493950Y841850D01*
X493950Y821850D01*
X483950Y821850D01*
X483950Y841850D01*
G37*
G36*
X509350Y841850D02*
X519350Y841850D01*
X519350Y821850D01*
X509350Y821850D01*
X509350Y841850D01*
G37*
G36*
X534750Y841850D02*
X544750Y841850D01*
X544750Y821850D01*
X534750Y821850D01*
X534750Y841850D01*
G37*
X393700Y952500D02*
G54D25*
D03*
X393700Y368300D02*
G54D25*
D03*
G36*
X334535Y316640D02*
X354535Y316640D01*
X354535Y306640D01*
X334535Y306640D01*
X334535Y316640D01*
G37*
X393700Y222250D02*
G54D28*
D03*
G36*
X177325Y132000D02*
X197325Y132000D01*
X197325Y122000D01*
X177325Y122000D01*
X177325Y132000D01*
G37*
G54D27*
X254000Y385762D02*
X271462Y385762D01*
X273050Y387350D01*
X273050Y698500D01*
X235675Y698500D01*
G54D27*
X311150Y406400D02*
X273050Y406400D01*
X63500Y114300D02*
G54D26*
D03*
X247650Y244475D02*
G54D24*
D03*
X247650Y219075D02*
G54D24*
D03*
X247650Y244475D02*
G54D25*
D03*
G36*
X223000Y705000D02*
X239000Y705000D01*
X239000Y689000D01*
X223000Y689000D01*
X223000Y705000D01*
G37*
G54D27*
X292100Y698500D02*
X273050Y698500D01*
X565150Y558800D02*
G54D28*
D03*
X565150Y406400D02*
G54D28*
D03*
M02*
