%FSLAX34Y34*%
%MOMM*%
%LNCOPPER_BOTTOM*%
G71*
G01*
%ADD10C, 0.10*%
%ADD11C, 0.11*%
%ADD12C, 0.21*%
%ADD13C, 0.09*%
%ADD14C, 0.15*%
%ADD15C, 0.20*%
%ADD16C, 0.06*%
%ADD17C, 0.22*%
%LPD*%
G54D10*
X270237Y390020D02*
X35287Y390020D01*
X35287Y551944D01*
X270237Y551944D01*
X270237Y390020D01*
G54D11*
X119425Y519686D02*
X110536Y519686D01*
G54D11*
X110536Y517019D02*
X110536Y522353D01*
G54D11*
X110536Y524796D02*
X119425Y531463D01*
G54D11*
X119425Y524796D02*
X110536Y531463D01*
G54D11*
X119425Y533907D02*
X110536Y533907D01*
X110536Y537241D01*
X111091Y538574D01*
X112202Y539241D01*
X117758Y539241D01*
X118869Y538574D01*
X119425Y537241D01*
X119425Y533907D01*
G54D11*
X134030Y519686D02*
X135141Y521686D01*
X136252Y522353D01*
X138475Y522353D01*
G54D11*
X138475Y517019D02*
X129586Y517019D01*
X129586Y520353D01*
X130141Y521686D01*
X131252Y522353D01*
X132364Y522353D01*
X133475Y521686D01*
X134030Y520353D01*
X134030Y517019D01*
G54D11*
X129586Y524796D02*
X138475Y531463D01*
G54D11*
X138475Y524796D02*
X129586Y531463D01*
G54D11*
X138475Y533907D02*
X129586Y533907D01*
X129586Y537241D01*
X130141Y538574D01*
X131252Y539241D01*
X136808Y539241D01*
X137919Y538574D01*
X138475Y537241D01*
X138475Y533907D01*
G54D11*
X198800Y526544D02*
X189911Y526544D01*
X189911Y529878D01*
X190466Y531211D01*
X191577Y531878D01*
X197133Y531878D01*
X198244Y531211D01*
X198800Y529878D01*
X198800Y526544D01*
G54D11*
X191577Y539655D02*
X197133Y539655D01*
X198244Y538988D01*
X198800Y537655D01*
X198800Y536321D01*
X198244Y534988D01*
X197133Y534321D01*
X191577Y534321D01*
X190466Y534988D01*
X189911Y536321D01*
X189911Y537655D01*
X190466Y538988D01*
X191577Y539655D01*
G54D11*
X219437Y526544D02*
X210548Y526544D01*
X210548Y529878D01*
X211104Y531211D01*
X212215Y531878D01*
X217770Y531878D01*
X218882Y531211D01*
X219437Y529878D01*
X219437Y526544D01*
G54D11*
X219437Y539655D02*
X219437Y534321D01*
X218882Y534321D01*
X217770Y534988D01*
X214437Y538988D01*
X213326Y539655D01*
X212215Y539655D01*
X211104Y538988D01*
X210548Y537655D01*
X210548Y536321D01*
X211104Y534988D01*
X212215Y534321D01*
G54D11*
X238487Y520194D02*
X229598Y520194D01*
X229598Y523528D01*
X230154Y524861D01*
X231265Y525528D01*
X236820Y525528D01*
X237932Y524861D01*
X238487Y523528D01*
X238487Y520194D01*
G54D11*
X232932Y527971D02*
X229598Y531305D01*
X238487Y531305D01*
G54D11*
X229598Y539082D02*
X229598Y533748D01*
X233487Y533748D01*
X233487Y534415D01*
X232932Y535748D01*
X232932Y537082D01*
X233487Y538415D01*
X234598Y539082D01*
X236820Y539082D01*
X237932Y538415D01*
X238487Y537082D01*
X238487Y535748D01*
X237932Y534415D01*
X236820Y533748D01*
G54D11*
X254680Y521274D02*
X254680Y523940D01*
X257458Y523940D01*
X258569Y523274D01*
X259125Y521940D01*
X259125Y520607D01*
X258569Y519274D01*
X257458Y518607D01*
X251902Y518607D01*
X250791Y519274D01*
X250236Y520607D01*
X250236Y521940D01*
X250791Y523274D01*
X251902Y523940D01*
G54D11*
X259125Y526384D02*
X250236Y526384D01*
X259125Y531717D01*
X250236Y531717D01*
G54D11*
X259125Y534161D02*
X250236Y534161D01*
X250236Y537494D01*
X250791Y538828D01*
X251902Y539494D01*
X257458Y539494D01*
X258569Y538828D01*
X259125Y537494D01*
X259125Y534161D01*
G54D11*
X114980Y405386D02*
X116091Y407386D01*
X117202Y408053D01*
X119425Y408053D01*
G54D11*
X119425Y402720D02*
X110536Y402720D01*
X110536Y406053D01*
X111091Y407386D01*
X112202Y408053D01*
X113314Y408053D01*
X114425Y407386D01*
X114980Y406053D01*
X114980Y402720D01*
G54D11*
X117758Y410496D02*
X118869Y411163D01*
X119425Y412496D01*
X119425Y413830D01*
X118869Y415163D01*
X117758Y415830D01*
X116647Y415830D01*
X115536Y415163D01*
X114980Y413830D01*
X114980Y412496D01*
X114425Y411163D01*
X113314Y410496D01*
X112202Y410496D01*
X111091Y411163D01*
X110536Y412496D01*
X110536Y413830D01*
X111091Y415163D01*
X112202Y415830D01*
G54D11*
X119425Y420940D02*
X110536Y420940D01*
G54D11*
X110536Y418274D02*
X110536Y423607D01*
G54D11*
X138475Y402720D02*
X129586Y406053D01*
X138475Y409386D01*
G54D11*
X135141Y404053D02*
X135141Y408053D01*
G54D11*
X138475Y411830D02*
X129586Y411830D01*
X129586Y415164D01*
X130141Y416497D01*
X131252Y417164D01*
X136808Y417164D01*
X137919Y416497D01*
X138475Y415164D01*
X138475Y411830D01*
G54D11*
X136808Y424941D02*
X137919Y424274D01*
X138475Y422941D01*
X138475Y421608D01*
X137919Y420274D01*
X136808Y419608D01*
X131252Y419608D01*
X130141Y420274D01*
X129586Y421608D01*
X129586Y422941D01*
X130141Y424274D01*
X131252Y424941D01*
G54D11*
X155937Y407386D02*
X155937Y402720D01*
X147048Y402720D01*
X147048Y407386D01*
G54D11*
X151493Y402720D02*
X151493Y407386D01*
G54D11*
X155937Y409830D02*
X147048Y409830D01*
X155937Y415164D01*
X147048Y415164D01*
G54D11*
X178162Y402720D02*
X169273Y402720D01*
X169273Y406053D01*
X169829Y407386D01*
X170940Y408053D01*
X176496Y408053D01*
X177606Y407386D01*
X178162Y406053D01*
X178162Y402720D01*
G54D11*
X172606Y410496D02*
X169273Y413830D01*
X178162Y413830D01*
G54D11*
X170940Y421607D02*
X169829Y420940D01*
X169273Y419607D01*
X169273Y418274D01*
X169829Y416940D01*
X170940Y416274D01*
X173718Y416274D01*
X174273Y416274D01*
X173162Y418274D01*
X173162Y419607D01*
X173718Y420940D01*
X174829Y421607D01*
X176496Y421607D01*
X177606Y420940D01*
X178162Y419607D01*
X178162Y418274D01*
X177606Y416940D01*
X176496Y416274D01*
X173718Y416274D01*
G54D11*
X174273Y424050D02*
X174273Y429384D01*
G54D11*
X169273Y431828D02*
X178162Y431828D01*
X172606Y435161D01*
X178162Y438494D01*
X169273Y438494D01*
G54D11*
X178162Y440938D02*
X169273Y444272D01*
X178162Y447605D01*
G54D11*
X174829Y442272D02*
X174829Y446272D01*
G54D11*
X178162Y450050D02*
X169273Y450050D01*
G54D11*
X175384Y450050D02*
X169273Y455383D01*
G54D11*
X173718Y452050D02*
X178162Y455383D01*
G54D11*
X178162Y462493D02*
X178162Y457826D01*
X169273Y457826D01*
X169273Y462493D01*
G54D11*
X173718Y457826D02*
X173718Y462493D01*
G54D11*
X197212Y402720D02*
X188323Y402720D01*
X188323Y406053D01*
X188879Y407386D01*
X189990Y408053D01*
X195546Y408053D01*
X196656Y407386D01*
X197212Y406053D01*
X197212Y402720D01*
G54D11*
X191656Y410496D02*
X188323Y413830D01*
X197212Y413830D01*
G54D11*
X197212Y420274D02*
X188323Y420274D01*
X193879Y416274D01*
X194990Y416274D01*
X194990Y421607D01*
G54D11*
X217850Y402720D02*
X208961Y402720D01*
X208961Y406053D01*
X209516Y407386D01*
X210627Y408053D01*
X216183Y408053D01*
X217294Y407386D01*
X217850Y406053D01*
X217850Y402720D01*
G54D11*
X212294Y410496D02*
X208961Y413830D01*
X217850Y413830D01*
G54D11*
X217850Y421607D02*
X217850Y416274D01*
X217294Y416274D01*
X216183Y416940D01*
X212850Y420940D01*
X211738Y421607D01*
X210627Y421607D01*
X209516Y420940D01*
X208961Y419607D01*
X208961Y418274D01*
X209516Y416940D01*
X210627Y416274D01*
G54D11*
X236900Y402720D02*
X228011Y402720D01*
X228011Y406053D01*
X228566Y407386D01*
X229677Y408053D01*
X235233Y408053D01*
X236344Y407386D01*
X236900Y406053D01*
X236900Y402720D01*
G54D11*
X231344Y410496D02*
X228011Y413830D01*
X236900Y413830D01*
G54D11*
X229677Y416274D02*
X228566Y416940D01*
X228011Y418274D01*
X228011Y419607D01*
X228566Y420940D01*
X229677Y421607D01*
X230788Y421607D01*
X231900Y420940D01*
X232455Y419607D01*
X233011Y420940D01*
X234122Y421607D01*
X235233Y421607D01*
X236344Y420940D01*
X236900Y419607D01*
X236900Y418274D01*
X236344Y416940D01*
X235233Y416274D01*
G54D11*
X250236Y402720D02*
X259125Y406053D01*
X250236Y409386D01*
G54D11*
X257458Y417164D02*
X258569Y416497D01*
X259125Y415164D01*
X259125Y413830D01*
X258569Y412497D01*
X257458Y411830D01*
X251902Y411830D01*
X250791Y412497D01*
X250236Y413830D01*
X250236Y415164D01*
X250791Y416497D01*
X251902Y417164D01*
G54D11*
X257458Y424941D02*
X258569Y424274D01*
X259125Y422941D01*
X259125Y421608D01*
X258569Y420274D01*
X257458Y419608D01*
X251902Y419608D01*
X250791Y420274D01*
X250236Y421608D01*
X250236Y422941D01*
X250791Y424274D01*
X251902Y424941D01*
G54D11*
X159112Y494794D02*
X150223Y494794D01*
X150223Y498128D01*
X150779Y499461D01*
X151890Y500128D01*
X157446Y500128D01*
X158556Y499461D01*
X159112Y498128D01*
X159112Y494794D01*
G54D11*
X150223Y507905D02*
X150223Y502572D01*
X154112Y502572D01*
X154112Y503238D01*
X153556Y504572D01*
X153556Y505905D01*
X154112Y507238D01*
X155223Y507905D01*
X157446Y507905D01*
X158556Y507238D01*
X159112Y505905D01*
X159112Y504572D01*
X158556Y503238D01*
X157446Y502572D01*
G54D11*
X155223Y510348D02*
X155223Y515682D01*
G54D11*
X157446Y518125D02*
X158556Y518792D01*
X159112Y520125D01*
X159112Y521459D01*
X158556Y522792D01*
X157446Y523459D01*
X156334Y523459D01*
X155223Y522792D01*
X154668Y521459D01*
X154668Y520125D01*
X154112Y518792D01*
X153001Y518125D01*
X151890Y518125D01*
X150779Y518792D01*
X150223Y520125D01*
X150223Y521459D01*
X150779Y522792D01*
X151890Y523459D01*
G54D11*
X157446Y531236D02*
X158556Y530569D01*
X159112Y529236D01*
X159112Y527902D01*
X158556Y526569D01*
X157446Y525902D01*
X151890Y525902D01*
X150779Y526569D01*
X150223Y527902D01*
X150223Y529236D01*
X150779Y530569D01*
X151890Y531236D01*
G54D11*
X150223Y533679D02*
X159112Y533679D01*
X159112Y538346D01*
G54D11*
X178162Y493207D02*
X169273Y493207D01*
X169273Y496540D01*
X169829Y497874D01*
X170940Y498540D01*
X176496Y498540D01*
X177606Y497874D01*
X178162Y496540D01*
X178162Y493207D01*
G54D11*
X178162Y504984D02*
X169273Y504984D01*
X174829Y500984D01*
X175940Y500984D01*
X175940Y506317D01*
G54D11*
X174273Y508761D02*
X174273Y514094D01*
G54D11*
X176496Y516538D02*
X177606Y517205D01*
X178162Y518538D01*
X178162Y519871D01*
X177606Y521205D01*
X176496Y521871D01*
X175384Y521871D01*
X174273Y521205D01*
X173718Y519871D01*
X173718Y518538D01*
X173162Y517205D01*
X172051Y516538D01*
X170940Y516538D01*
X169829Y517205D01*
X169273Y518538D01*
X169273Y519871D01*
X169829Y521205D01*
X170940Y521871D01*
G54D11*
X178162Y524315D02*
X169273Y524315D01*
X169273Y527648D01*
X169829Y528982D01*
X170940Y529648D01*
X176496Y529648D01*
X177606Y528982D01*
X178162Y527648D01*
X178162Y524315D01*
G54D11*
X178162Y532092D02*
X169273Y535425D01*
X178162Y538759D01*
G54D11*
X174829Y533425D02*
X174829Y537425D01*
G54D11*
X49575Y456599D02*
X49575Y451932D01*
X40686Y451932D01*
X40686Y456599D01*
G54D11*
X45130Y451932D02*
X45130Y456599D01*
G54D11*
X47908Y459043D02*
X49019Y459710D01*
X49575Y461043D01*
X49575Y462376D01*
X49019Y463710D01*
X47908Y464376D01*
X46797Y464376D01*
X45686Y463710D01*
X45130Y462376D01*
X45130Y461043D01*
X44575Y459710D01*
X43464Y459043D01*
X42352Y459043D01*
X41241Y459710D01*
X40686Y461043D01*
X40686Y462376D01*
X41241Y463710D01*
X42352Y464376D01*
G54D11*
X49575Y466820D02*
X40686Y466820D01*
X40686Y470153D01*
X41241Y471487D01*
X42352Y472153D01*
X43464Y472153D01*
X44575Y471487D01*
X45130Y470153D01*
X45130Y466820D01*
G54D11*
X45130Y477930D02*
X45130Y476597D01*
X44575Y475264D01*
X43464Y474597D01*
X42352Y474597D01*
X41241Y475264D01*
X40686Y476597D01*
X40686Y477930D01*
X41241Y479264D01*
X42352Y479930D01*
X43464Y479930D01*
X44575Y479264D01*
X45130Y477930D01*
X45686Y479264D01*
X46797Y479930D01*
X47908Y479930D01*
X49019Y479264D01*
X49575Y477930D01*
X49575Y476597D01*
X49019Y475264D01*
X47908Y474597D01*
X46797Y474597D01*
X45686Y475264D01*
X45130Y476597D01*
G54D11*
X49575Y487707D02*
X49575Y482374D01*
X49019Y482374D01*
X47908Y483041D01*
X44575Y487041D01*
X43464Y487707D01*
X42352Y487707D01*
X41241Y487041D01*
X40686Y485707D01*
X40686Y484374D01*
X41241Y483041D01*
X42352Y482374D01*
G54D11*
X42352Y495484D02*
X41241Y494818D01*
X40686Y493484D01*
X40686Y492151D01*
X41241Y490818D01*
X42352Y490151D01*
X45130Y490151D01*
X45686Y490151D01*
X44575Y492151D01*
X44575Y493484D01*
X45130Y494818D01*
X46241Y495484D01*
X47908Y495484D01*
X49019Y494818D01*
X49575Y493484D01*
X49575Y492151D01*
X49019Y490818D01*
X47908Y490151D01*
X45130Y490151D01*
G54D11*
X42352Y503261D02*
X41241Y502595D01*
X40686Y501261D01*
X40686Y499928D01*
X41241Y498595D01*
X42352Y497928D01*
X45130Y497928D01*
X45686Y497928D01*
X44575Y499928D01*
X44575Y501261D01*
X45130Y502595D01*
X46241Y503261D01*
X47908Y503261D01*
X49019Y502595D01*
X49575Y501261D01*
X49575Y499928D01*
X49019Y498595D01*
X47908Y497928D01*
X45130Y497928D01*
G54D11*
X63862Y432786D02*
X63862Y428120D01*
X54973Y428120D01*
X54973Y432786D01*
G54D11*
X59418Y428120D02*
X59418Y432786D01*
G54D11*
X62196Y435230D02*
X63306Y435897D01*
X63862Y437230D01*
X63862Y438564D01*
X63306Y439897D01*
X62196Y440564D01*
X61084Y440564D01*
X59973Y439897D01*
X59418Y438564D01*
X59418Y437230D01*
X58862Y435897D01*
X57751Y435230D01*
X56640Y435230D01*
X55529Y435897D01*
X54973Y437230D01*
X54973Y438564D01*
X55529Y439897D01*
X56640Y440564D01*
G54D11*
X63862Y443008D02*
X54973Y443008D01*
X54973Y446341D01*
X55529Y447674D01*
X56640Y448341D01*
X57751Y448341D01*
X58862Y447674D01*
X59418Y446341D01*
X59418Y443008D01*
G54D11*
X59973Y450784D02*
X59973Y456118D01*
G54D11*
X56640Y463895D02*
X62196Y463895D01*
X63306Y463228D01*
X63862Y461895D01*
X63862Y460562D01*
X63306Y459228D01*
X62196Y458562D01*
X56640Y458562D01*
X55529Y459228D01*
X54973Y460562D01*
X54973Y461895D01*
X55529Y463228D01*
X56640Y463895D01*
G54D11*
X54973Y466338D02*
X54973Y471672D01*
X56084Y471005D01*
X57751Y469672D01*
X59973Y468338D01*
X61640Y467672D01*
X63862Y467672D01*
G54D11*
X63862Y474116D02*
X54973Y479449D01*
G54D11*
X63862Y486559D02*
X63862Y481892D01*
X54973Y481892D01*
X54973Y486559D01*
G54D11*
X59418Y481892D02*
X59418Y486559D01*
G54D11*
X62196Y489004D02*
X63306Y489670D01*
X63862Y491004D01*
X63862Y492337D01*
X63306Y493670D01*
X62196Y494337D01*
X61084Y494337D01*
X59973Y493670D01*
X59418Y492337D01*
X59418Y491004D01*
X58862Y489670D01*
X57751Y489004D01*
X56640Y489004D01*
X55529Y489670D01*
X54973Y491004D01*
X54973Y492337D01*
X55529Y493670D01*
X56640Y494337D01*
G54D11*
X63862Y496780D02*
X54973Y496780D01*
X54973Y500114D01*
X55529Y501447D01*
X56640Y502114D01*
X57751Y502114D01*
X58862Y501447D01*
X59418Y500114D01*
X59418Y496780D01*
G54D11*
X56640Y509891D02*
X62196Y509891D01*
X63306Y509224D01*
X63862Y507891D01*
X63862Y506558D01*
X63306Y505224D01*
X62196Y504558D01*
X56640Y504558D01*
X55529Y505224D01*
X54973Y506558D01*
X54973Y507891D01*
X55529Y509224D01*
X56640Y509891D01*
G54D11*
X54973Y512334D02*
X54973Y517668D01*
X56084Y517001D01*
X57751Y515668D01*
X59973Y514334D01*
X61640Y513668D01*
X63862Y513668D01*
G54D11*
X62196Y520111D02*
X63306Y520778D01*
X63862Y522111D01*
X63862Y523445D01*
X63306Y524778D01*
X62196Y525445D01*
X61084Y525445D01*
X59973Y524778D01*
X59418Y523445D01*
X59418Y522111D01*
X58862Y520778D01*
X57751Y520111D01*
X56640Y520111D01*
X55529Y520778D01*
X54973Y522111D01*
X54973Y523445D01*
X55529Y524778D01*
X56640Y525445D01*
G54D12*
X34787Y591625D02*
X34787Y591625D01*
G54D12*
X34787Y572125D02*
X34787Y572125D01*
G54D10*
X12700Y302022D02*
X47625Y302022D01*
G54D10*
X117475Y340122D02*
X66675Y340122D01*
G54D10*
X117475Y263922D02*
X66675Y263922D01*
X66675Y340122D01*
G54D10*
X117475Y340122D02*
X136525Y340122D01*
X136525Y263922D01*
X117475Y263922D01*
G54D10*
X69850Y302022D02*
X63500Y302022D01*
G54D10*
X15875Y317897D02*
X15875Y286147D01*
G54D10*
X15875Y317897D02*
X66675Y317897D01*
G54D10*
X15875Y286147D02*
X66675Y286147D01*
G54D12*
X12267Y375725D02*
X12267Y375725D01*
G54D12*
X12267Y356225D02*
X12267Y356225D01*
G54D10*
X12700Y187722D02*
X47625Y187722D01*
G54D10*
X117475Y225822D02*
X66675Y225822D01*
G54D10*
X117475Y149622D02*
X66675Y149622D01*
X66675Y225822D01*
G54D10*
X117475Y225822D02*
X136525Y225822D01*
X136525Y149622D01*
X117475Y149622D01*
G54D10*
X69850Y187722D02*
X63500Y187722D01*
G54D10*
X15875Y203597D02*
X15875Y171847D01*
G54D10*
X15875Y203597D02*
X66675Y203597D01*
G54D10*
X15875Y171847D02*
X66675Y171847D01*
G54D12*
X12267Y261425D02*
X12267Y261425D01*
G54D12*
X12267Y241925D02*
X12267Y241925D01*
G54D10*
X12700Y863997D02*
X47625Y863997D01*
G54D10*
X117475Y902097D02*
X66675Y902097D01*
G54D10*
X117475Y825897D02*
X66675Y825897D01*
X66675Y902097D01*
G54D10*
X117475Y902097D02*
X136525Y902097D01*
X136525Y825897D01*
X117475Y825897D01*
G54D10*
X69850Y863997D02*
X63500Y863997D01*
G54D10*
X15875Y879872D02*
X15875Y848122D01*
G54D10*
X15875Y879872D02*
X66675Y879872D01*
G54D10*
X15875Y848122D02*
X66675Y848122D01*
G54D12*
X12267Y937700D02*
X12267Y937700D01*
G54D12*
X12267Y918200D02*
X12267Y918200D01*
G54D10*
X177800Y806450D02*
X177800Y679450D01*
X25400Y679450D01*
X25400Y806450D01*
X177800Y806450D01*
G54D10*
X34925Y806450D02*
X34925Y679450D01*
G54D10*
X85725Y782638D02*
X85725Y703262D01*
G54D10*
X85725Y782638D02*
X25400Y782638D01*
G54D10*
X85725Y703262D02*
X25400Y703262D01*
G54D13*
X130175Y797686D02*
X132842Y790575D01*
X135508Y797686D01*
G54D13*
X141731Y791908D02*
X141197Y791020D01*
X140131Y790575D01*
X139064Y790575D01*
X137997Y791020D01*
X137464Y791908D01*
X137464Y796353D01*
X137997Y797242D01*
X139064Y797686D01*
X140131Y797686D01*
X141197Y797242D01*
X141731Y796353D01*
G54D13*
X147954Y791908D02*
X147420Y791020D01*
X146354Y790575D01*
X145287Y790575D01*
X144220Y791020D01*
X143687Y791908D01*
X143687Y796353D01*
X144220Y797242D01*
X145287Y797686D01*
X146354Y797686D01*
X147420Y797242D01*
X147954Y796353D01*
G54D13*
X136525Y765175D02*
X136525Y772286D01*
X139192Y772286D01*
X140258Y771842D01*
X140792Y770953D01*
X140792Y766508D01*
X140258Y765620D01*
X139192Y765175D01*
X136525Y765175D01*
G54D13*
X142748Y768286D02*
X147015Y768286D01*
G54D13*
X136525Y739775D02*
X136525Y746886D01*
X139192Y746886D01*
X140258Y746442D01*
X140792Y745553D01*
X140792Y741108D01*
X140258Y740219D01*
X139192Y739775D01*
X136525Y739775D01*
G54D13*
X142748Y742886D02*
X147015Y742886D01*
G54D13*
X144881Y744664D02*
X144881Y741108D01*
G54D13*
X139700Y714375D02*
X139700Y721486D01*
G54D13*
X141656Y714375D02*
X141656Y721486D01*
X144323Y721486D01*
X145389Y721042D01*
X145923Y720153D01*
X145923Y715708D01*
X145389Y714820D01*
X144323Y714375D01*
X141656Y714375D01*
G54D13*
X132308Y692530D02*
X134442Y692530D01*
X134442Y690308D01*
X133908Y689420D01*
X132842Y688975D01*
X131775Y688975D01*
X130708Y689420D01*
X130175Y690308D01*
X130175Y694753D01*
X130708Y695642D01*
X131775Y696086D01*
X132842Y696086D01*
X133908Y695642D01*
X134442Y694753D01*
G54D13*
X136398Y688975D02*
X136398Y696086D01*
X140665Y688975D01*
X140665Y696086D01*
G54D13*
X142621Y688975D02*
X142621Y696086D01*
X145288Y696086D01*
X146354Y695642D01*
X146888Y694753D01*
X146888Y690308D01*
X146354Y689420D01*
X145288Y688975D01*
X142621Y688975D01*
G54D11*
X50800Y717550D02*
X41911Y717550D01*
X47467Y720883D01*
X41911Y724217D01*
X50800Y724217D01*
G54D11*
X50800Y726661D02*
X45800Y726661D01*
G54D11*
X44133Y726661D02*
X44133Y726661D01*
G54D11*
X46133Y732438D02*
X45800Y731105D01*
X46133Y729772D01*
X47244Y729105D01*
X49467Y729105D01*
X50578Y729772D01*
X50800Y731105D01*
X50578Y732438D01*
G54D11*
X50800Y734882D02*
X45800Y734882D01*
G54D11*
X46911Y734882D02*
X45800Y736215D01*
X45800Y737549D01*
G54D11*
X49467Y743993D02*
X47244Y743993D01*
X46133Y743326D01*
X45800Y741993D01*
X46133Y740660D01*
X47244Y739993D01*
X49467Y739993D01*
X50578Y740660D01*
X50800Y741993D01*
X50578Y743326D01*
X49467Y743993D01*
G54D11*
X41911Y749014D02*
X49133Y749014D01*
X50244Y749681D01*
X50800Y751014D01*
X50800Y752347D01*
X50244Y753681D01*
X49133Y754347D01*
X41911Y754347D01*
G54D11*
X49133Y756791D02*
X50244Y757458D01*
X50800Y758791D01*
X50800Y760124D01*
X50244Y761458D01*
X49133Y762124D01*
X48022Y762124D01*
X46911Y761458D01*
X46356Y760124D01*
X46356Y758791D01*
X45800Y757458D01*
X44689Y756791D01*
X43578Y756791D01*
X42467Y757458D01*
X41911Y758791D01*
X41911Y760124D01*
X42467Y761458D01*
X43578Y762124D01*
G54D11*
X50800Y764568D02*
X41911Y764568D01*
X41911Y767901D01*
X42467Y769235D01*
X43578Y769901D01*
X44689Y769901D01*
X45800Y769235D01*
X46356Y767901D01*
X46911Y769235D01*
X48022Y769901D01*
X49133Y769901D01*
X50244Y769235D01*
X50800Y767901D01*
X50800Y764568D01*
G54D11*
X46356Y764568D02*
X46356Y767901D01*
G54D12*
X165300Y672450D02*
X165300Y672450D01*
G54D12*
X145800Y672450D02*
X145800Y672450D01*
G54D14*
X465832Y577317D02*
X465832Y386817D01*
G54D14*
X465832Y386817D02*
X580132Y386817D01*
G54D14*
X465832Y577317D02*
X580132Y577317D01*
X580132Y386817D01*
G54D11*
X500249Y556362D02*
X502249Y555250D01*
X502915Y554139D01*
X502915Y551917D01*
G54D11*
X497582Y551917D02*
X497582Y560806D01*
X500915Y560806D01*
X502249Y560250D01*
X502915Y559139D01*
X502915Y558028D01*
X502249Y556917D01*
X500915Y556362D01*
X497582Y556362D01*
G54D11*
X505359Y560806D02*
X512026Y551917D01*
G54D11*
X505359Y551917D02*
X512026Y560806D01*
G54D11*
X514470Y551917D02*
X514470Y560806D01*
X517803Y560806D01*
X519137Y560250D01*
X519803Y559139D01*
X519803Y553584D01*
X519137Y552473D01*
X517803Y551917D01*
X514470Y551917D01*
G54D11*
X500249Y526517D02*
X500249Y535406D01*
G54D11*
X497582Y535406D02*
X502915Y535406D01*
G54D11*
X505359Y535406D02*
X512026Y526517D01*
G54D11*
X505359Y526517D02*
X512026Y535406D01*
G54D11*
X514470Y526517D02*
X514470Y535406D01*
X517803Y535406D01*
X519137Y534850D01*
X519803Y533739D01*
X519803Y528184D01*
X519137Y527073D01*
X517803Y526517D01*
X514470Y526517D01*
G54D11*
X500249Y505562D02*
X502915Y505562D01*
X502915Y502784D01*
X502249Y501673D01*
X500916Y501117D01*
X499582Y501117D01*
X498249Y501673D01*
X497582Y502784D01*
X497582Y508339D01*
X498249Y509450D01*
X499582Y510006D01*
X500916Y510006D01*
X502249Y509450D01*
X502915Y508339D01*
G54D11*
X505359Y501117D02*
X505359Y510006D01*
X510692Y501117D01*
X510693Y510006D01*
G54D11*
X513136Y501117D02*
X513136Y510006D01*
X516470Y510006D01*
X517803Y509450D01*
X518470Y508339D01*
X518470Y502784D01*
X517803Y501673D01*
X516470Y501117D01*
X513136Y501117D01*
G54D11*
X500249Y480162D02*
X502915Y480162D01*
X502915Y477384D01*
X502249Y476273D01*
X500915Y475717D01*
X499582Y475717D01*
X498249Y476272D01*
X497582Y477384D01*
X497582Y482939D01*
X498249Y484050D01*
X499582Y484606D01*
X500915Y484606D01*
X502249Y484050D01*
X502915Y482939D01*
G54D11*
X505359Y475717D02*
X505359Y484606D01*
X510692Y475717D01*
X510692Y484606D01*
G54D11*
X513136Y475717D02*
X513136Y484606D01*
X516469Y484606D01*
X517803Y484050D01*
X518469Y482939D01*
X518469Y477384D01*
X517803Y476272D01*
X516469Y475717D01*
X513136Y475717D01*
G54D11*
X497582Y450317D02*
X497582Y459206D01*
X500915Y459206D01*
X502249Y458650D01*
X502915Y457539D01*
X502915Y451984D01*
X502249Y450873D01*
X500915Y450317D01*
X497582Y450317D01*
G54D11*
X505359Y454206D02*
X510692Y454206D01*
G54D11*
X508026Y456428D02*
X508026Y451984D01*
G54D11*
X497582Y424917D02*
X497582Y433806D01*
X500915Y433806D01*
X502249Y433250D01*
X502915Y432139D01*
X502915Y426584D01*
X502249Y425472D01*
X500915Y424917D01*
X497582Y424917D01*
G54D11*
X505359Y428806D02*
X510692Y428806D01*
G54D11*
X497582Y408406D02*
X500916Y399517D01*
X504249Y408406D01*
G54D11*
X506693Y399517D02*
X506693Y408406D01*
X510027Y408406D01*
X511360Y407850D01*
X512026Y406739D01*
X512026Y405628D01*
X511360Y404517D01*
X510026Y403962D01*
X511360Y403406D01*
X512026Y402295D01*
X512026Y401184D01*
X511360Y400072D01*
X510027Y399517D01*
X506693Y399517D01*
G54D11*
X506693Y403962D02*
X510026Y403962D01*
G54D11*
X514470Y408406D02*
X514470Y401184D01*
X515137Y400072D01*
X516470Y399517D01*
X517804Y399517D01*
X519137Y400072D01*
X519804Y401184D01*
X519804Y408406D01*
G54D11*
X522247Y401184D02*
X522914Y400072D01*
X524247Y399517D01*
X525580Y399517D01*
X526914Y400073D01*
X527580Y401184D01*
X527580Y402295D01*
X526914Y403406D01*
X525580Y403962D01*
X524247Y403962D01*
X522914Y404517D01*
X522247Y405628D01*
X522247Y406739D01*
X522914Y407850D01*
X524247Y408406D01*
X525580Y408406D01*
X526914Y407850D01*
X527580Y406739D01*
G54D12*
X606882Y578067D02*
X606882Y578067D01*
G54D12*
X587382Y578067D02*
X587382Y578067D01*
G54D14*
X263500Y711500D02*
X263500Y746500D01*
X198500Y746500D01*
X198500Y711500D01*
X263500Y711500D01*
G54D12*
X290250Y770500D02*
X290250Y770500D01*
G54D12*
X270750Y770500D02*
X270750Y770500D01*
G54D11*
X232647Y715392D02*
X227092Y715392D01*
X225980Y716058D01*
X225425Y717392D01*
X225425Y718725D01*
X225980Y720058D01*
X227092Y720725D01*
X232647Y720725D01*
X233758Y720058D01*
X234314Y718725D01*
X234314Y717392D01*
X233758Y716058D01*
X232647Y715392D01*
G54D11*
X252094Y740283D02*
X252094Y737617D01*
X249317Y737617D01*
X248206Y738283D01*
X247650Y739617D01*
X247650Y740950D01*
X248206Y742283D01*
X249317Y742950D01*
X254872Y742950D01*
X255983Y742283D01*
X256539Y740950D01*
X256539Y739617D01*
X255983Y738283D01*
X254872Y737617D01*
G54D11*
X247650Y735173D02*
X256539Y735173D01*
X247650Y729840D01*
X256539Y729840D01*
G54D11*
X247650Y727396D02*
X256539Y727396D01*
X256539Y724063D01*
X255983Y722729D01*
X254872Y722063D01*
X249317Y722063D01*
X248206Y722729D01*
X247650Y724063D01*
X247650Y727396D01*
G54D11*
X232647Y737617D02*
X227092Y737617D01*
X225980Y738283D01*
X225425Y739617D01*
X225425Y740950D01*
X225980Y742283D01*
X227092Y742950D01*
X232647Y742950D01*
X233758Y742283D01*
X234314Y740950D01*
X234314Y739617D01*
X233758Y738283D01*
X232647Y737617D01*
G54D11*
X203200Y739775D02*
X212089Y739775D01*
G54D10*
X431800Y965200D02*
X431800Y939800D01*
X406400Y939800D01*
X406400Y965200D01*
X431800Y965200D01*
G54D10*
X431800Y939800D02*
X584200Y939800D01*
X584200Y965200D01*
X431800Y965200D01*
G54D12*
X584700Y913300D02*
X584700Y913300D01*
G54D12*
X584700Y932800D02*
X584700Y932800D01*
G54D10*
X431800Y939800D02*
X431800Y914400D01*
X406400Y914400D01*
X406400Y939800D01*
X431800Y939800D01*
G54D10*
X431800Y914400D02*
X584200Y914400D01*
X584200Y939800D01*
X431800Y939800D01*
G54D12*
X584700Y887900D02*
X584700Y887900D01*
G54D12*
X584700Y907400D02*
X584700Y907400D01*
G54D10*
X431800Y914400D02*
X431800Y889000D01*
X406400Y889000D01*
X406400Y914400D01*
X431800Y914400D01*
G54D10*
X431800Y889000D02*
X584200Y889000D01*
X584200Y914400D01*
X431800Y914400D01*
G54D12*
X584700Y862500D02*
X584700Y862500D01*
G54D12*
X584700Y882000D02*
X584700Y882000D01*
G54D10*
X431800Y889000D02*
X431800Y863600D01*
X406400Y863600D01*
X406400Y889000D01*
X431800Y889000D01*
G54D10*
X431800Y863600D02*
X584200Y863600D01*
X584200Y889000D01*
X431800Y889000D01*
G54D12*
X584700Y837100D02*
X584700Y837100D01*
G54D12*
X584700Y856600D02*
X584700Y856600D01*
G54D10*
X431800Y190500D02*
X431800Y165100D01*
X406400Y165100D01*
X406400Y190500D01*
X431800Y190500D01*
G54D10*
X431800Y165100D02*
X584200Y165100D01*
X584200Y190500D01*
X431800Y190500D01*
G54D12*
X584700Y138600D02*
X584700Y138600D01*
G54D12*
X584700Y158100D02*
X584700Y158100D01*
G54D10*
X431800Y165100D02*
X431800Y139700D01*
X406400Y139700D01*
X406400Y165100D01*
X431800Y165100D01*
G54D10*
X431800Y139700D02*
X584200Y139700D01*
X584200Y165100D01*
X431800Y165100D01*
G54D12*
X584700Y113200D02*
X584700Y113200D01*
G54D12*
X584700Y132700D02*
X584700Y132700D01*
G54D10*
X431800Y139700D02*
X431800Y114300D01*
X406400Y114300D01*
X406400Y139700D01*
X431800Y139700D01*
G54D10*
X431800Y114300D02*
X584200Y114300D01*
X584200Y139700D01*
X431800Y139700D01*
G54D12*
X584700Y87800D02*
X584700Y87800D01*
G54D12*
X584700Y107300D02*
X584700Y107300D01*
G54D10*
X431800Y114300D02*
X431800Y88900D01*
X406400Y88900D01*
X406400Y114300D01*
X431800Y114300D01*
G54D10*
X431800Y88900D02*
X584200Y88900D01*
X584200Y114300D01*
X431800Y114300D01*
G54D12*
X584700Y62400D02*
X584700Y62400D01*
G54D12*
X584700Y81900D02*
X584700Y81900D01*
G54D10*
X431800Y260350D02*
X431800Y234950D01*
X406400Y234950D01*
X406400Y260350D01*
X431800Y260350D01*
G54D10*
X431800Y234950D02*
X584200Y234950D01*
X584200Y260350D01*
X431800Y260350D01*
G54D12*
X584700Y208450D02*
X584700Y208450D01*
G54D12*
X584700Y227950D02*
X584700Y227950D01*
G54D10*
X431800Y234950D02*
X431800Y209550D01*
X406400Y209550D01*
X406400Y234950D01*
X431800Y234950D01*
G54D10*
X431800Y209550D02*
X584200Y209550D01*
X584200Y234950D01*
X431800Y234950D01*
G54D12*
X584700Y183050D02*
X584700Y183050D01*
G54D12*
X584700Y202550D02*
X584700Y202550D01*
G54D14*
X174600Y850900D02*
X174600Y847700D01*
X155600Y847700D01*
X155600Y850900D01*
X174600Y850900D01*
G54D14*
G75*
G01X165100Y822300D02*
G03X165100Y822300I0J28600D01*
G01*
G54D14*
X149200Y838200D02*
X142900Y838200D01*
G54D14*
X146000Y841400D02*
X146000Y835000D01*
G54D14*
X174600Y854100D02*
X155600Y854100D01*
G54D12*
X220289Y880250D02*
X220289Y880250D01*
G54D12*
X200789Y880250D02*
X200789Y880250D01*
G54D14*
X273050Y781050D02*
X273050Y806450D01*
X196850Y806450D01*
X196850Y781050D01*
X273050Y781050D01*
G54D12*
X273800Y754300D02*
X273800Y754300D01*
G54D12*
X273800Y773800D02*
X273800Y773800D01*
G54D14*
X311150Y441350D02*
X307950Y441350D01*
X307950Y460350D01*
X311150Y460350D01*
X311150Y441350D01*
G54D14*
G75*
G01X282550Y450850D02*
G03X282550Y450850I28600J0D01*
G01*
G54D14*
X298450Y466750D02*
X298450Y473050D01*
G54D14*
X301650Y469950D02*
X295250Y469950D01*
G54D14*
X314350Y441350D02*
X314350Y460350D01*
G54D12*
X340500Y395661D02*
X340500Y395661D01*
G54D12*
X340500Y415161D02*
X340500Y415161D01*
G54D14*
X374650Y393700D02*
X374650Y419100D01*
X298450Y419100D01*
X298450Y393700D01*
X374650Y393700D01*
G54D12*
X375400Y366950D02*
X375400Y366950D01*
G54D12*
X375400Y386450D02*
X375400Y386450D01*
G54D15*
X285750Y88900D02*
X285750Y190500D01*
X361950Y190500D01*
X361950Y88900D01*
X285750Y88900D01*
G54D15*
X349250Y139700D02*
X349250Y146050D01*
X339725Y155575D01*
G54D15*
X349250Y158750D02*
X349250Y165100D01*
G54D12*
X258750Y87900D02*
X258750Y87900D01*
G54D12*
X278250Y87900D02*
X278250Y87900D01*
G54D14*
X206375Y330200D02*
X206375Y304800D01*
X180975Y304800D01*
X180975Y330200D01*
X206375Y330200D01*
G54D14*
X219075Y317500D02*
X206375Y317500D01*
G54D14*
X180975Y317500D02*
X168275Y317500D01*
G54D12*
X156925Y356950D02*
X156925Y356950D01*
G54D12*
X156925Y337450D02*
X156925Y337450D01*
G54D14*
X219075Y304800D02*
X219075Y279400D01*
X193675Y279400D01*
X193675Y304800D01*
X219075Y304800D01*
G54D14*
X231775Y292100D02*
X219075Y292100D01*
G54D14*
X193675Y292100D02*
X180975Y292100D01*
G54D12*
X169625Y331550D02*
X169625Y331550D01*
G54D12*
X169625Y312050D02*
X169625Y312050D01*
G54D14*
X238125Y657225D02*
X238125Y631825D01*
X212725Y631825D01*
X212725Y657225D01*
X238125Y657225D01*
G54D14*
X250825Y644525D02*
X238125Y644525D01*
G54D14*
X212725Y644525D02*
X200025Y644525D01*
G54D12*
X188675Y683975D02*
X188675Y683975D01*
G54D12*
X188675Y664475D02*
X188675Y664475D01*
G54D14*
X238125Y631825D02*
X238125Y606425D01*
X212725Y606425D01*
X212725Y631825D01*
X238125Y631825D01*
G54D14*
X250825Y619125D02*
X238125Y619125D01*
G54D14*
X212725Y619125D02*
X200025Y619125D01*
G54D12*
X188675Y658575D02*
X188675Y658575D01*
G54D12*
X188675Y639075D02*
X188675Y639075D01*
G54D14*
G75*
G01X61400Y655743D02*
G03X56473Y627806I8450J-15893D01*
G01*
G54D14*
G75*
G01X83639Y628280D02*
G03X78300Y655743I-13789J11570D01*
G01*
G54D14*
X56350Y627850D02*
X61150Y627850D01*
G54D14*
X83350Y627950D02*
X78550Y627950D01*
G54D12*
X25126Y620650D02*
X25126Y620650D01*
G54D12*
X44626Y620650D02*
X44626Y620650D01*
G54D14*
G75*
G01X78300Y572982D02*
G03X83227Y600919I-8450J15893D01*
G01*
G54D14*
G75*
G01X56061Y600445D02*
G03X61400Y572982I13789J-11570D01*
G01*
G54D14*
X83350Y600875D02*
X78550Y600875D01*
G54D14*
X56350Y600775D02*
X61150Y600775D01*
G54D14*
X142875Y615950D02*
X142875Y590550D01*
X117475Y590550D01*
X117475Y615950D01*
X142875Y615950D01*
G54D14*
X155575Y603250D02*
X142875Y603250D01*
G54D14*
X117475Y603250D02*
X104775Y603250D01*
G54D12*
X93425Y642700D02*
X93425Y642700D01*
G54D12*
X93425Y623200D02*
X93425Y623200D01*
G54D14*
X142875Y641350D02*
X142875Y615950D01*
X117475Y615950D01*
X117475Y641350D01*
X142875Y641350D01*
G54D14*
X155575Y628650D02*
X142875Y628650D01*
G54D14*
X117475Y628650D02*
X104775Y628650D01*
G54D12*
X93425Y668100D02*
X93425Y668100D01*
G54D12*
X93425Y648600D02*
X93425Y648600D01*
G54D10*
X273652Y306266D02*
X273652Y335635D01*
X288733Y335635D01*
X288733Y306266D01*
X273652Y306266D01*
G54D16*
X297067Y301503D02*
X292623Y301503D01*
X292623Y303170D01*
X292900Y303837D01*
X293456Y304170D01*
X294012Y304170D01*
X294567Y303837D01*
X294845Y303170D01*
X295123Y303837D01*
X295678Y304170D01*
X296234Y304170D01*
X296789Y303837D01*
X297067Y303170D01*
X297067Y301503D01*
G54D16*
X294845Y301503D02*
X294845Y303170D01*
G54D16*
X297067Y338762D02*
X297067Y336428D01*
X292623Y336428D01*
X292623Y338762D01*
G54D16*
X294845Y336428D02*
X294845Y338762D01*
G54D16*
X270834Y332745D02*
X271389Y332412D01*
X271667Y331745D01*
X271667Y331078D01*
X271389Y330412D01*
X270834Y330078D01*
X268056Y330078D01*
X267500Y330412D01*
X267223Y331078D01*
X267223Y331745D01*
X267501Y332412D01*
X268056Y332745D01*
G54D14*
X279400Y606425D02*
X279400Y581025D01*
X254000Y581025D01*
X254000Y606425D01*
X279400Y606425D01*
G54D14*
X292100Y593725D02*
X279400Y593725D01*
G54D14*
X254000Y593725D02*
X241300Y593725D01*
G54D12*
X229950Y607775D02*
X229950Y607775D01*
G54D12*
X229950Y613675D02*
X229950Y613675D01*
G54D10*
X231448Y116599D02*
X231448Y87230D01*
X216367Y87230D01*
X216367Y116599D01*
X231448Y116599D01*
G54D16*
X208032Y121361D02*
X212477Y121361D01*
X212477Y119694D01*
X212199Y119028D01*
X211644Y118694D01*
X211088Y118694D01*
X210532Y119028D01*
X210255Y119695D01*
X209977Y119028D01*
X209421Y118694D01*
X208866Y118694D01*
X208310Y119028D01*
X208032Y119695D01*
X208032Y121361D01*
G54D16*
X210255Y121361D02*
X210255Y119695D01*
G54D16*
X208032Y84103D02*
X208032Y86436D01*
X212477Y86436D01*
X212477Y84103D01*
G54D16*
X210255Y86436D02*
X210255Y84103D01*
G54D16*
X234266Y90120D02*
X233710Y90453D01*
X233432Y91119D01*
X233432Y91786D01*
X233710Y92453D01*
X234266Y92786D01*
X237044Y92786D01*
X237599Y92453D01*
X237877Y91786D01*
X237877Y91120D01*
X237599Y90453D01*
X237044Y90120D01*
G54D10*
X431800Y381000D02*
X431800Y355600D01*
X406400Y355600D01*
X406400Y381000D01*
X431800Y381000D01*
G54D10*
X431800Y355600D02*
X584200Y355600D01*
X584200Y381000D01*
X431800Y381000D01*
G54D12*
X584700Y329100D02*
X584700Y329100D01*
G54D12*
X584700Y348600D02*
X584700Y348600D01*
G54D10*
X431800Y355600D02*
X431800Y330200D01*
X406400Y330200D01*
X406400Y355600D01*
X431800Y355600D01*
G54D10*
X431800Y330200D02*
X584200Y330200D01*
X584200Y355600D01*
X431800Y355600D01*
G54D12*
X584700Y303700D02*
X584700Y303700D01*
G54D12*
X584700Y323200D02*
X584700Y323200D01*
G54D10*
X431800Y330200D02*
X431800Y304800D01*
X406400Y304800D01*
X406400Y330200D01*
X431800Y330200D01*
G54D10*
X431800Y304800D02*
X584200Y304800D01*
X584200Y330200D01*
X431800Y330200D01*
G54D12*
X584700Y278300D02*
X584700Y278300D01*
G54D12*
X584700Y297800D02*
X584700Y297800D01*
G54D10*
X431800Y304800D02*
X431800Y279400D01*
X406400Y279400D01*
X406400Y304800D01*
X431800Y304800D01*
G54D10*
X431800Y279400D02*
X584200Y279400D01*
X584200Y304800D01*
X431800Y304800D01*
G54D12*
X584700Y252900D02*
X584700Y252900D01*
G54D12*
X584700Y272400D02*
X584700Y272400D01*
G54D10*
X317500Y850900D02*
X584200Y850900D01*
X584200Y584200D01*
X317500Y584200D01*
X317500Y850900D01*
G54D17*
X462091Y659561D02*
X444313Y659561D01*
G54D17*
X462091Y675117D02*
X462091Y664450D01*
X460980Y664450D01*
X458758Y665784D01*
X452091Y673784D01*
X449869Y675117D01*
X447647Y675117D01*
X445424Y673784D01*
X444313Y671117D01*
X444313Y668450D01*
X445424Y665784D01*
X447647Y664450D01*
G54D17*
X458758Y690673D02*
X460980Y689340D01*
X462091Y686673D01*
X462091Y684006D01*
X460980Y681340D01*
X458758Y680006D01*
X447647Y680006D01*
X445424Y681340D01*
X444313Y684006D01*
X444313Y686673D01*
X445425Y689340D01*
X447647Y690673D01*
G54D17*
X462091Y700718D02*
X444313Y700718D01*
X455424Y707385D01*
X444313Y714052D01*
X462091Y714052D01*
G54D17*
X459424Y726940D02*
X454980Y726940D01*
X452758Y725607D01*
X452091Y722940D01*
X452758Y720274D01*
X454980Y718940D01*
X459424Y718940D01*
X461647Y720274D01*
X462091Y722940D01*
X461647Y725607D01*
X459424Y726940D01*
G54D17*
X462091Y739829D02*
X444313Y739829D01*
G54D17*
X454980Y739829D02*
X452758Y738496D01*
X452091Y735829D01*
X452758Y733163D01*
X454980Y731829D01*
X459424Y731829D01*
X461647Y733163D01*
X462091Y735829D01*
X461647Y738496D01*
X459424Y739829D01*
G54D17*
X452091Y752718D02*
X462091Y752718D01*
G54D17*
X459869Y752718D02*
X461647Y751385D01*
X462091Y748718D01*
X461647Y746052D01*
X459869Y744718D01*
X452091Y744718D01*
G54D17*
X462091Y757607D02*
X444313Y757608D01*
G54D17*
X460980Y770496D02*
X462091Y768363D01*
X462091Y765696D01*
X460980Y763030D01*
X458758Y762496D01*
X454980Y762496D01*
X452758Y763830D01*
X452091Y766496D01*
X452758Y769163D01*
X454313Y770496D01*
X456536Y770496D01*
X456536Y762496D01*
G54D14*
X304800Y762000D02*
X279400Y762000D01*
X279400Y685800D01*
X304800Y685800D01*
X304800Y762000D01*
G54D12*
X331550Y762750D02*
X331550Y762750D01*
G54D12*
X312050Y762750D02*
X312050Y762750D01*
G54D11*
X360933Y783589D02*
X355600Y783589D01*
X355600Y779700D01*
X356267Y779700D01*
X357600Y780256D01*
X358933Y780256D01*
X360267Y779700D01*
X360933Y778589D01*
X360933Y776367D01*
X360267Y775256D01*
X358933Y774700D01*
X357600Y774700D01*
X356267Y775256D01*
X355600Y776367D01*
G54D11*
X363377Y779700D02*
X366044Y774700D01*
X368710Y779700D01*
G54D11*
X355600Y705722D02*
X356267Y706833D01*
X357600Y707389D01*
X358933Y707389D01*
X360267Y706833D01*
X360933Y705722D01*
X360933Y704611D01*
X360267Y703500D01*
X358933Y702944D01*
X360267Y702389D01*
X360933Y701278D01*
X360933Y700167D01*
X360267Y699056D01*
X358933Y698500D01*
X357600Y698500D01*
X356267Y699056D01*
X355600Y700167D01*
G54D11*
X363377Y698500D02*
X363377Y698500D01*
G54D11*
X365821Y705722D02*
X366488Y706833D01*
X367821Y707389D01*
X369154Y707389D01*
X370488Y706833D01*
X371154Y705722D01*
X371154Y704611D01*
X370488Y703500D01*
X369154Y702944D01*
X370488Y702389D01*
X371154Y701278D01*
X371154Y700167D01*
X370488Y699056D01*
X369154Y698500D01*
X367821Y698500D01*
X366488Y699056D01*
X365821Y700167D01*
G54D11*
X373598Y703500D02*
X376265Y698500D01*
X378931Y703500D01*
G54D11*
X388858Y622300D02*
X389969Y622967D01*
X390525Y624300D01*
X390525Y625633D01*
X389969Y626967D01*
X388858Y627633D01*
X387747Y627633D01*
X386636Y626967D01*
X386081Y625633D01*
X386081Y624300D01*
X385525Y622967D01*
X384414Y622300D01*
X383303Y622300D01*
X382192Y622967D01*
X381636Y624300D01*
X381636Y625633D01*
X382192Y626967D01*
X383303Y627633D01*
G54D11*
X390525Y630077D02*
X381636Y630077D01*
X381636Y633410D01*
X382192Y634744D01*
X383303Y635410D01*
X388858Y635410D01*
X389969Y634744D01*
X390525Y633410D01*
X390525Y630077D01*
G54D11*
X390525Y637854D02*
X381636Y641187D01*
X390525Y644521D01*
G54D11*
X387192Y639187D02*
X387192Y643187D01*
G54D11*
X417433Y622300D02*
X418544Y622967D01*
X419100Y624300D01*
X419100Y625633D01*
X418544Y626967D01*
X417433Y627633D01*
X416322Y627633D01*
X415211Y626967D01*
X414656Y625633D01*
X414656Y624300D01*
X414100Y622967D01*
X412989Y622300D01*
X411878Y622300D01*
X410767Y622967D01*
X410211Y624300D01*
X410211Y625633D01*
X410767Y626967D01*
X411878Y627633D01*
G54D11*
X417433Y635410D02*
X418544Y634744D01*
X419100Y633410D01*
X419100Y632077D01*
X418544Y630744D01*
X417433Y630077D01*
X411878Y630077D01*
X410767Y630744D01*
X410211Y632077D01*
X410211Y633410D01*
X410767Y634744D01*
X411878Y635410D01*
G54D11*
X410211Y637854D02*
X419100Y637854D01*
X419100Y642521D01*
G54D17*
X534672Y412750D02*
X549117Y412750D01*
X551339Y414083D01*
X552450Y416750D01*
X552450Y419417D01*
X551339Y422083D01*
X549117Y423417D01*
X534672Y423417D01*
G54D17*
X549117Y428306D02*
X551339Y429639D01*
X552450Y432306D01*
X552450Y434973D01*
X551339Y437639D01*
X549117Y438973D01*
X546894Y438973D01*
X544672Y437639D01*
X543561Y434973D01*
X543561Y432306D01*
X542450Y429639D01*
X540228Y428306D01*
X538006Y428306D01*
X535783Y429639D01*
X534672Y432306D01*
X534672Y434973D01*
X535783Y437639D01*
X538006Y438973D01*
G54D17*
X552450Y443862D02*
X534672Y443862D01*
X534672Y450529D01*
X535783Y453195D01*
X538006Y454529D01*
X540228Y454529D01*
X542450Y453195D01*
X543561Y450529D01*
X544672Y453195D01*
X546894Y454529D01*
X549117Y454529D01*
X551339Y453195D01*
X552450Y450529D01*
X552450Y443862D01*
G54D17*
X543561Y443862D02*
X543561Y450529D01*
G54D17*
X544672Y459418D02*
X544672Y470085D01*
G54D17*
X549117Y474974D02*
X551339Y476307D01*
X552450Y478974D01*
X552450Y481641D01*
X551339Y484307D01*
X549117Y485641D01*
X546894Y485641D01*
X544672Y484307D01*
X543561Y481641D01*
X543561Y478974D01*
X542450Y476307D01*
X540228Y474974D01*
X538006Y474974D01*
X535783Y476307D01*
X534672Y478974D01*
X534672Y481641D01*
X535783Y484307D01*
X538006Y485641D01*
G54D17*
X552450Y499863D02*
X552450Y490530D01*
X534672Y490530D01*
X534672Y499863D01*
G54D17*
X543561Y490530D02*
X543561Y499863D01*
G54D17*
X543561Y510085D02*
X545783Y514085D01*
X548006Y515419D01*
X552450Y515419D01*
G54D17*
X552450Y504752D02*
X534672Y504752D01*
X534672Y511419D01*
X535783Y514085D01*
X538006Y515419D01*
X540228Y515419D01*
X542450Y514085D01*
X543561Y511419D01*
X543561Y504752D01*
G54D17*
X552450Y520308D02*
X534672Y520308D01*
G54D17*
X552450Y525197D02*
X534672Y531864D01*
X552450Y538530D01*
G54D17*
X545783Y527864D02*
X545783Y535864D01*
G54D17*
X534672Y543419D02*
X552450Y543419D01*
X552450Y552752D01*
G54D11*
X444500Y800100D02*
X435611Y800100D01*
X435611Y803433D01*
X436167Y804767D01*
X437278Y805433D01*
X442833Y805433D01*
X443944Y804767D01*
X444500Y803433D01*
X444500Y800100D01*
G54D11*
X440611Y807877D02*
X440611Y813210D01*
G54D11*
X438389Y810544D02*
X442833Y810544D01*
G54D11*
X469900Y800100D02*
X461011Y800100D01*
X461011Y803433D01*
X461567Y804767D01*
X462678Y805433D01*
X468233Y805433D01*
X469344Y804767D01*
X469900Y803433D01*
X469900Y800100D01*
G54D11*
X466011Y807877D02*
X466011Y813210D01*
G54D11*
X561467Y950594D02*
X564133Y950594D01*
X564133Y947817D01*
X563467Y946706D01*
X562133Y946150D01*
X560800Y946150D01*
X559467Y946706D01*
X558800Y947817D01*
X558800Y953372D01*
X559467Y954483D01*
X560800Y955039D01*
X562133Y955039D01*
X563467Y954483D01*
X564133Y953372D01*
G54D11*
X566577Y946150D02*
X566577Y955039D01*
X571910Y946150D01*
X571910Y955039D01*
G54D11*
X574354Y946150D02*
X574354Y955039D01*
X577687Y955039D01*
X579021Y954483D01*
X579687Y953372D01*
X579687Y947817D01*
X579021Y946706D01*
X577687Y946150D01*
X574354Y946150D01*
G54D11*
X558800Y920750D02*
X558800Y929639D01*
X562133Y929639D01*
X563467Y929083D01*
X564133Y927972D01*
X564133Y922417D01*
X563467Y921306D01*
X562133Y920750D01*
X558800Y920750D01*
G54D11*
X566577Y924639D02*
X571910Y924639D01*
G54D11*
X558800Y895350D02*
X558800Y904239D01*
X562133Y904239D01*
X563467Y903683D01*
X564133Y902572D01*
X564133Y897017D01*
X563467Y895906D01*
X562133Y895350D01*
X558800Y895350D01*
G54D11*
X566577Y899239D02*
X571910Y899239D01*
G54D11*
X569244Y901461D02*
X569244Y897017D01*
G54D11*
X558800Y869950D02*
X558800Y878839D01*
X564133Y869950D01*
X564133Y878839D01*
G54D11*
X571910Y871617D02*
X571244Y870506D01*
X569910Y869950D01*
X568577Y869950D01*
X567244Y870506D01*
X566577Y871617D01*
X566577Y877172D01*
X567244Y878283D01*
X568577Y878839D01*
X569910Y878839D01*
X571244Y878283D01*
X571910Y877172D01*
G54D11*
X561467Y366394D02*
X564133Y366394D01*
X564133Y363617D01*
X563467Y362506D01*
X562133Y361950D01*
X560800Y361950D01*
X559467Y362506D01*
X558800Y363617D01*
X558800Y369172D01*
X559467Y370283D01*
X560800Y370839D01*
X562133Y370839D01*
X563467Y370283D01*
X564133Y369172D01*
G54D11*
X566577Y361950D02*
X566577Y370839D01*
X571910Y361950D01*
X571910Y370839D01*
G54D11*
X574354Y361950D02*
X574354Y370839D01*
X577687Y370839D01*
X579021Y370283D01*
X579687Y369172D01*
X579687Y363617D01*
X579021Y362506D01*
X577687Y361950D01*
X574354Y361950D01*
G54D11*
X558800Y336550D02*
X558800Y345439D01*
X562133Y345439D01*
X563467Y344883D01*
X564133Y343772D01*
X564133Y338217D01*
X563467Y337106D01*
X562133Y336550D01*
X558800Y336550D01*
G54D11*
X566577Y340439D02*
X571910Y340439D01*
G54D11*
X558800Y311150D02*
X558800Y320039D01*
X562133Y320039D01*
X563467Y319483D01*
X564133Y318372D01*
X564133Y312817D01*
X563467Y311706D01*
X562133Y311150D01*
X558800Y311150D01*
G54D11*
X566577Y315039D02*
X571910Y315039D01*
G54D11*
X569244Y317261D02*
X569244Y312817D01*
G54D11*
X558800Y285750D02*
X558800Y294639D01*
X564133Y285750D01*
X564133Y294639D01*
G54D11*
X571910Y287417D02*
X571244Y286306D01*
X569910Y285750D01*
X568577Y285750D01*
X567244Y286306D01*
X566577Y287417D01*
X566577Y292972D01*
X567244Y294083D01*
X568577Y294639D01*
X569910Y294639D01*
X571244Y294083D01*
X571910Y292972D01*
G54D11*
X374650Y882650D02*
X365761Y882650D01*
G54D11*
X371872Y882650D02*
X365761Y887983D01*
G54D11*
X370206Y884650D02*
X374650Y887983D01*
G54D11*
X374650Y890427D02*
X365761Y890427D01*
X365761Y893760D01*
X366317Y895094D01*
X367428Y895760D01*
X368539Y895760D01*
X369650Y895094D01*
X370206Y893760D01*
X370761Y895094D01*
X371872Y895760D01*
X372983Y895760D01*
X374094Y895094D01*
X374650Y893760D01*
X374650Y890427D01*
G54D11*
X370206Y890427D02*
X370206Y893760D01*
G54D11*
X370761Y898204D02*
X370761Y903537D01*
G54D11*
X374650Y910648D02*
X374650Y905981D01*
X365761Y905981D01*
X365761Y910648D01*
G54D11*
X370206Y905981D02*
X370206Y910648D01*
G54D11*
X374650Y913092D02*
X369650Y913092D01*
G54D11*
X370539Y913092D02*
X369650Y914425D01*
X369983Y915759D01*
X370761Y916425D01*
X374650Y916425D01*
G54D11*
X370539Y916425D02*
X369650Y917759D01*
X369983Y919092D01*
X370761Y919759D01*
X374650Y919759D01*
G54D11*
X369650Y926203D02*
X374650Y926203D01*
G54D11*
X373539Y926203D02*
X374428Y925536D01*
X374650Y924203D01*
X374428Y922870D01*
X373539Y922203D01*
X369650Y922203D01*
G54D11*
X374650Y928647D02*
X365761Y928647D01*
G54D11*
X370206Y931091D02*
X369650Y932424D01*
X369650Y934024D01*
X370761Y935091D01*
X374650Y935091D01*
G54D11*
X372983Y935091D02*
X371872Y934424D01*
X371650Y933091D01*
X371872Y931758D01*
X372983Y931091D01*
X374094Y931358D01*
X374650Y932424D01*
X374650Y933091D01*
X374650Y933358D01*
X374094Y934424D01*
X372983Y935091D01*
G54D11*
X365761Y938868D02*
X374094Y938868D01*
X374650Y939535D01*
X374428Y940202D01*
G54D11*
X369650Y937535D02*
X369650Y940202D01*
G54D11*
X373317Y946646D02*
X371094Y946646D01*
X369983Y945979D01*
X369650Y944646D01*
X369983Y943313D01*
X371094Y942646D01*
X373317Y942646D01*
X374428Y943313D01*
X374650Y944646D01*
X374428Y945979D01*
X373317Y946646D01*
G54D11*
X374650Y949090D02*
X369650Y949090D01*
G54D11*
X370761Y949090D02*
X369650Y950423D01*
X369650Y951757D01*
G54D11*
X372983Y304800D02*
X374094Y305467D01*
X374650Y306800D01*
X374650Y308133D01*
X374094Y309467D01*
X372983Y310133D01*
X371872Y310133D01*
X370761Y309467D01*
X370206Y308133D01*
X370206Y306800D01*
X369650Y305467D01*
X368539Y304800D01*
X367428Y304800D01*
X366317Y305467D01*
X365761Y306800D01*
X365761Y308133D01*
X366317Y309467D01*
X367428Y310133D01*
G54D11*
X374094Y316577D02*
X374650Y315510D01*
X374650Y314177D01*
X374094Y312844D01*
X372983Y312577D01*
X371094Y312577D01*
X369983Y313244D01*
X369650Y314577D01*
X369983Y315910D01*
X370761Y316577D01*
X371872Y316577D01*
X371872Y312577D01*
G54D11*
X374650Y319021D02*
X369650Y319021D01*
G54D11*
X370761Y319021D02*
X369650Y320354D01*
X369650Y321688D01*
G54D11*
X374650Y324132D02*
X369650Y324132D01*
G54D11*
X367983Y324132D02*
X367983Y324132D01*
G54D11*
X370206Y326576D02*
X369650Y327909D01*
X369650Y329509D01*
X370761Y330576D01*
X374650Y330576D01*
G54D11*
X372983Y330576D02*
X371872Y329909D01*
X371650Y328576D01*
X371872Y327243D01*
X372983Y326576D01*
X374094Y326843D01*
X374650Y327909D01*
X374650Y328576D01*
X374650Y328843D01*
X374094Y329909D01*
X372983Y330576D01*
G54D11*
X374650Y333020D02*
X365761Y333020D01*
G54D11*
X370761Y335464D02*
X370761Y340797D01*
G54D11*
X365761Y343241D02*
X372983Y343241D01*
X374094Y343908D01*
X374650Y345241D01*
X374650Y346574D01*
X374094Y347908D01*
X372983Y348574D01*
X365761Y348574D01*
G54D11*
X372983Y351018D02*
X374094Y351685D01*
X374650Y353018D01*
X374650Y354351D01*
X374094Y355685D01*
X372983Y356351D01*
X371872Y356351D01*
X370761Y355685D01*
X370206Y354351D01*
X370206Y353018D01*
X369650Y351685D01*
X368539Y351018D01*
X367428Y351018D01*
X366317Y351685D01*
X365761Y353018D01*
X365761Y354351D01*
X366317Y355685D01*
X367428Y356351D01*
G54D11*
X374650Y358795D02*
X365761Y358795D01*
X365761Y362128D01*
X366317Y363462D01*
X367428Y364128D01*
X368539Y364128D01*
X369650Y363462D01*
X370206Y362128D01*
X370761Y363462D01*
X371872Y364128D01*
X372983Y364128D01*
X374094Y363462D01*
X374650Y362128D01*
X374650Y358795D01*
G54D11*
X370206Y358795D02*
X370206Y362128D01*
G54D11*
X372983Y222250D02*
X374094Y222917D01*
X374650Y224250D01*
X374650Y225583D01*
X374094Y226917D01*
X372983Y227583D01*
X371872Y227583D01*
X370761Y226917D01*
X370206Y225583D01*
X370206Y224250D01*
X369650Y222917D01*
X368539Y222250D01*
X367428Y222250D01*
X366317Y222917D01*
X365761Y224250D01*
X365761Y225583D01*
X366317Y226917D01*
X367428Y227583D01*
G54D11*
X374094Y234027D02*
X374650Y232960D01*
X374650Y231627D01*
X374094Y230294D01*
X372983Y230027D01*
X371094Y230027D01*
X369983Y230694D01*
X369650Y232027D01*
X369983Y233360D01*
X370761Y234027D01*
X371872Y234027D01*
X371872Y230027D01*
G54D11*
X374650Y236471D02*
X369650Y236471D01*
G54D11*
X370761Y236471D02*
X369983Y237138D01*
X369650Y238471D01*
X369983Y239804D01*
X370761Y240471D01*
X374650Y240471D01*
G54D11*
X374094Y242915D02*
X374650Y244248D01*
X374650Y245582D01*
X374094Y246915D01*
X372983Y246915D01*
X372428Y246248D01*
X371872Y243582D01*
X371317Y242915D01*
X370206Y242915D01*
X369650Y244248D01*
X369650Y245582D01*
X370206Y246915D01*
G54D11*
X374094Y253359D02*
X374650Y252292D01*
X374650Y250959D01*
X374094Y249626D01*
X372983Y249359D01*
X371094Y249359D01*
X369983Y250026D01*
X369650Y251359D01*
X369983Y252692D01*
X370761Y253359D01*
X371872Y253359D01*
X371872Y249359D01*
G54D11*
X374650Y101600D02*
X365761Y101600D01*
X365761Y104933D01*
X366317Y106267D01*
X367428Y106933D01*
X368539Y106933D01*
X369650Y106267D01*
X370206Y104933D01*
X370206Y101600D01*
G54D11*
X373317Y113377D02*
X371094Y113377D01*
X369983Y112710D01*
X369650Y111377D01*
X369983Y110044D01*
X371094Y109377D01*
X373317Y109377D01*
X374428Y110044D01*
X374650Y111377D01*
X374428Y112710D01*
X373317Y113377D01*
G54D11*
X369650Y115821D02*
X374650Y117821D01*
X369650Y119821D01*
X374650Y121821D01*
X369650Y123154D01*
G54D11*
X374094Y129598D02*
X374650Y128531D01*
X374650Y127198D01*
X374094Y125865D01*
X372983Y125598D01*
X371094Y125598D01*
X369983Y126265D01*
X369650Y127598D01*
X369983Y128931D01*
X370761Y129598D01*
X371872Y129598D01*
X371872Y125598D01*
G54D11*
X374650Y132042D02*
X369650Y132042D01*
G54D11*
X370761Y132042D02*
X369650Y133375D01*
X369650Y134709D01*
G54D11*
X370761Y137153D02*
X370761Y142486D01*
G54D11*
X374094Y144930D02*
X374650Y146263D01*
X374650Y147597D01*
X374094Y148930D01*
X372983Y148930D01*
X372428Y148263D01*
X371872Y145597D01*
X371317Y144930D01*
X370206Y144930D01*
X369650Y146263D01*
X369650Y147597D01*
X370206Y148930D01*
G54D11*
X369650Y151374D02*
X374650Y153374D01*
X369650Y155374D01*
X374650Y157374D01*
X369650Y158707D01*
G54D11*
X374650Y161151D02*
X369650Y161151D01*
G54D11*
X367983Y161151D02*
X367983Y161151D01*
G54D11*
X365761Y164928D02*
X374094Y164928D01*
X374650Y165595D01*
X374428Y166262D01*
G54D11*
X369650Y163595D02*
X369650Y166262D01*
G54D11*
X369983Y172039D02*
X369650Y170706D01*
X369983Y169373D01*
X371094Y168706D01*
X373317Y168706D01*
X374428Y169373D01*
X374650Y170706D01*
X374428Y172039D01*
G54D11*
X374650Y174483D02*
X365761Y174483D01*
G54D11*
X371094Y174483D02*
X369983Y175150D01*
X369650Y176483D01*
X369983Y177816D01*
X371094Y178483D01*
X374650Y178483D01*
G54D11*
X40006Y326517D02*
X41117Y328517D01*
X42228Y329183D01*
X44450Y329183D01*
G54D11*
X44450Y323850D02*
X35561Y323850D01*
X35561Y327183D01*
X36117Y328517D01*
X37228Y329183D01*
X38339Y329183D01*
X39450Y328517D01*
X40006Y327183D01*
X40006Y323850D01*
G54D11*
X42783Y331627D02*
X43894Y332294D01*
X44450Y333627D01*
X44450Y334960D01*
X43894Y336294D01*
X42783Y336960D01*
X41672Y336960D01*
X40561Y336294D01*
X40006Y334960D01*
X40006Y333627D01*
X39450Y332294D01*
X38339Y331627D01*
X37228Y331627D01*
X36117Y332294D01*
X35561Y333627D01*
X35561Y334960D01*
X36117Y336294D01*
X37228Y336960D01*
G54D11*
X44450Y342071D02*
X35561Y342071D01*
G54D11*
X35561Y339404D02*
X35561Y344737D01*
G54D11*
X44450Y209550D02*
X35561Y209550D01*
X35561Y214217D01*
G54D11*
X40006Y209550D02*
X40006Y214217D01*
G54D11*
X35561Y216661D02*
X42783Y216661D01*
X43894Y217328D01*
X44450Y218661D01*
X44450Y219994D01*
X43894Y221328D01*
X42783Y221994D01*
X35561Y221994D01*
G54D11*
X44450Y224438D02*
X35561Y224438D01*
X44450Y229771D01*
X35561Y229771D01*
G54D11*
X42783Y237548D02*
X43894Y236882D01*
X44450Y235548D01*
X44450Y234215D01*
X43894Y232882D01*
X42783Y232215D01*
X37228Y232215D01*
X36117Y232882D01*
X35561Y234215D01*
X35561Y235548D01*
X36117Y236882D01*
X37228Y237548D01*
G54D11*
X44450Y882650D02*
X35561Y882650D01*
X35561Y885983D01*
X36117Y887317D01*
X37228Y887983D01*
X38339Y887983D01*
X39450Y887317D01*
X40006Y885983D01*
X40561Y887317D01*
X41672Y887983D01*
X42783Y887983D01*
X43894Y887317D01*
X44450Y885983D01*
X44450Y882650D01*
G54D11*
X40006Y882650D02*
X40006Y885983D01*
G54D11*
X37228Y895760D02*
X42783Y895760D01*
X43894Y895094D01*
X44450Y893760D01*
X44450Y892427D01*
X43894Y891094D01*
X42783Y890427D01*
X37228Y890427D01*
X36117Y891094D01*
X35561Y892427D01*
X35561Y893760D01*
X36117Y895094D01*
X37228Y895760D01*
G54D11*
X37228Y903537D02*
X42783Y903537D01*
X43894Y902871D01*
X44450Y901537D01*
X44450Y900204D01*
X43894Y898871D01*
X42783Y898204D01*
X37228Y898204D01*
X36117Y898871D01*
X35561Y900204D01*
X35561Y901537D01*
X36117Y902871D01*
X37228Y903537D01*
G54D11*
X44450Y908648D02*
X35561Y908648D01*
G54D11*
X35561Y905981D02*
X35561Y911314D01*
G54D14*
X357234Y267194D02*
X331834Y267194D01*
X331834Y292594D01*
X357234Y292594D01*
X357234Y267194D01*
G54D14*
X344534Y254494D02*
X344534Y267194D01*
G54D14*
X344534Y292594D02*
X344534Y305294D01*
G54D12*
X383984Y316644D02*
X383984Y316644D01*
G54D12*
X364484Y316644D02*
X364484Y316644D01*
G54D14*
X331834Y267194D02*
X306434Y267194D01*
X306434Y292594D01*
X331834Y292594D01*
X331834Y267194D01*
G54D14*
X319134Y254494D02*
X319134Y267194D01*
G54D14*
X319134Y292594D02*
X319134Y305294D01*
G54D12*
X358584Y316644D02*
X358584Y316644D01*
G54D12*
X339084Y316644D02*
X339084Y316644D01*
G54D14*
X273454Y341187D02*
X273454Y366587D01*
X298854Y366587D01*
X298854Y341187D01*
X273454Y341187D01*
G54D14*
X260754Y353887D02*
X273454Y353887D01*
G54D14*
X298854Y353887D02*
X311554Y353887D01*
G54D12*
X313379Y314437D02*
X313379Y314437D01*
G54D12*
X322904Y333937D02*
X322904Y333937D01*
G54D14*
X311554Y366587D02*
X311554Y391987D01*
X336954Y391987D01*
X336954Y366587D01*
X311554Y366587D01*
G54D14*
X298854Y379287D02*
X311554Y379287D01*
G54D14*
X336954Y379287D02*
X349654Y379287D01*
G54D12*
X361004Y339837D02*
X361004Y339837D01*
G54D12*
X361004Y359337D02*
X361004Y359337D01*
G54D11*
X513333Y250189D02*
X508000Y250189D01*
X508000Y246300D01*
X508667Y246300D01*
X510000Y246856D01*
X511333Y246856D01*
X512667Y246300D01*
X513333Y245189D01*
X513333Y242967D01*
X512667Y241856D01*
X511333Y241300D01*
X510000Y241300D01*
X508667Y241856D01*
X508000Y242967D01*
G54D11*
X515777Y245189D02*
X521110Y245189D01*
G54D11*
X523554Y246856D02*
X526887Y250189D01*
X526887Y241300D01*
G54D11*
X534664Y241300D02*
X529331Y241300D01*
X529331Y241856D01*
X529998Y242967D01*
X533998Y246300D01*
X534664Y247411D01*
X534664Y248522D01*
X533998Y249633D01*
X532664Y250189D01*
X531331Y250189D01*
X529998Y249633D01*
X529331Y248522D01*
G54D11*
X537108Y246300D02*
X539775Y241300D01*
X542441Y246300D01*
G54D11*
X547462Y242967D02*
X548129Y241856D01*
X549462Y241300D01*
X550795Y241300D01*
X552129Y241856D01*
X552795Y242967D01*
X552795Y244078D01*
X552129Y245189D01*
X550795Y245744D01*
X549462Y245744D01*
X548129Y246300D01*
X547462Y247411D01*
X547462Y248522D01*
X548129Y249633D01*
X549462Y250189D01*
X550795Y250189D01*
X552129Y249633D01*
X552795Y248522D01*
G54D11*
X559239Y241856D02*
X558172Y241300D01*
X556839Y241300D01*
X555506Y241856D01*
X555239Y242967D01*
X555239Y244856D01*
X555906Y245967D01*
X557239Y246300D01*
X558572Y245967D01*
X559239Y245189D01*
X559239Y244078D01*
X555239Y244078D01*
G54D11*
X561683Y241300D02*
X561683Y246300D01*
G54D11*
X561683Y245189D02*
X562350Y245967D01*
X563683Y246300D01*
X565016Y245967D01*
X565683Y245189D01*
X565683Y241300D01*
G54D11*
X568127Y241856D02*
X569460Y241300D01*
X570794Y241300D01*
X572127Y241856D01*
X572127Y242967D01*
X571460Y243522D01*
X568794Y244078D01*
X568127Y244633D01*
X568127Y245744D01*
X569460Y246300D01*
X570794Y246300D01*
X572127Y245744D01*
G54D11*
X578571Y241856D02*
X577504Y241300D01*
X576171Y241300D01*
X574838Y241856D01*
X574571Y242967D01*
X574571Y244856D01*
X575238Y245967D01*
X576571Y246300D01*
X577904Y245967D01*
X578571Y245189D01*
X578571Y244078D01*
X574571Y244078D01*
G54D11*
X561467Y220344D02*
X564133Y220344D01*
X564133Y217567D01*
X563467Y216456D01*
X562133Y215900D01*
X560800Y215900D01*
X559467Y216456D01*
X558800Y217567D01*
X558800Y223122D01*
X559467Y224233D01*
X560800Y224789D01*
X562133Y224789D01*
X563467Y224233D01*
X564133Y223122D01*
G54D11*
X566577Y215900D02*
X566577Y224789D01*
X571910Y215900D01*
X571910Y224789D01*
G54D11*
X574354Y215900D02*
X574354Y224789D01*
X577687Y224789D01*
X579021Y224233D01*
X579687Y223122D01*
X579687Y217567D01*
X579021Y216456D01*
X577687Y215900D01*
X574354Y215900D01*
G54D11*
X527050Y173117D02*
X527717Y172006D01*
X529050Y171450D01*
X530383Y171450D01*
X531717Y172006D01*
X532383Y173117D01*
X532383Y174228D01*
X531717Y175339D01*
X530383Y175894D01*
X529050Y175894D01*
X527717Y176450D01*
X527050Y177561D01*
X527050Y178672D01*
X527717Y179783D01*
X529050Y180339D01*
X530383Y180339D01*
X531717Y179783D01*
X532383Y178672D01*
G54D11*
X534827Y180339D02*
X534827Y171450D01*
X538160Y177006D01*
X541494Y171450D01*
X541494Y180339D01*
G54D11*
X543938Y175339D02*
X549271Y175339D01*
G54D11*
X551715Y173117D02*
X552382Y172006D01*
X553715Y171450D01*
X555048Y171450D01*
X556382Y172006D01*
X557048Y173117D01*
X557048Y174228D01*
X556382Y175339D01*
X555048Y175894D01*
X553715Y175894D01*
X552382Y176450D01*
X551715Y177561D01*
X551715Y178672D01*
X552382Y179783D01*
X553715Y180339D01*
X555048Y180339D01*
X556382Y179783D01*
X557048Y178672D01*
G54D11*
X563492Y172006D02*
X562425Y171450D01*
X561092Y171450D01*
X559759Y172006D01*
X559492Y173117D01*
X559492Y175006D01*
X560159Y176117D01*
X561492Y176450D01*
X562825Y176117D01*
X563492Y175339D01*
X563492Y174228D01*
X559492Y174228D01*
G54D11*
X565936Y171450D02*
X565936Y176450D01*
G54D11*
X565936Y175339D02*
X566603Y176117D01*
X567936Y176450D01*
X569269Y176117D01*
X569936Y175339D01*
X569936Y171450D01*
G54D11*
X576380Y171450D02*
X576380Y180339D01*
G54D11*
X576380Y175006D02*
X575713Y176117D01*
X574380Y176450D01*
X573047Y176117D01*
X572380Y175006D01*
X572380Y172783D01*
X573047Y171672D01*
X574380Y171450D01*
X575713Y171672D01*
X576380Y172783D01*
G54D11*
X527050Y147717D02*
X527717Y146606D01*
X529050Y146050D01*
X530383Y146050D01*
X531717Y146606D01*
X532383Y147717D01*
X532383Y148828D01*
X531717Y149939D01*
X530383Y150494D01*
X529050Y150494D01*
X527717Y151050D01*
X527050Y152161D01*
X527050Y153272D01*
X527717Y154383D01*
X529050Y154939D01*
X530383Y154939D01*
X531717Y154383D01*
X532383Y153272D01*
G54D11*
X534827Y154939D02*
X534827Y146050D01*
X538160Y151606D01*
X541494Y146050D01*
X541494Y154939D01*
G54D11*
X543938Y149939D02*
X549271Y149939D01*
G54D11*
X551715Y147717D02*
X552382Y146606D01*
X553715Y146050D01*
X555048Y146050D01*
X556382Y146606D01*
X557048Y147717D01*
X557048Y148828D01*
X556382Y149939D01*
X555048Y150494D01*
X553715Y150494D01*
X552382Y151050D01*
X551715Y152161D01*
X551715Y153272D01*
X552382Y154383D01*
X553715Y154939D01*
X555048Y154939D01*
X556382Y154383D01*
X557048Y153272D01*
G54D11*
X563492Y146606D02*
X562425Y146050D01*
X561092Y146050D01*
X559759Y146606D01*
X559492Y147717D01*
X559492Y149606D01*
X560159Y150717D01*
X561492Y151050D01*
X562825Y150717D01*
X563492Y149939D01*
X563492Y148828D01*
X559492Y148828D01*
G54D11*
X565936Y146050D02*
X565936Y151050D01*
G54D11*
X565936Y149939D02*
X566603Y150717D01*
X567936Y151050D01*
X569269Y150717D01*
X569936Y149939D01*
X569936Y146050D01*
G54D11*
X576380Y146050D02*
X576380Y154939D01*
G54D11*
X576380Y149606D02*
X575713Y150717D01*
X574380Y151050D01*
X573047Y150717D01*
X572380Y149606D01*
X572380Y147383D01*
X573047Y146272D01*
X574380Y146050D01*
X575713Y146272D01*
X576380Y147383D01*
G54D11*
X520700Y122317D02*
X521367Y121206D01*
X522700Y120650D01*
X524033Y120650D01*
X525367Y121206D01*
X526033Y122317D01*
X526033Y123428D01*
X525367Y124539D01*
X524033Y125094D01*
X522700Y125094D01*
X521367Y125650D01*
X520700Y126761D01*
X520700Y127872D01*
X521367Y128983D01*
X522700Y129539D01*
X524033Y129539D01*
X525367Y128983D01*
X526033Y127872D01*
G54D11*
X528477Y129539D02*
X528477Y120650D01*
X531810Y126206D01*
X535144Y120650D01*
X535144Y129539D01*
G54D11*
X537588Y124539D02*
X542921Y124539D01*
G54D11*
X548032Y125094D02*
X550032Y123983D01*
X550698Y122872D01*
X550698Y120650D01*
G54D11*
X545365Y120650D02*
X545365Y129539D01*
X548698Y129539D01*
X550032Y128983D01*
X550698Y127872D01*
X550698Y126761D01*
X550032Y125650D01*
X548698Y125094D01*
X545365Y125094D01*
G54D11*
X557142Y121206D02*
X556075Y120650D01*
X554742Y120650D01*
X553409Y121206D01*
X553142Y122317D01*
X553142Y124206D01*
X553809Y125317D01*
X555142Y125650D01*
X556475Y125317D01*
X557142Y124539D01*
X557142Y123428D01*
X553142Y123428D01*
G54D11*
X560919Y129539D02*
X560919Y121206D01*
X561586Y120650D01*
X562253Y120872D01*
G54D11*
X559586Y125650D02*
X562253Y125650D01*
G54D11*
X568697Y125650D02*
X568697Y120650D01*
G54D11*
X568697Y121761D02*
X568030Y120872D01*
X566697Y120650D01*
X565364Y120872D01*
X564697Y121761D01*
X564697Y125650D01*
G54D11*
X571141Y120650D02*
X571141Y125650D01*
G54D11*
X571141Y124539D02*
X572474Y125650D01*
X573808Y125650D01*
G54D11*
X576252Y120650D02*
X576252Y125650D01*
G54D11*
X576252Y124539D02*
X576919Y125317D01*
X578252Y125650D01*
X579585Y125317D01*
X580252Y124539D01*
X580252Y120650D01*
G54D11*
X520700Y96917D02*
X521367Y95806D01*
X522700Y95250D01*
X524033Y95250D01*
X525367Y95806D01*
X526033Y96917D01*
X526033Y98028D01*
X525367Y99139D01*
X524033Y99694D01*
X522700Y99694D01*
X521367Y100250D01*
X520700Y101361D01*
X520700Y102472D01*
X521367Y103583D01*
X522700Y104139D01*
X524033Y104139D01*
X525367Y103583D01*
X526033Y102472D01*
G54D11*
X528477Y104139D02*
X528477Y95250D01*
X531810Y100806D01*
X535144Y95250D01*
X535144Y104139D01*
G54D11*
X537588Y99139D02*
X542921Y99139D01*
G54D11*
X548032Y99694D02*
X550032Y98583D01*
X550698Y97472D01*
X550698Y95250D01*
G54D11*
X545365Y95250D02*
X545365Y104139D01*
X548698Y104139D01*
X550032Y103583D01*
X550698Y102472D01*
X550698Y101361D01*
X550032Y100250D01*
X548698Y99694D01*
X545365Y99694D01*
G54D11*
X557142Y95806D02*
X556075Y95250D01*
X554742Y95250D01*
X553409Y95806D01*
X553142Y96917D01*
X553142Y98806D01*
X553809Y99917D01*
X555142Y100250D01*
X556475Y99917D01*
X557142Y99139D01*
X557142Y98028D01*
X553142Y98028D01*
G54D11*
X560919Y104139D02*
X560919Y95806D01*
X561586Y95250D01*
X562253Y95472D01*
G54D11*
X559586Y100250D02*
X562253Y100250D01*
G54D11*
X568697Y100250D02*
X568697Y95250D01*
G54D11*
X568697Y96361D02*
X568030Y95472D01*
X566697Y95250D01*
X565364Y95472D01*
X564697Y96361D01*
X564697Y100250D01*
G54D11*
X571141Y95250D02*
X571141Y100250D01*
G54D11*
X571141Y99139D02*
X572474Y100250D01*
X573808Y100250D01*
G54D11*
X576252Y95250D02*
X576252Y100250D01*
G54D11*
X576252Y99139D02*
X576919Y99917D01*
X578252Y100250D01*
X579585Y99917D01*
X580252Y99139D01*
X580252Y95250D01*
G54D14*
X282575Y120650D02*
X257175Y120650D01*
X257175Y146050D01*
X282575Y146050D01*
X282575Y120650D01*
G54D14*
X269875Y107950D02*
X269875Y120650D01*
G54D14*
X269875Y146050D02*
X269875Y158750D01*
G54D12*
X309325Y170100D02*
X309325Y170100D01*
G54D12*
X289825Y170100D02*
X289825Y170100D01*
G54D10*
X258716Y142381D02*
X280941Y142381D01*
G54D14*
X225425Y146050D02*
X200025Y146050D01*
X200025Y171450D01*
X225425Y171450D01*
X225425Y146050D01*
G54D14*
X212725Y133350D02*
X212725Y146050D01*
G54D14*
X212725Y171450D02*
X212725Y184150D01*
G54D12*
X252175Y195500D02*
X252175Y195500D01*
G54D12*
X232675Y195500D02*
X232675Y195500D01*
G54D14*
X200025Y146050D02*
X174625Y146050D01*
X174625Y171450D01*
X200025Y171450D01*
X200025Y146050D01*
G54D14*
X187325Y133350D02*
X187325Y146050D01*
G54D14*
X187325Y171450D02*
X187325Y184150D01*
G54D12*
X226775Y195500D02*
X226775Y195500D01*
G54D12*
X207275Y195500D02*
X207275Y195500D01*
G54D11*
X482600Y647700D02*
X473711Y647700D01*
G54D11*
X482600Y655477D02*
X482600Y650144D01*
X482044Y650144D01*
X480933Y650811D01*
X477600Y654811D01*
X476489Y655477D01*
X475378Y655477D01*
X474267Y654811D01*
X473711Y653477D01*
X473711Y652144D01*
X474267Y650811D01*
X475378Y650144D01*
G54D11*
X480933Y663254D02*
X482044Y662588D01*
X482600Y661254D01*
X482600Y659921D01*
X482044Y658588D01*
X480933Y657921D01*
X475378Y657921D01*
X474267Y658588D01*
X473711Y659921D01*
X473711Y661254D01*
X474267Y662588D01*
X475378Y663254D01*
G54D11*
X478711Y668275D02*
X478711Y673608D01*
G54D11*
X476489Y676052D02*
X478711Y681385D01*
G54D11*
X480933Y676052D02*
X478711Y681385D01*
G54D11*
X473711Y686406D02*
X480933Y686406D01*
X482044Y687073D01*
X482600Y688406D01*
X482600Y689739D01*
X482044Y691073D01*
X480933Y691739D01*
X473711Y691739D01*
G54D11*
X480933Y694183D02*
X482044Y694850D01*
X482600Y696183D01*
X482600Y697516D01*
X482044Y698850D01*
X480933Y699516D01*
X479822Y699516D01*
X478711Y698850D01*
X478156Y697516D01*
X478156Y696183D01*
X477600Y694850D01*
X476489Y694183D01*
X475378Y694183D01*
X474267Y694850D01*
X473711Y696183D01*
X473711Y697516D01*
X474267Y698850D01*
X475378Y699516D01*
G54D11*
X482600Y701960D02*
X473711Y701960D01*
X473711Y705293D01*
X474267Y706627D01*
X475378Y707293D01*
X476489Y707293D01*
X477600Y706627D01*
X478156Y705293D01*
X478711Y706627D01*
X479822Y707293D01*
X480933Y707293D01*
X482044Y706627D01*
X482600Y705293D01*
X482600Y701960D01*
G54D11*
X478156Y701960D02*
X478156Y705293D01*
G54D11*
X482600Y714891D02*
X473711Y714891D01*
G54D11*
X482600Y720224D02*
X473711Y720224D01*
G54D11*
X478156Y714891D02*
X478156Y720224D01*
G54D11*
X482600Y722668D02*
X473711Y722668D01*
G54D11*
X482600Y725112D02*
X473711Y725112D01*
X473711Y728445D01*
X474267Y729779D01*
X475378Y730445D01*
X480933Y730445D01*
X482044Y729779D01*
X482600Y728445D01*
X482600Y725112D01*
G54D11*
X482600Y735466D02*
X473711Y735466D01*
G54D11*
X479822Y735466D02*
X473711Y740799D01*
G54D11*
X478156Y737466D02*
X482600Y740799D01*
G54D11*
X482044Y747243D02*
X482600Y746176D01*
X482600Y744843D01*
X482044Y743510D01*
X480933Y743243D01*
X479044Y743243D01*
X477933Y743910D01*
X477600Y745243D01*
X477933Y746576D01*
X478711Y747243D01*
X479822Y747243D01*
X479822Y743243D01*
G54D11*
X477600Y749687D02*
X482600Y752354D01*
X477600Y755020D01*
G54D11*
X482600Y752354D02*
X484267Y751687D01*
X484822Y751020D01*
X484822Y750354D01*
G54D11*
X482600Y757464D02*
X473711Y757464D01*
G54D11*
X479044Y757464D02*
X477933Y758131D01*
X477600Y759464D01*
X477933Y760797D01*
X479044Y761464D01*
X481267Y761464D01*
X482378Y760797D01*
X482600Y759464D01*
X482378Y758131D01*
X481267Y757464D01*
G54D11*
X481267Y767908D02*
X479044Y767908D01*
X477933Y767241D01*
X477600Y765908D01*
X477933Y764575D01*
X479044Y763908D01*
X481267Y763908D01*
X482378Y764575D01*
X482600Y765908D01*
X482378Y767241D01*
X481267Y767908D01*
G54D11*
X478156Y770352D02*
X477600Y771685D01*
X477600Y773285D01*
X478711Y774352D01*
X482600Y774352D01*
G54D11*
X480933Y774352D02*
X479822Y773685D01*
X479600Y772352D01*
X479822Y771019D01*
X480933Y770352D01*
X482044Y770619D01*
X482600Y771685D01*
X482600Y772352D01*
X482600Y772619D01*
X482044Y773685D01*
X480933Y774352D01*
G54D11*
X482600Y776796D02*
X477600Y776796D01*
G54D11*
X478711Y776796D02*
X477600Y778129D01*
X477600Y779463D01*
G54D11*
X482600Y785907D02*
X473711Y785907D01*
G54D11*
X479044Y785907D02*
X477933Y785240D01*
X477600Y783907D01*
X477933Y782574D01*
X479044Y781907D01*
X481267Y781907D01*
X482378Y782574D01*
X482600Y783907D01*
X482378Y785240D01*
X481267Y785907D01*
G54D17*
X122808Y951864D02*
X128142Y951864D01*
X128142Y946308D01*
X126808Y944086D01*
X124142Y942975D01*
X121475Y942975D01*
X118808Y944086D01*
X117475Y946308D01*
X117475Y957419D01*
X118808Y959642D01*
X121475Y960753D01*
X124142Y960753D01*
X126808Y959642D01*
X128142Y957419D01*
G54D17*
X141031Y944086D02*
X138898Y942975D01*
X136231Y942975D01*
X133564Y944086D01*
X133031Y946308D01*
X133031Y950086D01*
X134364Y952308D01*
X137031Y952975D01*
X139698Y952308D01*
X141031Y950753D01*
X141031Y948531D01*
X133031Y948531D01*
G54D17*
X145920Y942975D02*
X145920Y952975D01*
G54D17*
X145920Y950753D02*
X147253Y952308D01*
X149920Y952975D01*
X152587Y952308D01*
X153920Y950753D01*
X153920Y942975D01*
G54D17*
X166809Y944086D02*
X164676Y942975D01*
X162009Y942975D01*
X159342Y944086D01*
X158809Y946308D01*
X158809Y950086D01*
X160142Y952308D01*
X162809Y952975D01*
X165476Y952308D01*
X166809Y950753D01*
X166809Y948531D01*
X158809Y948531D01*
G54D17*
X171698Y942975D02*
X171698Y952975D01*
G54D17*
X171698Y950753D02*
X174365Y952975D01*
X177031Y952975D01*
G54D17*
X181920Y942975D02*
X181920Y952975D01*
G54D17*
X181920Y956308D02*
X181920Y956308D01*
G54D17*
X193476Y952308D02*
X190809Y952975D01*
X188142Y952308D01*
X186809Y950086D01*
X186809Y945642D01*
X188142Y943419D01*
X190809Y942975D01*
X193476Y943419D01*
G54D17*
X203521Y942975D02*
X203521Y960753D01*
G54D17*
X208410Y942975D02*
X208410Y960753D01*
X215077Y960753D01*
X217743Y959642D01*
X219077Y957419D01*
X219077Y955197D01*
X217743Y952975D01*
X215077Y951864D01*
X208410Y951864D01*
G54D17*
X223966Y942975D02*
X223966Y960753D01*
X230633Y949642D01*
X237299Y960753D01*
X237299Y942975D01*
G54D17*
X242188Y942975D02*
X242188Y960753D01*
G54D11*
X247650Y942975D02*
X247650Y947975D01*
G54D11*
X247650Y946864D02*
X248983Y947975D01*
X250317Y947975D01*
G54D11*
X256761Y943531D02*
X255694Y942975D01*
X254361Y942975D01*
X253028Y943531D01*
X252761Y944642D01*
X252761Y946531D01*
X253428Y947642D01*
X254761Y947975D01*
X256094Y947642D01*
X256761Y946864D01*
X256761Y945753D01*
X252761Y945753D01*
G54D11*
X259205Y947975D02*
X261872Y942975D01*
X264538Y947975D01*
G54D11*
X272315Y942975D02*
X266982Y942975D01*
X266982Y943531D01*
X267649Y944642D01*
X271649Y947975D01*
X272315Y949086D01*
X272315Y950197D01*
X271649Y951308D01*
X270315Y951864D01*
X268982Y951864D01*
X267649Y951308D01*
X266982Y950197D01*
G54D11*
X117475Y923925D02*
X117475Y932814D01*
G54D11*
X117475Y927481D02*
X118142Y928592D01*
X119475Y928925D01*
X120808Y928592D01*
X121475Y927481D01*
X121475Y923925D01*
G54D11*
X125252Y932814D02*
X125252Y924481D01*
X125919Y923925D01*
X126586Y924147D01*
G54D11*
X123919Y928925D02*
X126586Y928925D01*
G54D11*
X130363Y932814D02*
X130363Y924481D01*
X131030Y923925D01*
X131697Y924147D01*
G54D11*
X129030Y928925D02*
X131697Y928925D01*
G54D11*
X134141Y928925D02*
X134141Y921703D01*
G54D11*
X134141Y925592D02*
X134808Y924147D01*
X136141Y923925D01*
X137474Y924147D01*
X138141Y925258D01*
X138141Y927481D01*
X137474Y928592D01*
X136141Y928925D01*
X134808Y928592D01*
X134141Y927258D01*
G54D11*
X140585Y924481D02*
X141918Y923925D01*
X143252Y923925D01*
X144585Y924481D01*
X144585Y925592D01*
X143918Y926147D01*
X141252Y926703D01*
X140585Y927258D01*
X140585Y928369D01*
X141918Y928925D01*
X143252Y928925D01*
X144585Y928369D01*
G54D11*
X147029Y923925D02*
X147029Y923925D01*
G54D11*
X147029Y928925D02*
X147029Y928925D01*
G54D11*
X149473Y923925D02*
X154806Y932814D01*
G54D11*
X157250Y923925D02*
X162583Y932814D01*
G54D11*
X165027Y922258D02*
X166360Y921703D01*
X167294Y921703D01*
X168627Y922258D01*
X169027Y923369D01*
X169027Y928925D01*
G54D11*
X169027Y927481D02*
X168360Y928592D01*
X167027Y928925D01*
X165694Y928592D01*
X165027Y927481D01*
X165027Y925258D01*
X165694Y924147D01*
X167027Y923925D01*
X168360Y924147D01*
X169027Y925258D01*
G54D11*
X171471Y923925D02*
X171471Y928925D01*
G54D11*
X171471Y930592D02*
X171471Y930592D01*
G54D11*
X175248Y932814D02*
X175248Y924481D01*
X175915Y923925D01*
X176582Y924147D01*
G54D11*
X173915Y928925D02*
X176582Y928925D01*
G54D11*
X179026Y923925D02*
X179026Y932814D01*
G54D11*
X179026Y927481D02*
X179693Y928592D01*
X181026Y928925D01*
X182359Y928592D01*
X183026Y927481D01*
X183026Y923925D01*
G54D11*
X189470Y928925D02*
X189470Y923925D01*
G54D11*
X189470Y925036D02*
X188803Y924147D01*
X187470Y923925D01*
X186137Y924147D01*
X185470Y925036D01*
X185470Y928925D01*
G54D11*
X191914Y923925D02*
X191914Y932814D01*
G54D11*
X191914Y927481D02*
X192581Y928592D01*
X193914Y928925D01*
X195247Y928592D01*
X195914Y927481D01*
X195914Y925258D01*
X195247Y924147D01*
X193914Y923925D01*
X192581Y924147D01*
X191914Y925258D01*
G54D11*
X198358Y923925D02*
X198358Y923925D01*
G54D11*
X204135Y928592D02*
X202802Y928925D01*
X201469Y928592D01*
X200802Y927481D01*
X200802Y925258D01*
X201469Y924147D01*
X202802Y923925D01*
X204135Y924147D01*
G54D11*
X210579Y925258D02*
X210579Y927481D01*
X209912Y928592D01*
X208579Y928925D01*
X207246Y928592D01*
X206579Y927481D01*
X206579Y925258D01*
X207246Y924147D01*
X208579Y923925D01*
X209912Y924147D01*
X210579Y925258D01*
G54D11*
X213023Y923925D02*
X213023Y928925D01*
G54D11*
X213023Y928036D02*
X214356Y928925D01*
X215690Y928592D01*
X216356Y927814D01*
X216356Y923925D01*
G54D11*
X216356Y928036D02*
X217690Y928925D01*
X219023Y928592D01*
X219690Y927814D01*
X219690Y923925D01*
G54D11*
X222134Y923925D02*
X227467Y932814D01*
G54D11*
X235244Y925592D02*
X234578Y924481D01*
X233244Y923925D01*
X231911Y923925D01*
X230578Y924481D01*
X229911Y925592D01*
X229911Y931147D01*
X230578Y932258D01*
X231911Y932814D01*
X233244Y932814D01*
X234578Y932258D01*
X235244Y931147D01*
G54D11*
X237688Y923925D02*
X237688Y932814D01*
G54D11*
X237688Y927481D02*
X238355Y928592D01*
X239688Y928925D01*
X241021Y928592D01*
X241688Y927481D01*
X241688Y923925D01*
G54D11*
X244132Y923925D02*
X244132Y928925D01*
G54D11*
X244132Y930592D02*
X244132Y930592D01*
G54D11*
X246576Y928925D02*
X246576Y921703D01*
G54D11*
X246576Y925592D02*
X247243Y924147D01*
X248576Y923925D01*
X249909Y924147D01*
X250576Y925258D01*
X250576Y927481D01*
X249909Y928592D01*
X248576Y928925D01*
X247243Y928592D01*
X246576Y927258D01*
G54D11*
X255687Y923925D02*
X255687Y932814D01*
G54D11*
X253020Y932814D02*
X258353Y932814D01*
G54D11*
X264797Y924481D02*
X263730Y923925D01*
X262397Y923925D01*
X261064Y924481D01*
X260797Y925592D01*
X260797Y927481D01*
X261464Y928592D01*
X262797Y928925D01*
X264130Y928592D01*
X264797Y927814D01*
X264797Y926703D01*
X260797Y926703D01*
G54D11*
X270574Y928592D02*
X269241Y928925D01*
X267908Y928592D01*
X267241Y927481D01*
X267241Y925258D01*
X267908Y924147D01*
X269241Y923925D01*
X270574Y924147D01*
G54D11*
X273018Y923925D02*
X273018Y932814D01*
G54D11*
X273018Y927481D02*
X273685Y928592D01*
X275018Y928925D01*
X276351Y928592D01*
X277018Y927481D01*
X277018Y923925D01*
G54D11*
X279462Y923925D02*
X279462Y928925D01*
G54D11*
X279462Y927814D02*
X280129Y928592D01*
X281462Y928925D01*
X282795Y928592D01*
X283462Y927814D01*
X283462Y923925D01*
G54D11*
X289906Y925258D02*
X289906Y927481D01*
X289239Y928592D01*
X287906Y928925D01*
X286573Y928592D01*
X285906Y927481D01*
X285906Y925258D01*
X286573Y924147D01*
X287906Y923925D01*
X289239Y924147D01*
X289906Y925258D01*
G54D11*
X292350Y923925D02*
X297683Y932814D01*
G54D11*
X300127Y923925D02*
X300127Y932814D01*
G54D11*
X302571Y923925D02*
X302571Y932814D01*
X305904Y932814D01*
X307238Y932258D01*
X307904Y931147D01*
X307904Y930036D01*
X307238Y928925D01*
X305904Y928369D01*
X302571Y928369D01*
G54D11*
X310348Y923925D02*
X310348Y932814D01*
X313681Y927258D01*
X317015Y932814D01*
X317015Y923925D01*
G54D11*
X319459Y923925D02*
X319459Y932814D01*
G54D11*
X321903Y927814D02*
X327236Y927814D01*
G54D11*
X333013Y928592D02*
X331680Y928925D01*
X330347Y928592D01*
X329680Y927481D01*
X329680Y925258D01*
X330347Y924147D01*
X331680Y923925D01*
X333013Y924147D01*
G54D11*
X335457Y928369D02*
X336790Y928925D01*
X338390Y928925D01*
X339457Y927814D01*
X339457Y923925D01*
G54D11*
X339457Y925592D02*
X338790Y926703D01*
X337457Y926925D01*
X336124Y926703D01*
X335457Y925592D01*
X335724Y924481D01*
X336790Y923925D01*
X337457Y923925D01*
X337724Y923925D01*
X338790Y924481D01*
X339457Y925592D01*
G54D11*
X341901Y923925D02*
X341901Y928925D01*
G54D11*
X341901Y927814D02*
X343234Y928925D01*
X344568Y928925D01*
G54D11*
X351012Y923925D02*
X351012Y932814D01*
G54D11*
X351012Y927481D02*
X350345Y928592D01*
X349012Y928925D01*
X347679Y928592D01*
X347012Y927481D01*
X347012Y925258D01*
X347679Y924147D01*
X349012Y923925D01*
X350345Y924147D01*
X351012Y925258D01*
G54D10*
X38100Y962025D02*
X41275Y965200D01*
X85725Y965200D01*
X88900Y962025D01*
X88900Y917575D01*
X85725Y914400D01*
X41275Y914400D01*
X38100Y917575D01*
X38100Y962025D01*
G54D10*
X38100Y136525D02*
X41275Y139700D01*
X85725Y139700D01*
X88900Y136525D01*
X88900Y92075D01*
X85725Y88900D01*
X41275Y88900D01*
X38100Y92075D01*
X38100Y136525D01*
G54D14*
X257150Y231775D02*
X257150Y228575D01*
X238150Y228575D01*
X238150Y231775D01*
X257150Y231775D01*
G54D14*
G75*
G01X247650Y203175D02*
G03X247650Y203175I0J28600D01*
G01*
G54D14*
X231750Y219075D02*
X225450Y219075D01*
G54D14*
X228550Y222275D02*
X228550Y215875D01*
G54D14*
X257150Y234975D02*
X238150Y234975D01*
G54D12*
X302839Y261125D02*
X302839Y261125D01*
G54D12*
X283339Y261125D02*
X283339Y261125D01*
G54D11*
X526210Y702594D02*
X526876Y701483D01*
X528210Y700928D01*
X529543Y700928D01*
X530876Y701483D01*
X531543Y702594D01*
X531543Y703706D01*
X530876Y704817D01*
X529543Y705372D01*
X528210Y705372D01*
X526876Y705928D01*
X526210Y707039D01*
X526210Y708150D01*
X526876Y709261D01*
X528210Y709817D01*
X529543Y709817D01*
X530876Y709261D01*
X531543Y708150D01*
G54D11*
X539320Y702594D02*
X538653Y701483D01*
X537320Y700928D01*
X535987Y700928D01*
X534653Y701483D01*
X533987Y702594D01*
X533987Y708150D01*
X534653Y709261D01*
X535987Y709817D01*
X537320Y709817D01*
X538653Y709261D01*
X539320Y708150D01*
G54D11*
X541764Y709817D02*
X541764Y700928D01*
X546430Y700928D01*
G54D11*
X524859Y725971D02*
X525526Y724860D01*
X526859Y724304D01*
X528193Y724304D01*
X529526Y724860D01*
X530193Y725971D01*
X530193Y727082D01*
X529526Y728193D01*
X528193Y728749D01*
X526859Y728749D01*
X525526Y729304D01*
X524859Y730415D01*
X524859Y731527D01*
X525526Y732638D01*
X526859Y733193D01*
X528193Y733193D01*
X529526Y732638D01*
X530193Y731527D01*
G54D11*
X532636Y724304D02*
X532636Y733193D01*
X535970Y733193D01*
X537303Y732638D01*
X537970Y731527D01*
X537970Y725971D01*
X537303Y724860D01*
X535970Y724304D01*
X532636Y724304D01*
G54D11*
X540413Y724304D02*
X543747Y733193D01*
X547080Y724304D01*
G54D11*
X541747Y727638D02*
X545747Y727638D01*
G54D11*
X355600Y680322D02*
X356267Y681433D01*
X357600Y681989D01*
X358933Y681989D01*
X360267Y681433D01*
X360933Y680322D01*
X360933Y679211D01*
X360267Y678100D01*
X358933Y677544D01*
X360267Y676989D01*
X360933Y675878D01*
X360933Y674767D01*
X360267Y673656D01*
X358933Y673100D01*
X357600Y673100D01*
X356267Y673656D01*
X355600Y674767D01*
G54D11*
X363377Y673100D02*
X363377Y673100D01*
G54D11*
X365821Y680322D02*
X366488Y681433D01*
X367821Y681989D01*
X369154Y681989D01*
X370488Y681433D01*
X371154Y680322D01*
X371154Y679211D01*
X370488Y678100D01*
X369154Y677544D01*
X370488Y676989D01*
X371154Y675878D01*
X371154Y674767D01*
X370488Y673656D01*
X369154Y673100D01*
X367821Y673100D01*
X366488Y673656D01*
X365821Y674767D01*
G54D11*
X373598Y678100D02*
X376265Y673100D01*
X378931Y678100D01*
G54D11*
X355600Y658097D02*
X356267Y659208D01*
X357600Y659764D01*
X358933Y659764D01*
X360267Y659208D01*
X360933Y658097D01*
X360933Y656986D01*
X360267Y655875D01*
X358933Y655319D01*
X360267Y654764D01*
X360933Y653653D01*
X360933Y652542D01*
X360267Y651431D01*
X358933Y650875D01*
X357600Y650875D01*
X356267Y651431D01*
X355600Y652542D01*
G54D11*
X363377Y650875D02*
X363377Y650875D01*
G54D11*
X365821Y658097D02*
X366488Y659208D01*
X367821Y659764D01*
X369154Y659764D01*
X370488Y659208D01*
X371154Y658097D01*
X371154Y656986D01*
X370488Y655875D01*
X369154Y655319D01*
X370488Y654764D01*
X371154Y653653D01*
X371154Y652542D01*
X370488Y651431D01*
X369154Y650875D01*
X367821Y650875D01*
X366488Y651431D01*
X365821Y652542D01*
G54D11*
X373598Y655875D02*
X376265Y650875D01*
X378931Y655875D01*
G54D11*
X360933Y758189D02*
X355600Y758189D01*
X355600Y754300D01*
X356267Y754300D01*
X357600Y754856D01*
X358933Y754856D01*
X360267Y754300D01*
X360933Y753189D01*
X360933Y750967D01*
X360267Y749856D01*
X358933Y749300D01*
X357600Y749300D01*
X356267Y749856D01*
X355600Y750967D01*
G54D11*
X363377Y754300D02*
X366044Y749300D01*
X368710Y754300D01*
G54D11*
X360933Y732789D02*
X355600Y732789D01*
X355600Y728900D01*
X356267Y728900D01*
X357600Y729456D01*
X358933Y729456D01*
X360267Y728900D01*
X360933Y727789D01*
X360933Y725567D01*
X360267Y724456D01*
X358933Y723900D01*
X357600Y723900D01*
X356267Y724456D01*
X355600Y725567D01*
G54D11*
X363377Y728900D02*
X366044Y723900D01*
X368710Y728900D01*
G54D11*
X393700Y800100D02*
X384811Y800100D01*
X384811Y803433D01*
X385367Y804767D01*
X386478Y805433D01*
X392033Y805433D01*
X393144Y804767D01*
X393700Y803433D01*
X393700Y800100D01*
G54D11*
X389811Y807877D02*
X389811Y813210D01*
G54D11*
X387589Y810544D02*
X392033Y810544D01*
G54D11*
X419100Y800100D02*
X410211Y800100D01*
X410211Y803433D01*
X410767Y804767D01*
X411878Y805433D01*
X417433Y805433D01*
X418544Y804767D01*
X419100Y803433D01*
X419100Y800100D01*
G54D11*
X415211Y807877D02*
X415211Y813210D01*
G54D11*
X412989Y810544D02*
X417433Y810544D01*
G54D11*
X495300Y800100D02*
X486411Y800100D01*
X486411Y803433D01*
X486967Y804767D01*
X488078Y805433D01*
X493633Y805433D01*
X494744Y804767D01*
X495300Y803433D01*
X495300Y800100D01*
G54D11*
X491411Y807877D02*
X491411Y813210D01*
G54D11*
X520700Y800100D02*
X511811Y800100D01*
X511811Y803433D01*
X512367Y804767D01*
X513478Y805433D01*
X519033Y805433D01*
X520144Y804767D01*
X520700Y803433D01*
X520700Y800100D01*
G54D11*
X516811Y807877D02*
X516811Y813210D01*
G54D11*
X524859Y751371D02*
X525526Y750260D01*
X526859Y749704D01*
X528193Y749704D01*
X529526Y750260D01*
X530193Y751371D01*
X530193Y752482D01*
X529526Y753593D01*
X528193Y754149D01*
X526859Y754149D01*
X525526Y754704D01*
X524859Y755815D01*
X524859Y756927D01*
X525526Y758038D01*
X526859Y758593D01*
X528193Y758593D01*
X529526Y758038D01*
X530193Y756927D01*
G54D11*
X532636Y749704D02*
X532636Y758593D01*
X535970Y758593D01*
X537303Y758038D01*
X537970Y756927D01*
X537970Y751371D01*
X537303Y750260D01*
X535970Y749704D01*
X532636Y749704D01*
G54D11*
X540413Y749704D02*
X543747Y758593D01*
X547080Y749704D01*
G54D11*
X541747Y753038D02*
X545747Y753038D01*
G54D11*
X524859Y776771D02*
X525526Y775660D01*
X526859Y775104D01*
X528193Y775104D01*
X529526Y775660D01*
X530193Y776771D01*
X530193Y777882D01*
X529526Y778993D01*
X528193Y779549D01*
X526859Y779549D01*
X525526Y780104D01*
X524859Y781215D01*
X524859Y782327D01*
X525526Y783438D01*
X526859Y783993D01*
X528193Y783993D01*
X529526Y783438D01*
X530193Y782327D01*
G54D11*
X532636Y775104D02*
X532636Y783993D01*
X535970Y783993D01*
X537303Y783438D01*
X537970Y782327D01*
X537970Y776771D01*
X537303Y775660D01*
X535970Y775104D01*
X532636Y775104D01*
G54D11*
X540413Y775104D02*
X543747Y783993D01*
X547080Y775104D01*
G54D11*
X541747Y778438D02*
X545747Y778438D01*
G54D11*
X526210Y677194D02*
X526876Y676083D01*
X528210Y675528D01*
X529543Y675528D01*
X530876Y676083D01*
X531543Y677194D01*
X531543Y678306D01*
X530876Y679417D01*
X529543Y679972D01*
X528210Y679972D01*
X526876Y680528D01*
X526210Y681639D01*
X526210Y682750D01*
X526876Y683861D01*
X528210Y684417D01*
X529543Y684417D01*
X530876Y683861D01*
X531543Y682750D01*
G54D11*
X539320Y677194D02*
X538653Y676083D01*
X537320Y675528D01*
X535987Y675528D01*
X534653Y676083D01*
X533987Y677194D01*
X533987Y682750D01*
X534653Y683861D01*
X535987Y684417D01*
X537320Y684417D01*
X538653Y683861D01*
X539320Y682750D01*
G54D11*
X541764Y684417D02*
X541764Y675528D01*
X546430Y675528D01*
G54D11*
X526210Y651794D02*
X526876Y650683D01*
X528210Y650128D01*
X529543Y650128D01*
X530876Y650683D01*
X531543Y651794D01*
X531543Y652906D01*
X530876Y654017D01*
X529543Y654572D01*
X528210Y654572D01*
X526876Y655128D01*
X526210Y656239D01*
X526210Y657350D01*
X526876Y658461D01*
X528210Y659017D01*
X529543Y659017D01*
X530876Y658461D01*
X531543Y657350D01*
G54D11*
X539320Y651794D02*
X538653Y650683D01*
X537320Y650128D01*
X535987Y650128D01*
X534653Y650683D01*
X533987Y651794D01*
X533987Y657350D01*
X534653Y658461D01*
X535987Y659017D01*
X537320Y659017D01*
X538653Y658461D01*
X539320Y657350D01*
G54D11*
X541764Y659017D02*
X541764Y650128D01*
X546430Y650128D01*
G54D11*
X531994Y799045D02*
X533880Y800931D01*
X535844Y798967D01*
X536158Y797710D01*
X535608Y796374D01*
X534666Y795431D01*
X533330Y794881D01*
X532073Y795196D01*
X528145Y799124D01*
X527830Y800381D01*
X528380Y801717D01*
X529323Y802660D01*
X530659Y803210D01*
X531916Y802895D01*
G54D11*
X538751Y799516D02*
X532465Y805802D01*
X542522Y803287D01*
X536236Y809573D01*
G54D11*
X544250Y805015D02*
X537964Y811301D01*
X540322Y813658D01*
X541657Y814208D01*
X542914Y813894D01*
X546843Y809965D01*
X547157Y808708D01*
X546607Y807372D01*
X544250Y805015D01*
G54D11*
X531994Y638594D02*
X533880Y636708D01*
X531916Y634744D01*
X530659Y634429D01*
X529323Y634979D01*
X528380Y635922D01*
X527830Y637258D01*
X528145Y638515D01*
X532073Y642443D01*
X533330Y642758D01*
X534666Y642208D01*
X535608Y641265D01*
X536158Y639929D01*
X535844Y638672D01*
G54D11*
X532465Y631837D02*
X538751Y638123D01*
X536236Y628066D01*
X542522Y634351D01*
G54D11*
X537964Y626338D02*
X544250Y632623D01*
X546607Y630266D01*
X547157Y628931D01*
X546843Y627674D01*
X542914Y623745D01*
X541657Y623431D01*
X540322Y623981D01*
X537964Y626338D01*
G54D11*
X360544Y810044D02*
X362430Y808158D01*
X360466Y806194D01*
X359209Y805879D01*
X357873Y806429D01*
X356930Y807372D01*
X356380Y808708D01*
X356695Y809965D01*
X360623Y813893D01*
X361880Y814208D01*
X363216Y813658D01*
X364159Y812715D01*
X364708Y811379D01*
X364394Y810122D01*
G54D11*
X361015Y803287D02*
X367301Y809573D01*
X364786Y799516D01*
X371072Y805801D01*
G54D11*
X366514Y797788D02*
X372800Y804073D01*
X375157Y801716D01*
X375707Y800381D01*
X375393Y799124D01*
X371464Y795195D01*
X370207Y794881D01*
X368871Y795431D01*
X366514Y797788D01*
G54D11*
X360544Y627595D02*
X362430Y629481D01*
X364394Y627517D01*
X364709Y626260D01*
X364159Y624924D01*
X363216Y623981D01*
X361880Y623431D01*
X360623Y623746D01*
X356695Y627674D01*
X356380Y628931D01*
X356930Y630267D01*
X357873Y631210D01*
X359209Y631760D01*
X360466Y631445D01*
G54D11*
X367301Y628066D02*
X361015Y634352D01*
X371072Y631837D01*
X364787Y638123D01*
G54D11*
X372800Y633565D02*
X366515Y639851D01*
X368872Y642208D01*
X370207Y642758D01*
X371464Y642444D01*
X375393Y638515D01*
X375707Y637258D01*
X375157Y635922D01*
X372800Y633565D01*
G54D11*
X440056Y624967D02*
X440056Y627633D01*
X442833Y627633D01*
X443944Y626967D01*
X444500Y625633D01*
X444500Y624300D01*
X443944Y622967D01*
X442833Y622300D01*
X437278Y622300D01*
X436167Y622967D01*
X435611Y624300D01*
X435611Y625633D01*
X436167Y626967D01*
X437278Y627633D01*
G54D11*
X444500Y630077D02*
X435611Y630077D01*
X444500Y635410D01*
X435611Y635410D01*
G54D11*
X444500Y637854D02*
X435611Y637854D01*
X435611Y641187D01*
X436167Y642521D01*
X437278Y643187D01*
X442833Y643187D01*
X443944Y642521D01*
X444500Y641187D01*
X444500Y637854D01*
G54D11*
X465456Y624967D02*
X465456Y627633D01*
X468233Y627633D01*
X469344Y626967D01*
X469900Y625633D01*
X469900Y624300D01*
X469344Y622967D01*
X468233Y622300D01*
X462678Y622300D01*
X461567Y622967D01*
X461011Y624300D01*
X461011Y625633D01*
X461567Y626967D01*
X462678Y627633D01*
G54D11*
X469900Y630077D02*
X461011Y630077D01*
X469900Y635410D01*
X461011Y635410D01*
G54D11*
X469900Y637854D02*
X461011Y637854D01*
X461011Y641187D01*
X461567Y642521D01*
X462678Y643187D01*
X468233Y643187D01*
X469344Y642521D01*
X469900Y641187D01*
X469900Y637854D01*
G54D11*
X490856Y624967D02*
X490856Y627633D01*
X493633Y627633D01*
X494744Y626967D01*
X495300Y625633D01*
X495300Y624300D01*
X494744Y622967D01*
X493633Y622300D01*
X488078Y622300D01*
X486967Y622967D01*
X486411Y624300D01*
X486411Y625633D01*
X486967Y626967D01*
X488078Y627633D01*
G54D11*
X495300Y630077D02*
X486411Y630077D01*
X495300Y635410D01*
X486411Y635410D01*
G54D11*
X495300Y637854D02*
X486411Y637854D01*
X486411Y641187D01*
X486967Y642521D01*
X488078Y643187D01*
X493633Y643187D01*
X494744Y642521D01*
X495300Y641187D01*
X495300Y637854D01*
G54D11*
X516256Y624967D02*
X516256Y627633D01*
X519033Y627633D01*
X520144Y626967D01*
X520700Y625633D01*
X520700Y624300D01*
X520144Y622967D01*
X519033Y622300D01*
X513478Y622300D01*
X512367Y622967D01*
X511811Y624300D01*
X511811Y625633D01*
X512367Y626967D01*
X513478Y627633D01*
G54D11*
X520700Y630077D02*
X511811Y630077D01*
X520700Y635410D01*
X511811Y635410D01*
G54D11*
X520700Y637854D02*
X511811Y637854D01*
X511811Y641187D01*
X512367Y642521D01*
X513478Y643187D01*
X519033Y643187D01*
X520144Y642521D01*
X520700Y641187D01*
X520700Y637854D01*
G36*
X431800Y234950D02*
X552450Y234950D01*
X552450Y209550D01*
X431800Y209550D01*
X431800Y234950D01*
G37*
G54D10*
X431800Y234950D02*
X552450Y234950D01*
X552450Y209550D01*
X431800Y209550D01*
X431800Y234950D01*
G36*
X431800Y381000D02*
X552450Y381000D01*
X552450Y355600D01*
X431800Y355600D01*
X431800Y381000D01*
G37*
G54D10*
X431800Y381000D02*
X552450Y381000D01*
X552450Y355600D01*
X431800Y355600D01*
X431800Y381000D01*
G36*
X431800Y965200D02*
X552450Y965200D01*
X552450Y939800D01*
X431800Y939800D01*
X431800Y965200D01*
G37*
G54D10*
X431800Y965200D02*
X552450Y965200D01*
X552450Y939800D01*
X431800Y939800D01*
X431800Y965200D01*
G36*
X517525Y174625D02*
X514350Y177800D01*
X514350Y171450D01*
X517525Y174625D01*
G37*
G54D10*
X517525Y174625D02*
X514350Y177800D01*
X514350Y171450D01*
X517525Y174625D01*
G36*
X514350Y152400D02*
X514350Y146050D01*
X517525Y149225D01*
X514350Y152400D01*
G37*
G54D10*
X514350Y152400D02*
X514350Y146050D01*
X517525Y149225D01*
X514350Y152400D01*
G36*
X517525Y127000D02*
X517525Y120650D01*
X514350Y123825D01*
X517525Y127000D01*
G37*
G54D10*
X517525Y127000D02*
X517525Y120650D01*
X514350Y123825D01*
X517525Y127000D01*
G36*
X517525Y101600D02*
X517525Y95250D01*
X514350Y98425D01*
X517525Y101600D01*
G37*
G54D10*
X517525Y101600D02*
X517525Y95250D01*
X514350Y98425D01*
X517525Y101600D01*
G36*
X501650Y247650D02*
X501650Y241300D01*
X498475Y244475D01*
X501650Y247650D01*
G37*
G54D10*
X501650Y247650D02*
X501650Y241300D01*
X498475Y244475D01*
X501650Y247650D01*
M02*
