%FSLAX34Y34*%
%MOMM*%
%LNSOLDERMASK_TOP*%
G71*
G01*
%ADD10C, 2.20*%
%ADD11C, 2.20*%
%ADD12C, 2.20*%
%ADD13R, 1.60X1.90*%
%ADD14R, 4.20X1.90*%
%ADD15C, 2.20*%
%ADD16R, 1.20X2.20*%
%ADD17R, 1.20X1.00*%
%ADD18R, 1.40X1.40*%
%ADD19C, 2.60*%
%ADD20C, 4.60*%
%ADD21R, 2.20X1.20*%
%ADD22C, 2.60*%
%LPD*%
G36*
X103300Y574625D02*
X125300Y574625D01*
X125300Y536625D01*
X103300Y536625D01*
X103300Y574625D01*
G37*
G36*
X123144Y574625D02*
X145144Y574625D01*
X145144Y536625D01*
X123144Y536625D01*
X123144Y574625D01*
G37*
G36*
X142988Y574625D02*
X164988Y574625D01*
X164988Y536625D01*
X142988Y536625D01*
X142988Y574625D01*
G37*
G36*
X162831Y574625D02*
X184831Y574625D01*
X184831Y536625D01*
X162831Y536625D01*
X162831Y574625D01*
G37*
G36*
X182675Y574625D02*
X204675Y574625D01*
X204675Y536625D01*
X182675Y536625D01*
X182675Y574625D01*
G37*
G36*
X203312Y574625D02*
X225312Y574625D01*
X225312Y536625D01*
X203312Y536625D01*
X203312Y574625D01*
G37*
G36*
X223156Y574625D02*
X245156Y574625D01*
X245156Y536625D01*
X223156Y536625D01*
X223156Y574625D01*
G37*
G36*
X243000Y574625D02*
X265000Y574625D01*
X265000Y536625D01*
X243000Y536625D01*
X243000Y574625D01*
G37*
G36*
X103300Y404762D02*
X125300Y404762D01*
X125300Y366762D01*
X103300Y366762D01*
X103300Y404762D01*
G37*
G36*
X123144Y404762D02*
X145144Y404762D01*
X145144Y366762D01*
X123144Y366762D01*
X123144Y404762D01*
G37*
G36*
X142988Y404762D02*
X164988Y404762D01*
X164988Y366762D01*
X142988Y366762D01*
X142988Y404762D01*
G37*
G36*
X162831Y404762D02*
X184831Y404762D01*
X184831Y366762D01*
X162831Y366762D01*
X162831Y404762D01*
G37*
G36*
X182675Y404762D02*
X204675Y404762D01*
X204675Y366762D01*
X182675Y366762D01*
X182675Y404762D01*
G37*
G36*
X203312Y404762D02*
X225312Y404762D01*
X225312Y366762D01*
X203312Y366762D01*
X203312Y404762D01*
G37*
G36*
X223156Y404762D02*
X245156Y404762D01*
X245156Y366762D01*
X223156Y366762D01*
X223156Y404762D01*
G37*
G36*
X243000Y404762D02*
X265000Y404762D01*
X265000Y366762D01*
X243000Y366762D01*
X243000Y404762D01*
G37*
G36*
X106475Y350725D02*
X128475Y350725D01*
X128475Y328725D01*
X106475Y328725D01*
X106475Y350725D01*
G37*
G36*
X106475Y275319D02*
X128475Y275319D01*
X128475Y253319D01*
X106475Y253319D01*
X106475Y275319D01*
G37*
X95250Y281781D02*
G54D10*
D03*
X95250Y322262D02*
G54D10*
D03*
G36*
X106475Y236425D02*
X128475Y236425D01*
X128475Y214425D01*
X106475Y214425D01*
X106475Y236425D01*
G37*
G36*
X106475Y161019D02*
X128475Y161019D01*
X128475Y139019D01*
X106475Y139019D01*
X106475Y161019D01*
G37*
X95250Y167481D02*
G54D10*
D03*
X95250Y207962D02*
G54D10*
D03*
G36*
X106475Y912700D02*
X128475Y912700D01*
X128475Y890700D01*
X106475Y890700D01*
X106475Y912700D01*
G37*
G36*
X106475Y837294D02*
X128475Y837294D01*
X128475Y815294D01*
X106475Y815294D01*
X106475Y837294D01*
G37*
X95250Y843756D02*
G54D10*
D03*
X95250Y884238D02*
G54D10*
D03*
X165100Y793750D02*
G54D11*
D03*
X165100Y768350D02*
G54D11*
D03*
X165100Y742950D02*
G54D11*
D03*
X165100Y717550D02*
G54D11*
D03*
X165100Y692150D02*
G54D11*
D03*
X95245Y167485D02*
G54D10*
D03*
X95245Y281785D02*
G54D10*
D03*
X95245Y884240D02*
G54D10*
D03*
X478532Y558267D02*
G54D12*
D03*
X478532Y532867D02*
G54D12*
D03*
X478532Y507467D02*
G54D12*
D03*
X478532Y482067D02*
G54D12*
D03*
X478532Y456667D02*
G54D12*
D03*
X478532Y431267D02*
G54D12*
D03*
X478532Y405867D02*
G54D12*
D03*
X254000Y762000D02*
G54D13*
D03*
X231000Y762000D02*
G54D13*
D03*
X208000Y762000D02*
G54D13*
D03*
X231000Y697000D02*
G54D14*
D03*
G36*
X404700Y947935D02*
X398265Y941500D01*
X389135Y941500D01*
X382700Y947935D01*
X382700Y957065D01*
X389135Y963500D01*
X398265Y963500D01*
X404700Y957065D01*
X404700Y947935D01*
G37*
G36*
X404700Y922535D02*
X398265Y916100D01*
X389135Y916100D01*
X382700Y922535D01*
X382700Y931665D01*
X389135Y938100D01*
X398265Y938100D01*
X404700Y931665D01*
X404700Y922535D01*
G37*
G36*
X404700Y897135D02*
X398265Y890700D01*
X389135Y890700D01*
X382700Y897135D01*
X382700Y906265D01*
X389135Y912700D01*
X398265Y912700D01*
X404700Y906265D01*
X404700Y897135D01*
G37*
G36*
X404700Y871735D02*
X398265Y865300D01*
X389135Y865300D01*
X382700Y871735D01*
X382700Y880865D01*
X389135Y887300D01*
X398265Y887300D01*
X404700Y880865D01*
X404700Y871735D01*
G37*
G36*
X404700Y173235D02*
X398265Y166800D01*
X389135Y166800D01*
X382700Y173235D01*
X382700Y182365D01*
X389135Y188800D01*
X398265Y188800D01*
X404700Y182365D01*
X404700Y173235D01*
G37*
G36*
X404700Y147835D02*
X398265Y141400D01*
X389135Y141400D01*
X382700Y147835D01*
X382700Y156965D01*
X389135Y163400D01*
X398265Y163400D01*
X404700Y156965D01*
X404700Y147835D01*
G37*
G36*
X404700Y122435D02*
X398265Y116000D01*
X389135Y116000D01*
X382700Y122435D01*
X382700Y131565D01*
X389135Y138000D01*
X398265Y138000D01*
X404700Y131565D01*
X404700Y122435D01*
G37*
G36*
X404700Y97035D02*
X398265Y90600D01*
X389135Y90600D01*
X382700Y97035D01*
X382700Y106165D01*
X389135Y112600D01*
X398265Y112600D01*
X404700Y106165D01*
X404700Y97035D01*
G37*
G36*
X404700Y243085D02*
X398265Y236650D01*
X389135Y236650D01*
X382700Y243085D01*
X382700Y252215D01*
X389135Y258650D01*
X398265Y258650D01*
X404700Y252215D01*
X404700Y243085D01*
G37*
G36*
X404700Y217685D02*
X398265Y211250D01*
X389135Y211250D01*
X382700Y217685D01*
X382700Y226815D01*
X389135Y233250D01*
X398265Y233250D01*
X404700Y226815D01*
X404700Y217685D01*
G37*
X165100Y863600D02*
G54D15*
D03*
X165100Y838200D02*
G54D15*
D03*
X260350Y793750D02*
G54D12*
D03*
X209550Y793750D02*
G54D12*
D03*
X323850Y450850D02*
G54D15*
D03*
X298450Y450850D02*
G54D15*
D03*
X361950Y406400D02*
G54D12*
D03*
X311150Y406400D02*
G54D12*
D03*
X298450Y101600D02*
G54D15*
D03*
X349250Y127000D02*
G54D15*
D03*
X349250Y177800D02*
G54D15*
D03*
X298450Y177800D02*
G54D15*
D03*
X225425Y317500D02*
G54D16*
D03*
X161925Y317500D02*
G54D16*
D03*
X238125Y292100D02*
G54D16*
D03*
X174625Y292100D02*
G54D16*
D03*
X257175Y644525D02*
G54D16*
D03*
X193675Y644525D02*
G54D16*
D03*
X257175Y619125D02*
G54D16*
D03*
X193675Y619125D02*
G54D16*
D03*
X69850Y628650D02*
G54D11*
D03*
X69850Y654050D02*
G54D11*
D03*
X69850Y600075D02*
G54D11*
D03*
X69850Y574675D02*
G54D11*
D03*
X161925Y603250D02*
G54D16*
D03*
X98425Y603250D02*
G54D16*
D03*
X161925Y628650D02*
G54D16*
D03*
X98425Y628650D02*
G54D16*
D03*
X269286Y320950D02*
G54D17*
D03*
X293495Y311425D02*
G54D17*
D03*
X293495Y330475D02*
G54D17*
D03*
X293495Y311425D02*
G54D18*
D03*
X293495Y330475D02*
G54D18*
D03*
X269286Y320950D02*
G54D18*
D03*
X298450Y593725D02*
G54D16*
D03*
X234950Y593725D02*
G54D16*
D03*
G36*
X243000Y574630D02*
X265000Y574630D01*
X265000Y536630D01*
X243000Y536630D01*
X243000Y574630D01*
G37*
G36*
X290450Y606725D02*
X306450Y606725D01*
X306450Y580725D01*
X290450Y580725D01*
X290450Y606725D01*
G37*
X69850Y654050D02*
G54D15*
D03*
X69850Y574675D02*
G54D11*
D03*
G36*
X243000Y773000D02*
X265000Y773000D01*
X265000Y751000D01*
X243000Y751000D01*
X243000Y773000D01*
G37*
X361950Y406400D02*
G54D19*
D03*
X165095Y863600D02*
G54D19*
D03*
X260350Y793750D02*
G54D19*
D03*
X323855Y450855D02*
G54D19*
D03*
X88900Y809625D02*
G54D19*
D03*
X88900Y676275D02*
G54D19*
D03*
X44425Y793750D02*
G54D19*
D03*
X44450Y692150D02*
G54D19*
D03*
X478532Y507467D02*
G54D19*
D03*
X478532Y482067D02*
G54D19*
D03*
X235814Y101914D02*
G54D17*
D03*
X211604Y111439D02*
G54D17*
D03*
X211604Y92389D02*
G54D17*
D03*
X211604Y111439D02*
G54D18*
D03*
X211604Y92389D02*
G54D18*
D03*
X235814Y101914D02*
G54D18*
D03*
G36*
X219604Y84389D02*
X203604Y84389D01*
X203604Y100389D01*
X219604Y100389D01*
X219604Y84389D01*
G37*
G36*
X285498Y322476D02*
X285498Y338476D01*
X301498Y338476D01*
X301498Y322476D01*
X285498Y322476D01*
G37*
X63500Y939800D02*
G54D20*
D03*
G36*
X404700Y363735D02*
X398265Y357300D01*
X389135Y357300D01*
X382700Y363735D01*
X382700Y372865D01*
X389135Y379300D01*
X398265Y379300D01*
X404700Y372865D01*
X404700Y363735D01*
G37*
G36*
X404700Y338335D02*
X398265Y331900D01*
X389135Y331900D01*
X382700Y338335D01*
X382700Y347465D01*
X389135Y353900D01*
X398265Y353900D01*
X404700Y347465D01*
X404700Y338335D01*
G37*
G36*
X404700Y312935D02*
X398265Y306500D01*
X389135Y306500D01*
X382700Y312935D01*
X382700Y322065D01*
X389135Y328500D01*
X398265Y328500D01*
X404700Y322065D01*
X404700Y312935D01*
G37*
G36*
X404700Y287535D02*
X398265Y281100D01*
X389135Y281100D01*
X382700Y287535D01*
X382700Y296665D01*
X389135Y303100D01*
X398265Y303100D01*
X404700Y296665D01*
X404700Y287535D01*
G37*
X336550Y831850D02*
G54D19*
D03*
X565150Y831850D02*
G54D19*
D03*
X565150Y603250D02*
G54D19*
D03*
X336550Y603250D02*
G54D19*
D03*
X361950Y831850D02*
G54D16*
D03*
X387350Y831850D02*
G54D16*
D03*
X412750Y831850D02*
G54D16*
D03*
X438150Y831850D02*
G54D16*
D03*
X463550Y831850D02*
G54D16*
D03*
X488950Y831850D02*
G54D16*
D03*
X514350Y831850D02*
G54D16*
D03*
X539750Y831850D02*
G54D16*
D03*
X361950Y603250D02*
G54D16*
D03*
X387350Y603250D02*
G54D16*
D03*
X412750Y603250D02*
G54D16*
D03*
X438150Y603250D02*
G54D16*
D03*
X463550Y603250D02*
G54D16*
D03*
X488950Y603250D02*
G54D16*
D03*
X514350Y603250D02*
G54D16*
D03*
X539750Y603250D02*
G54D16*
D03*
X336550Y628650D02*
G54D21*
D03*
X336550Y654050D02*
G54D21*
D03*
X336550Y679450D02*
G54D21*
D03*
X336550Y704850D02*
G54D21*
D03*
X336550Y730250D02*
G54D21*
D03*
X336550Y755650D02*
G54D21*
D03*
X336550Y781050D02*
G54D21*
D03*
X336550Y806450D02*
G54D21*
D03*
X565150Y806450D02*
G54D21*
D03*
X565150Y781050D02*
G54D21*
D03*
X565150Y755650D02*
G54D21*
D03*
X565150Y730250D02*
G54D21*
D03*
X565150Y704850D02*
G54D21*
D03*
X565150Y679450D02*
G54D21*
D03*
X565150Y654050D02*
G54D21*
D03*
X565150Y628650D02*
G54D21*
D03*
X292100Y749300D02*
G54D12*
D03*
X292100Y698500D02*
G54D12*
D03*
X292100Y749300D02*
G54D19*
D03*
X450850Y558800D02*
G54D19*
D03*
X450850Y533400D02*
G54D19*
D03*
X450850Y508000D02*
G54D19*
D03*
X450850Y482600D02*
G54D19*
D03*
X450850Y457200D02*
G54D19*
D03*
X450850Y431800D02*
G54D19*
D03*
X450850Y406400D02*
G54D19*
D03*
G36*
X323550Y814450D02*
X349550Y814450D01*
X349550Y798450D01*
X323550Y798450D01*
X323550Y814450D01*
G37*
G36*
X323550Y789050D02*
X349550Y789050D01*
X349550Y773050D01*
X323550Y773050D01*
X323550Y789050D01*
G37*
G36*
X323550Y763650D02*
X349550Y763650D01*
X349550Y747650D01*
X323550Y747650D01*
X323550Y763650D01*
G37*
G36*
X323550Y738250D02*
X349550Y738250D01*
X349550Y722250D01*
X323550Y722250D01*
X323550Y738250D01*
G37*
G36*
X323550Y712850D02*
X349550Y712850D01*
X349550Y696850D01*
X323550Y696850D01*
X323550Y712850D01*
G37*
G36*
X323550Y687450D02*
X349550Y687450D01*
X349550Y671450D01*
X323550Y671450D01*
X323550Y687450D01*
G37*
G36*
X323550Y662050D02*
X349550Y662050D01*
X349550Y646050D01*
X323550Y646050D01*
X323550Y662050D01*
G37*
G36*
X323550Y636650D02*
X349550Y636650D01*
X349550Y620650D01*
X323550Y620650D01*
X323550Y636650D01*
G37*
G36*
X552150Y814450D02*
X578150Y814450D01*
X578150Y798450D01*
X552150Y798450D01*
X552150Y814450D01*
G37*
G36*
X552150Y789050D02*
X578150Y789050D01*
X578150Y773050D01*
X552150Y773050D01*
X552150Y789050D01*
G37*
G36*
X552150Y763650D02*
X578150Y763650D01*
X578150Y747650D01*
X552150Y747650D01*
X552150Y763650D01*
G37*
G36*
X552150Y738250D02*
X578150Y738250D01*
X578150Y722250D01*
X552150Y722250D01*
X552150Y738250D01*
G37*
G36*
X552150Y712850D02*
X578150Y712850D01*
X578150Y696850D01*
X552150Y696850D01*
X552150Y712850D01*
G37*
G36*
X552150Y687450D02*
X578150Y687450D01*
X578150Y671450D01*
X552150Y671450D01*
X552150Y687450D01*
G37*
G36*
X552150Y662050D02*
X578150Y662050D01*
X578150Y646050D01*
X552150Y646050D01*
X552150Y662050D01*
G37*
G36*
X552150Y636650D02*
X578150Y636650D01*
X578150Y620650D01*
X552150Y620650D01*
X552150Y636650D01*
G37*
G36*
X353950Y616250D02*
X369950Y616250D01*
X369950Y590250D01*
X353950Y590250D01*
X353950Y616250D01*
G37*
G36*
X379350Y616250D02*
X395350Y616250D01*
X395350Y590250D01*
X379350Y590250D01*
X379350Y616250D01*
G37*
G36*
X404750Y616250D02*
X420750Y616250D01*
X420750Y590250D01*
X404750Y590250D01*
X404750Y616250D01*
G37*
G36*
X430150Y616250D02*
X446150Y616250D01*
X446150Y590250D01*
X430150Y590250D01*
X430150Y616250D01*
G37*
G36*
X455550Y616250D02*
X471550Y616250D01*
X471550Y590250D01*
X455550Y590250D01*
X455550Y616250D01*
G37*
G36*
X480950Y616250D02*
X496950Y616250D01*
X496950Y590250D01*
X480950Y590250D01*
X480950Y616250D01*
G37*
G36*
X506350Y616250D02*
X522350Y616250D01*
X522350Y590250D01*
X506350Y590250D01*
X506350Y616250D01*
G37*
G36*
X531750Y616250D02*
X547750Y616250D01*
X547750Y590250D01*
X531750Y590250D01*
X531750Y616250D01*
G37*
G36*
X353950Y844850D02*
X369950Y844850D01*
X369950Y818850D01*
X353950Y818850D01*
X353950Y844850D01*
G37*
G36*
X379350Y844850D02*
X395350Y844850D01*
X395350Y818850D01*
X379350Y818850D01*
X379350Y844850D01*
G37*
G36*
X404750Y844850D02*
X420750Y844850D01*
X420750Y818850D01*
X404750Y818850D01*
X404750Y844850D01*
G37*
G36*
X430150Y844850D02*
X446150Y844850D01*
X446150Y818850D01*
X430150Y818850D01*
X430150Y844850D01*
G37*
G36*
X455550Y844850D02*
X471550Y844850D01*
X471550Y818850D01*
X455550Y818850D01*
X455550Y844850D01*
G37*
G36*
X480950Y844850D02*
X496950Y844850D01*
X496950Y818850D01*
X480950Y818850D01*
X480950Y844850D01*
G37*
G36*
X506350Y844850D02*
X522350Y844850D01*
X522350Y818850D01*
X506350Y818850D01*
X506350Y844850D01*
G37*
G36*
X531750Y844850D02*
X547750Y844850D01*
X547750Y818850D01*
X531750Y818850D01*
X531750Y844850D01*
G37*
X393700Y952500D02*
G54D19*
D03*
X393700Y368300D02*
G54D19*
D03*
X344534Y248144D02*
G54D21*
D03*
X344534Y311644D02*
G54D21*
D03*
X319134Y248144D02*
G54D21*
D03*
X319134Y311644D02*
G54D21*
D03*
X254404Y353887D02*
G54D16*
D03*
X317904Y353887D02*
G54D16*
D03*
X292504Y379287D02*
G54D16*
D03*
X356004Y379287D02*
G54D16*
D03*
G36*
X331535Y319640D02*
X357535Y319640D01*
X357535Y303640D01*
X331535Y303640D01*
X331535Y319640D01*
G37*
X393700Y222250D02*
G54D22*
D03*
X269875Y101600D02*
G54D21*
D03*
X269875Y165100D02*
G54D21*
D03*
X212725Y127000D02*
G54D21*
D03*
X212725Y190500D02*
G54D21*
D03*
X187325Y127000D02*
G54D21*
D03*
X187325Y190500D02*
G54D21*
D03*
G36*
X174325Y135000D02*
X200325Y135000D01*
X200325Y119000D01*
X174325Y119000D01*
X174325Y135000D01*
G37*
X63500Y114300D02*
G54D20*
D03*
X247650Y244475D02*
G54D15*
D03*
X247650Y219075D02*
G54D15*
D03*
X247650Y244475D02*
G54D19*
D03*
G36*
X220000Y708000D02*
X242000Y708000D01*
X242000Y686000D01*
X220000Y686000D01*
X220000Y708000D01*
G37*
X565150Y558800D02*
G54D22*
D03*
X565150Y406400D02*
G54D22*
D03*
M02*
